<svg xmlns="http://www.w3.org/2000/svg" viewBox="0 0 3200 2000" xml:space="preserve"><path style="fill:#aad8b0" d="M452.515 1773.869s-268.85-429.198-67.94-854.236c189.064-399.977 504.37-188.169 856.973-505.863 535.316-482.32 1597.364-208.049 1377.844 457.933-113.774 345.172 464.265 551.943 270.853 902.909z"/><path style="fill:#d9e7fc" d="M2325.447 1197.076h-309.711c-4.102 0-7.457-3.355-7.457-7.457v-23.775c0-4.102 3.355-7.458 7.457-7.458h309.711c4.102 0 7.457 3.356 7.457 7.458v23.775c0 4.102-3.355 7.457-7.457 7.457"/><path style="fill:#d9e7fc" d="m2086.948 1197.075-3.856 22.638-55.824 327.722c-.157 1.143-1.416 2.01-2.919 2.01-2.865 0-5.098-1.903-4.794-4.091l44.274-335.602 1.677-12.677z"/><path style="fill:#bfd3ef" d="m2086.948 1197.075-3.856 22.638c-2.648-9.018-19.263-9.961-19.263-9.961l1.677-12.677z"/><path style="fill:#d9e7fc" d="M2316.835 1775.458c-1.503 0-2.762-1.423-2.918-3.299l-55.825-537.926-2.406-23.181-1.449-13.978h21.441l1.677 20.809 1.312 16.328 42.963 534.531c.303 3.592-1.929 6.716-4.795 6.716"/><path style="fill:#bfd3ef" d="M2278.666 1234.212c-5.455-17.708-22.971-23.146-22.971-23.146s0-.007-.01-.014l-1.449-13.978h21.441l1.677 20.809z"/><path style="opacity:.5;fill:#dfebfd" d="M2043.116 998.479s108.712-160.92 249.228-218.022c18.674-7.589 36.564 12.569 26.967 30.294q-.24.443-.493.893c-16.879 30-181.644 108.386-275.702 186.835"/><path style="opacity:.5;fill:#dfebfd" d="M2007.176 1042.068s197.843-169.245 396.155-187.062c12.093-1.086 23.362 7.365 24.897 19.409.999 7.844-1.871 17.817-13.614 29.653-31.314 31.561-263.387 72.606-407.438 138"/><path style="fill:#dfebfd" d="M1336.747 768.706s-76.757-89.775-87.5-181.398c-1.428-12.176 13.286-19.404 22.125-10.909q.22.212.444.434c14.857 14.75 34.155 124.034 64.931 191.873"/><path style="fill:#dfebfd" d="M1356.488 796.83s-67.217-143.378-45.576-262.531c1.32-7.266 8.098-12.506 15.408-11.457 4.76.684 10.143 3.98 15.182 12.78 13.438 23.466-.047 166.172 14.986 261.208m327.293-380.366c-33.908-36.777-99.194 14.253-99.194 14.253s-10.021 100.499-23.364 109.72-8.21-87.597-8.21-87.597c-29.049 11.733-81.86 82.352-81.86 82.352s50.011 85.099 34.808 90.752-40.438-77.611-40.438-77.611c-22.579 21.973-31.289 66.21-31.289 66.21-4.729 67.117 81.699 69.723 81.699 69.723s16.695 29.866 16.089 74.417l-.001.001s-.88 8.627.511 21.784l7.296-3.802a80 80 0 0 1-.971-6.695.05.05 0 0 1-.003-.04l-.009-.095a485 485 0 0 1-.329-5.787v-.009c-.002-.005.002-.007 0-.012-.045-5.525-.218-9.533-.479-12.357l-.004-.025c-.458-17.178-.135-40.039 4.332-47.126 0 0-1.399-.715-3.305-2.533l3.305 2.533c26.434 20.255 91.203-7.821 122.275-33.085s10.794-27.175-16.237-33.341c-27.032-6.165-64.096 18.484-78.947 18.282s-1.155-15.278 22.969-25.579 47.806 6.851 87.132-9.102c39.326-15.954 31.153-101.302 31.153-101.302-21.688 21.508-75.512 31.405-81.944 23.414s62.723-42.889 72.033-51.143c9.311-8.252 16.889-39.422-17.018-76.2m380.789 49.931c-50.139-54.382-146.677 21.076-146.677 21.076s-14.816 148.607-34.548 162.241c-19.73 13.635-12.141-129.528-12.141-129.528-42.954 17.349-121.046 121.772-121.046 121.772s73.951 125.835 51.471 134.194-59.796-114.762-59.796-114.762c-33.387 32.491-46.266 97.904-46.266 97.904-6.993 99.245 120.807 103.099 120.807 103.099s24.688 44.162 23.791 110.04l-.001.002s-1.302 12.755.755 32.212l10.788-5.622a118 118 0 0 1-1.435-9.9.07.07 0 0 1-.005-.059l-.013-.141c-.13-2.052-.304-4.978-.486-8.557v-.014c-.004-.007.004-.01 0-.018-.066-8.169-.322-14.096-.707-18.271l-.007-.038c-.677-25.4-.199-59.204 6.405-69.684 0 0-2.068-1.058-4.887-3.745l4.887 3.745c39.087 29.951 134.86-11.565 180.808-48.922 45.946-37.357 15.961-40.183-24.011-49.3s-94.777 27.332-116.736 27.034-1.708-22.591 33.963-37.823 70.689 10.13 128.841-13.461c58.152-23.59 46.066-149.793 46.066-149.793-32.068 31.804-111.658 46.438-121.17 34.621-9.511-11.816 92.747-63.42 106.515-75.624 13.769-12.205 24.975-58.297-25.165-112.678M648.905 860.44c-.081-82.786 136.591-94.067 136.591-94.067s125.041 110.918 151.617 107.142c26.576-3.775-88.39-115.707-88.39-115.707 48.489-18.359 191.993 8.181 191.993 8.181s34.771 159.613 59.6 149.412-37.998-139.759-37.998-139.759c52.123 1.355 112.39 45.351 112.39 45.351 81.12 76.279-21.018 176.506-21.018 176.506s13.243 55.055 64.011 108.533l.002.001s10.758 9.498 23.843 27.055l-13.139 3.572a132 132 0 0 0-6.338-9.229.08.08 0 0 0-.042-.052l-.096-.126a793 793 0 0 0-6.1-7.404l-.01-.011c-.002-.009-.011-.007-.013-.015-6.15-6.767-10.44-11.834-13.295-15.559a.1.1 0 0 1-.023-.036c-18.734-21.396-44.799-48.824-58.188-52.423 0 0 .898-2.44 1.174-6.791l-1.174 6.791c-9.387 54.308-119.653 92.912-185.797 97.095s-43.64-20.913-17.702-58.765 98.675-49.509 116.502-66.432-15.753-19.869-56.646-5.301-50.421 62.014-116.144 86.783c-65.723 24.77-151.632-88.162-151.632-88.162 50.517 1.792 127.063-46.622 125.908-63.56s-124.413 18.299-144.999 18.721c-20.588.424-64.806-28.958-64.887-111.744"/><path style="fill:#699ff0" d="M2152.276 1207.249c0 34.608-3.12 68.497-9.112 101.386-47.738 262.444-277.469 461.428-553.69 461.428-229.741 0-427.313-137.633-514.777-334.947a557 557 0 0 1-28.667-80.946c-12.645-46.831-19.379-96.093-19.379-146.92 0-41.569 4.51-82.079 13.057-121.074 23.385-106.669 77.023-202 151.472-276.562a564 564 0 0 1 68.188-58.251c92.726-67.271 206.777-106.937 330.107-106.937 14.313 0 28.502.536 42.538 1.596a566 566 0 0 1 58.498 7.455c131.011 23.746 246.236 92.85 328.82 190.456a563 563 0 0 1 45.822 62.38c55.182 87.043 87.123 190.262 87.123 300.936"/><path style="fill:#4888e5" d="M2152.272 1207.254c0 34.608-3.12 68.497-9.112 101.386a558 558 0 0 1-27.453 98.564c-80.626 212.122-285.818 362.862-526.237 362.862-95.836 0-186.07-23.951-265.049-66.189a566 566 0 0 1-21.531-12.131c-68.384-40.529-127.458-95.135-173.199-159.832a561 561 0 0 1-54.997-96.794 557 557 0 0 1-28.667-80.946c63.575 15.199 163.941 31.458 284.243 23.808a950 950 0 0 0 64.398-6.271c77.486-10.204 161.347-30.974 247.699-68.002 204.811-87.825 342.607-263.67 422.781-397.389 55.183 87.041 87.124 190.26 87.124 300.934"/><path style="fill:#a8d29f" d="M2152.279 1207.247c0 34.612-3.123 68.503-9.114 101.388-22.912-3.318-52.742-6.558-71.156-4.392-33.177 3.903-66.354 72.21-134.662 74.894-68.307 2.684-152.227-49.522-242.001-14.393-89.775 35.129-136.614-1.952-152.227-27.323s39.033-83.92 34.085-109.291c-4.957-25.371 6.899-111.243 83.012-111.243s107.629-41.6 121.001-56.597c38.337-42.995 68.307-3.903 99.533-37.081 31.226-33.177-23.42-91.726 0-130.759 23.419-39.032 138.575-48.518 138.575-48.518 82.945 98.041 132.954 224.838 132.954 363.315m-829.694-95.658c-27.323 38.476 9.758 118.493-13.661 159.477-23.42 40.984-68.307 33.178-101.485 52.694-28.806 16.939-40.35 86.837-132.74 111.359-30.894-69.653-48.049-146.762-48.049-227.872 0-41.569 4.508-82.075 13.056-121.068 18.853-19.038 44.683-36.135 79.909-45.405 111.243-29.274 114.006-111.15 158.909-112.712 109.332-3.803 71.384 145.041 44.061 183.527"/><path style="fill:#a8d29f" d="M1742.185 899.281s-68.308-13.662-105.388 9.758c-37.081 23.419-112.219 65.379-102.46 89.775 9.758 24.395 80.993 42.936 110.267 41.959 29.273-.976 9.346-58.85 151.25-41.959 35.97 4.282 36.488-74.772-53.669-99.533"/><path style="fill:#7db2ff" d="M1690.51 653.477c-34.608 60.579-97.947 137.303-204.903 165.023-129.055 33.435-238.833 9.277-294.427-8.887a564 564 0 0 1 68.188-58.251c92.726-67.271 206.777-106.937 330.107-106.937 14.313 0 28.502.536 42.538 1.596a566 566 0 0 1 58.497 7.456"/><path style="fill:#3b7fd1" d="M2115.707 1407.204c-80.626 212.122-285.818 362.862-526.237 362.862-95.836 0-186.07-23.951-265.049-66.189a566 566 0 0 1-21.531-12.131c145.272-10.596 507.763-60.227 812.817-284.542"/><path style="fill:#a8d29f" d="M1417.141 1568.969c-29.862 21.778-36.978 88.71-56.079 97.978-9.587 4.654-24.333 21.408-36.637 36.926-77.548-41.467-144.253-100.573-194.73-171.963 33.785-23.447 97.134-63.05 141.082-64.131 0 0 21.964-.258 38.244-44.875 6.415-17.588 13.293-33.188 21.253-44.927 12.254-18.062 27.061-26.989 46.708-19.945 8.423 3.017 13.716 7.732 17.69 13.674 11.368 16.929 12.079 43.814 44.093 69.732 43.248 35.01 8.237 105.751-21.624 127.531m427.178-756.255s-5.88-105.778-135.999-124.172c0 0-4.799 124.172 135.999 124.172"/><path style="fill:#a8d29f" d="M1838.439 811.987s104.347 19.718 146.582-104.724c0 0-120.437-33.627-146.582 104.724"/><path style="fill:#a8d29f" d="M1839.879 767.862s46.303-37.484 8.393-100.711c-.001-.001-58.092 39.32-8.393 100.711m-1.44 44.125s-15.641 67.855-12.92 91.768h12.92s-4.987-63.154 7.275-95.037z"/><path style="fill:#82b378" d="M1982.517 978.391s-2.782-50.053-64.354-58.757c-.001-.001-2.272 58.757 64.354 58.757"/><path style="fill:#82b378" d="M1979.734 978.047s49.376 9.331 69.361-49.555c.001 0-56.99-15.912-69.361 49.555"/><path style="fill:#82b378" d="M1980.415 957.167s21.909-17.737 3.971-47.656c0 0-27.489 18.607-3.971 47.656m-.681 20.88s-7.401 32.108-6.114 43.424h6.114s-2.36-29.884 3.442-44.971z"/><path style="fill:#a8d29f" d="M1768.177 858.533s-1.747-31.429-40.408-36.894c0 0-1.427 36.894 40.408 36.894"/><path style="fill:#a8d29f" d="M1766.43 858.317s31.003 5.858 43.552-31.116c-.001 0-35.785-9.991-43.552 31.116"/><path style="fill:#a8d29f" d="M1766.857 845.206s13.757-11.137 2.493-29.923c.001 0-17.259 11.683-2.493 29.923m-.427 13.111s-4.647 20.161-3.839 27.266h3.839s-1.482-18.765 2.161-28.238z"/><path style="fill:#ffb27d" d="M2075.324 786.161s-10.018-1.954-12.309 0-13.156 12.994-10.83 16.617 13.48-3 15.8-3.625c2.319-.625 8.803-3.158 8.803-3.158z"/><path style="fill:#35488b" d="m2181.781 1140.356 10.74 3.999s46.646-64.696 52.389-121.617c1.026-10.162.684-20.008-1.534-29.1 0 0 .456-2.604 1.254-7.207.368-2.148.824-4.734 1.341-7.698 1.518-8.689 3.604-20.578 5.989-34.116 5.488-31.152 12.599-70.976 18.123-100.252l-2.894-.93-31.31-10.1-6.472-20.552-23.313-6.137s-5.209 10.188-9.864 58.315a364 364 0 0 0-2.228 20.824c-1.814 23.041-1.946 51.625 2.219 84.303a441 441 0 0 0 4.095 25.874c1.228 6.505 1.411 15.371.894 25.549-2.349 46.531-19.429 118.845-19.429 118.845"/><path style="fill:#2c3a64" d="m2194.004 885.785 50.626 100.646c.368-2.148.824-4.734 1.341-7.698 1.518-8.689 3.604-20.578 5.989-34.116 5.488-31.152 12.599-70.976 18.123-100.252l-2.894-.93-31.31-10.1-6.472-20.552-23.313-6.137s-5.209 10.188-9.864 58.315a365 365 0 0 0-2.226 20.824"/><path style="fill:#35488b" d="m2216.275 819.562 1.172-10.05c19.635 5.215 72.096-14.573 72.096-14.573s19.021 16.72 16.523 56.799c-1.219 19.562-3.445 102.688-5.771 127.287a746 746 0 0 1-1.878 17.794q-.007.017-.006.024c-.092.773.178 1.503.57 2.178 3.424 5.811 6.259 11.861 8.584 18.051 22.825 60.824-3.516 135.729-3.516 135.729l-6.835-2.755s-14.99-83.36-27.169-120.188c-2.068-6.246-4.05-11.154-5.866-14.088-5.296-8.547-10.21-22.512-14.671-39.122-8.431-31.402-15.217-72.254-19.732-103.786-.622.031-13.501-53.3-13.501-53.3"/><path style="fill:#ffb27d" d="m2075.324 786.161 1.464 9.835s.649 0 1.788-.081c3.576-.244 12.272-.732 22.105-1.789 14.792-1.462 32.348-4.063 39.337-8.37 10.646-6.501 28.12-26.414 39.498-46.326.325-.487.569-.974.813-1.462 5.933-10.566 10.077-21.05 10.402-29.42.244-5.121-.325-9.509-1.382-13.329-1.382-5.039-3.657-9.021-6.014-12.028-.325-.488-.65-.975-1.138-1.382-3.901-4.632-7.722-6.582-7.722-6.582-1.95-.814-4.063.163-6.257 2.519v.081c-1.789 1.87-3.739 4.714-5.608 8.29-.081.081-.163.163-.163.244-.406.731-.813 1.544-1.3 2.438-.163.163-.244.407-.325.569a203 203 0 0 0-2.683 5.852c-9.996 21.781-20.643 54.778-29.502 64.611-3.819 4.227-21.293 12.517-35.19 18.693a661 661 0 0 1-18.123 7.637"/><path style="fill:#ffb27d" d="M2178.766 697.661c6.164 2.858 13.607 4.805 22.612 5.296 33.757 1.85 41.419-27.742 42.813-47.381-4.866-1.763-9.127-1.596-11.582-1.464-2.394.131-4.893.377-6.953.631-4.13-2.157-11.548-12.635-15.835-30.162l-1.455.675-24.357 11.451s2.587 7.926 4.498 15.51c1.49 5.936 2.561 11.67 1.666 13.274-1.921.781-3.069 1.271-3.069 1.271s0 .009-.008.026c-.246.624-5.542 14.118-8.33 30.873"/><path style="fill:#f99746" d="M2170.322 719.809c.254.675.535 1.333.842 2.008 8.549 18.413 24.374 94.684 24.374 94.684-2.253 13.713 103.058-2.692 103.33-15.177 3.708-13.24-13.161-34.51-22.675-45.181a30.4 30.4 0 0 1-3.19-4.296 29.9 29.9 0 0 1-4.314-12.591c-1.868-17.699-1.157-34.287-1.314-44.373l-.001-.001c-1.858-1.376-3.656-2.648-5.33-3.858-2.561-1.868-4.822-3.612-6.488-5.383-1.833-1.929-2.981-3.902-3.113-6.129a33 33 0 0 1 .132-5.138c.079-.815.185-1.631.308-2.446 1.314-8.566 4.892-16.334 4.892-16.334-9.057-3.665-25.163-1.482-25.163-1.482s.018.894.025 2.358c.053 5.883 0 20.99-1.885 23.849-2.358 3.56-45.505 19.158-47.784 14.327-2.245-4.752 3.901-27.014 4.13-27.855q.01-.026.008-.026c-14.449 5.673-19.613 10.434-19.613 10.434 8.704 5.645-3.905 24.75 2.829 42.61"/><path style="fill:#2c3a64" d="M2199.386 560.71c.053-1.463 1.186-17.233 25.206-18.057 0 0-11.812 1.408-13.853 6.601 0 0 8.043-6.416 14.593-4.352s10.396 13.539 10.436 17.313c.038 3.775-3.601 15.942-7.758 16.976-1.574.392-3.388.287-5.035.006a57 57 0 0 1 3.227 5.759c9.585 19.675-.3 38.904-8.414 36.78-5.204-1.362-6.677 7.518-6.677 7.518l-50.56-40.932s18.57-38.426 38.835-27.612"/><path style="fill:#ed985f" d="M2184.008 636.712s2.59 7.918 4.498 15.51c14.237-3.972 18.561-18.938 19.861-26.961z"/><path style="fill:#ffb27d" d="M2181.01 645.097s34.063-7.883 28.826-29.02c-5.235-21.136-4.365-36.389-26.334-32.25s-24.181 13.248-24.149 20.728 12.662 42.047 21.657 40.542"/><path style="fill:#2c3a64" d="M2157.438 592.555c3.662-7.661 7.972-7.253 10.667-5.894 16.005-14.808 31.704-2.71 31.704-2.71 6.042 14.597 19.138 20.562 19.138 20.562s-5.233 5.358-20.399 5.24c-4.633-.036-9.29-2.163-13.528-5.094 8.175 8.234 17.761 13.246 17.761 13.246-18.986-3.633-31.717-25.612-33.021-27.947-1.608 2.375-4.685 7.431-4.944 11.7-.352 5.802 1.645 17.068-1.678 17.495-.001-.001-11.193-15.109-5.7-26.598"/><path style="fill:#f99746" d="M2167.486 677.193s-8.201 14.307-9.429 17.988c0 0 10.636-.409 14.931 7.772 0 .001 1.03-23.831-5.502-25.76"/><path style="fill:#ed7d2b" d="M2223.895 790.873c20.771-.219 38.358-21.788 49.108-39.026a29.9 29.9 0 0 1-4.314-12.591c-1.868-17.699-1.157-34.287-1.314-44.373l-.001-.001c-1.858-1.376-3.656-2.648-5.33-3.858-2.561-1.868-4.822-3.612-6.488-5.383-17.011 28.749-59.825 105.529-31.661 105.232"/><path style="fill:#ffb27d" d="m2145.382 802.172 2.845 10.402s3.576-.65 9.266-1.707c1.706-.325 2.682-.568 2.682-.568 4.551-.893 9.997-2.113 15.93-3.414h.081c10.159-2.438 21.537-5.363 31.128-8.616 6.745-2.356 12.598-4.875 16.579-7.395a10 10 0 0 0 1.138-.813c9.509-6.907 20.807-27.225 29.584-49.007 1.219-3.007 2.356-6.014 3.494-8.94 4.064-10.892 7.314-21.619 9.266-30.884 1.219-5.526 2.031-10.566 2.194-14.711.081-1.462.162-2.843.081-4.145-.163-23.568-11.866-26.819-11.866-26.819-.243-.081-.487-.163-.813-.243-2.032-.325-4.146 1.056-6.339 3.738-2.764 3.332-5.689 8.777-8.697 15.36-4.632 10.484-9.508 24.057-14.06 37.549-2.52 7.395-4.958 14.792-7.396 21.618a463 463 0 0 1-4.063 11.623c-2.52 6.827-4.796 12.353-6.827 15.848-1.301 2.275-5.039 5.445-9.997 9.021-8.614 6.258-21.212 13.817-32.184 19.993-4.552 2.602-8.858 4.958-12.435 6.909a909 909 0 0 1-9.591 5.201"/><path style="fill:#f99746" d="M2241.963 674.444c15.646-4.313 27.715 7.903 27.715 7.903-.196-23.531-11.909-26.753-11.909-26.753-4.712-1.95-10.173 6.211-15.806 18.85"/><path style="fill:#233862" d="M2264.311 1158.386h54.091s1.296-8.243-1.529-14.497c-2.707-6.002-6.947-8.729-5.933-15.99-3.437 3.538-9.038 7.501-16.857 6.449-.959 1.554-6.186 9.867-9.386 12.166-3.536 2.54-19.298 1.634-20.386 11.872m-116.139 0h54.091s2.022-8.627-1.529-14.497c-3.144-5.194-1.938-8.154.39-12.451-2.45 1.003-5.62 1.916-9.11 1.716-2.694-.155-5.545-1.378-8.044-2.829-2.328 2.654-12.296 13.951-15.411 16.189-3.537 2.54-19.297 1.634-20.387 11.872"/><path style="fill:#c94c43" d="m2142.165 850.369-12.854-31.356c-1.675-4.09-6.164-6.214-10.33-5.065-4.257-8.006-10.121-14.512-16.77-19.078-7.006-4.823-14.87-7.481-22.634-7.447a32.1 32.1 0 0 0-12.08 2.391c-18.277 7.489-26.466 30.581-19.76 53.257l-1 .408s-3.124-.217-8.364-.217c-16.553 0-54.182 2.199-80.582 20.535 0 0-1.657 1.766-1.724 4.465-.033.892.116 1.891.558 2.958 0 0 42.378-27.441 81.573.758a194 194 0 0 0 7.015 4.807l3.516 8.581c5.831 14.229 22.234 21.093 36.463 15.262l35.896-14.712 7.481-3.065c12.671-5.19 18.794-19.811 13.596-32.482m-69.595-25.416-14.62 5.998c-3.974 1.625-6.064 5.948-5.04 10.005l-1.565.642c-5.948-20.66 1.308-41.495 17.627-48.184a27.5 27.5 0 0 1 7.031-1.858c7.515-.991 15.345 1.033 22.384 5.423 6.69 4.165 12.654 10.472 16.953 18.386l-2.157.883c-2.116-3.599-6.631-5.215-10.605-3.59l-14.628 5.998c-1.142-2.79-3.857-4.482-6.706-4.482-.9 0-1.825.175-2.708.533l-2.024.833c-3.674 1.507-5.449 5.739-3.942 9.413"/><path style="fill:#b23b38" d="M2045.213 876.786a195 195 0 0 1-7.015-4.807c-39.195-28.199-81.573-.758-81.573-.758-.441-1.066-.591-2.066-.558-2.958 5.931-3.907 28.165-16.903 55.715-12.463 32.281 5.208 38.121 9.698 33.431 20.986m83.356 6.065-7.481 3.065c11.213-6.123-2.674-31.989-10.796-49.067s-20.41-9.272-20.41-9.272c-2.815-5.723-8.848-5.415-8.848-5.415-.316-5.515-4.523-6.623-4.523-6.623l2.024-.833a7.2 7.2 0 0 1 2.708-.533c2.849 0 5.564 1.691 6.706 4.482l14.628-5.998c3.975-1.624 8.489-.008 10.605 3.59l2.157-.883c-4.299-7.914-10.263-14.221-16.953-18.386-7.039-4.39-14.869-6.414-22.384-5.423 1.175-.95 2.441-2.274 3.574-4.132 7.764-.034 15.628 2.624 22.634 7.447 6.648 4.565 12.513 11.071 16.77 19.078 4.166-1.15 8.655.975 10.33 5.065l12.854 31.356c5.199 12.671-.924 27.292-13.595 32.482"/><path style="fill:#ffb27d" d="M2111.735 812.25c5.201 2.193 12.516 9.833 24.22 5.202 8.371-3.252 17.229-5.527 21.537-6.584 1.706-.325 2.682-.568 2.682-.568l-4.633-13.492s-.162.082-.568.163c-3.007.649-18.286 3.901-25.438 2.276-8.046-1.869-21.537 7.802-21.537 7.802s-1.464 3.088 3.737 5.201"/><path style="fill:#fff" d="M1964.9 893.869c0-4.881-8.838-19.947-8.838-19.947s-8.838 15.066-8.838 19.947a8.838 8.838 0 0 0 17.676 0"/><path style="fill:#2c3a64" d="M2656.48 1722.585s10.238 9.488 8.24 16.23c-1.998 6.741-11.236 11.236-12.485 19.477-1.248 8.239-6.242 12.734-10.736 12.734h-21.429s-3.309-5.799 4.682-7.547c7.99-1.747 11.004-11.431 10.504-20.42-.499-8.989.749-20.975.749-20.975l16.979-3.995zm-125.598 25.87s2.497 19.976-1.997 22.224c-4.495 2.247-58.18 1.498-58.18 1.498s0-6.742 9.238-8.24c9.239-1.498 25.47-6.991 28.216-19.227 2.747-12.235 22.723 3.745 22.723 3.745"/><path style="fill:#35488b" d="M2482.319 1443.421s3.034 37.853 6.6 83.353c4.847 61.808 10.675 137.729 11.251 152.111.997 24.975 4.997 64.924 4.997 64.924s9.483 9.491 28.466 5.491c0 0 16.914-57.029 21.746-117.368l.225-2.982c4.494-61.426 11.483-190.771 11.483-190.771z"/><path style="fill:#2c3a64" d="M2482.319 1443.421s3.034 37.853 6.6 83.353l66.46 105.158.225-2.982c4.494-61.426 11.483-190.771 11.483-190.771z"/><path style="fill:#35488b" d="M2496.174 1447.916s54.684 137.085 90.641 201.507c35.957 64.423 47.193 82.4 47.193 82.4s20.6-8.239 22.473-13.858c0 0-13.75-124.37-37.829-154.688-13.606-17.132-29.589-68.543-30.339-86.521-.749-17.978-4.869-53.56-4.869-53.56z"/><path style="fill:#ffb27d" d="M2388.857 1428.943s-19.297 9.263-21.895 11.64-9.008 14.048-8.516 14.927c.492.881 1.452 1.152 3.202-.058s6.657-6.264 6.837-5.325c.181.938-13.1 16.566-10.751 19.873s15.663 2.33 23.266-3.077 15.191-25.282 16.335-26.368c9.695-9.203-8.478-11.612-8.478-11.612"/><path style="fill:#ed7d2b" d="M2387.988 1438.868c-5.357-4.661-5.498-5.841-5.498-5.841s34.218-59.17 37.185-64.861c2.966-5.69 21.305-94.555 21.305-94.555l63.399-18.383s-44.657 115.476-52.456 129.747c-12.889 23.583-54.961 58.292-54.961 58.292s-4.766-.739-8.974-4.399"/><path style="fill:#ffb27d" d="M2472.084 1232.104s-22.312 39.257-44.12 44.381c0 0 .908-13.185 6.218-22.207a234 234 0 0 1-5.736-7.029c-5.49-7.035-8.101-11.341-8.101-11.341l7.401-19.898 5.022-13.5c2.413 4.381 5.074 8.115 7.847 11.308 14.294 16.432 31.469 18.286 31.469 18.286"/><path style="fill:#ed975d" d="M2440.615 1213.817s2.663 19.672-12.17 33.432c-5.49-7.035-8.101-11.341-8.101-11.341l7.401-19.898c7.938-2.418 12.87-2.193 12.87-2.193"/><path style="fill:#ffb27d" d="M2414.465 1238.809s33.337-12.996 24.924-33.632-9.776-36.211-31.417-28.785c-21.64 7.425-22.539 16.975-21.406 24.546 1.132 7.57 19.01 40.72 27.899 37.871"/><path style="fill:#f99746" d="M2586.673 1433.557c-13.443 19.331-113.996 45.163-112.794 31.786.453-5.126 1.067-14.151-.014-26.394a176 176 0 0 0-1.068-9.117c-2.563-17.596-8.624-40.197-22.161-66.377a289 289 0 0 0-3.164-5.94c-5.58-10.133-10.319-20.84-13.938-31.319-6.969-20.132-9.785-39.396-6.261-51.985a.7.7 0 0 1 .053-.174c21.014-9.719 29.157-47.405 29.157-47.405s71.702 12.869 111.873 108.442c0 0 3.858 10.493 8.264 24.737 5.354 17.275 11.521 40.05 12.589 56.297.521 7.716-.12 13.964-2.536 17.449"/><path style="fill:#2b478b" d="M2444.174 1166.844c.233-.461.912-.954 2.567-1.46 0 0-1.551-.521-3.356-.125-.935-2.284-3.21-6.173-7.478-6.203 0 0 2.446.637 3.349 3.087-5.847-3.706-16.686-4.782-43.744 4.23-35.661 11.878-17.845 32.579-12.439 34.239 5.404 1.659 15.354-8.991 24.304-10.446 8.949-1.454 13.79 11.012 17.202 12.046s1.472-1.803 5.044-4.644 5.625 3.843 5.548 8.536c-.078 4.693 6.888 9.144 6.888 9.144l4.086-7.494c4.085-7.495 2.974-34.701-.929-39.598-.347-.432-.691-.872-1.042-1.312"/><path style="fill:#ed7d2b" d="M2589.209 1416.107c-86.521-26.099-100.285-129.255-100.285-129.255s49.262 37.647 87.696 72.958c5.354 17.276 11.522 40.05 12.589 56.297"/><path style="fill:#ffb27d" d="M2612.932 1419.494s-1.951 16.369-1.48 19.04 3.589 10.617 4.364 10.661 3.128.139 3.064-1.498-1.126-3.166-.441-2.896.882 6.449 4.001 6.289 12.307-3.623 11.933-10.799-10.157-20.319-10.391-21.512c-1.978-10.102-11.05.715-11.05.715"/><path style="fill:#f99746" d="M2618.114 1422.256c-6.864 3.146-9.413-.063-9.413-.063s-39.984-66.768-44.195-72.137c-4.212-5.369-78.023-37.044-78.023-37.044s-30.039-11.482-31.227-29.704c-1.031-15.835 7.958-25.563 17.803-31.431 11.731-6.992 26.575-5.963 37.361 2.414 24.213 18.804 72.212 56.628 79.937 66.884 17.192 22.828 36.248 94.385 36.248 94.385s-3.099 4.225-8.491 6.696"/><path style="fill:#4a75cb" d="m2446.24 1467.533-17.996 17.979-.249-.156-27.009-16.942s13.977 4.512 15.867 3.985c1.781-.497 21.306-7.206 25.908-6.647.281.034.508.097.671.188z"/><path style="fill:#e58638" d="M2427.432 1490.394c-.723-.156-2.864-.664-5.781-1.411-8.386-2.147-23.172-6.266-29.011-9.644-5.237-3.03-32.907-19.119-51.972-30.42 7.604-4.066 15.107-4.639 21.396-3.849 22.256 13.064 51.334 30.215 54.893 32.717 5.854 4.118 13.832 9.098 13.832 9.098s-.031.226-.115.566c-.27 1.106-1.1 3.403-3.242 2.943"/><path style="fill:#739af0" d="M2427.432 1490.394c-.723-.156-2.864-.664-5.781-1.411-8.386-2.147-23.172-6.266-29.011-9.644-5.237-3.03-32.907-19.119-51.972-30.42-9.572-5.674-16.976-10.142-18.275-11.142-3.889-2.99-11.378-10.465-9.537-11.875 1.844-1.41 5.434.009 6.785-.199l.058-.01c.315-.049.838-.131 1.558-.174 2.571-.153 7.669.202 14.93 4.394 0 0 11.52 6.728 25.879 15.157 22.256 13.064 51.334 30.215 54.893 32.717 5.854 4.118 13.832 9.098 13.832 9.098s-.031.226-.115.566c-.272 1.106-1.102 3.403-3.244 2.943"/><path style="fill:#4a75cb" d="M2427.432 1490.394c-.723-.155-2.864-.664-5.781-1.411.38-3.326-1.946-5.975-1.946-5.975l10.971 4.443c-.272 1.105-1.101 3.403-3.244 2.943"/><g style="opacity:.5"><path style="fill:#4a75cb" d="M2403.659 1476.259a.36.36 0 0 1-.127-.494l.194-.329a.36.36 0 0 1 .494-.127.36.36 0 0 1 .127.494l-.194.329a.36.36 0 0 1-.494.127m-1.603-.947a.363.363 0 0 1-.127-.495l.194-.329a.361.361 0 1 1 .621.368l-.193.329a.365.365 0 0 1-.495.127m-1.603-.949a.36.36 0 0 1-.128-.494l.195-.329a.361.361 0 0 1 .621.367l-.194.329a.36.36 0 0 1-.494.127m-1.603-.947a.36.36 0 0 1-.127-.494l.194-.329a.36.36 0 0 1 .495-.127c.17.101.228.323.127.494l-.195.329a.36.36 0 0 1-.494.127m-1.604-.947a.363.363 0 0 1-.127-.495l.194-.329a.362.362 0 0 1 .622.367l-.195.33a.363.363 0 0 1-.494.127m-1.603-.948a.36.36 0 0 1-.127-.494l.195-.329a.36.36 0 1 1 .621.367l-.194.329a.363.363 0 0 1-.495.127m-1.603-.948a.363.363 0 0 1-.127-.495l.194-.328a.36.36 0 0 1 .494-.128.36.36 0 0 1 .127.495l-.194.329a.36.36 0 0 1-.494.127m-1.603-.948a.36.36 0 0 1-.127-.494l.194-.329a.361.361 0 0 1 .622.367l-.194.329a.36.36 0 0 1-.495.127m-1.603-.947a.36.36 0 0 1-.128-.494l.195-.329a.36.36 0 0 1 .494-.128.363.363 0 0 1 .127.495l-.194.329a.36.36 0 0 1-.494.127m-18.892-11.166a.363.363 0 0 1-.127-.495l.194-.329a.362.362 0 0 1 .622.367l-.194.33a.364.364 0 0 1-.495.127m-1.602-.949a.36.36 0 0 1-.127-.494l.194-.329a.36.36 0 1 1 .621.367l-.194.329a.36.36 0 0 1-.494.127m-1.604-.947a.36.36 0 0 1-.127-.495l.194-.328a.36.36 0 0 1 .495-.128c.17.102.228.324.127.495l-.195.329a.36.36 0 0 1-.494.127m-1.603-.948a.36.36 0 0 1-.127-.494l.194-.329a.361.361 0 0 1 .622.367l-.195.329a.36.36 0 0 1-.494.127m-1.603-.947a.36.36 0 0 1-.128-.494l.195-.329a.36.36 0 1 1 .621.367l-.194.329a.36.36 0 0 1-.494.127m-1.603-.948a.363.363 0 0 1-.127-.495l.194-.329a.36.36 0 0 1 .494-.127.36.36 0 0 1 .127.495l-.194.329a.36.36 0 0 1-.494.127m-1.604-.948a.36.36 0 0 1-.127-.494l.194-.329a.361.361 0 0 1 .622.367l-.194.329a.36.36 0 0 1-.495.127m-1.602-.947a.36.36 0 0 1-.127-.494l.194-.329a.361.361 0 0 1 .621.367l-.194.329a.36.36 0 0 1-.494.127m-1.604-.948a.36.36 0 0 1-.127-.494l.194-.329a.36.36 0 0 1 .495-.127c.17.101.228.323.127.495l-.195.328a.36.36 0 0 1-.494.127m-6.204-3.667a.36.36 0 0 1-.127-.494l.194-.329a.36.36 0 0 1 .494-.127.36.36 0 0 1 .127.494l-.194.329a.36.36 0 0 1-.494.127m3.135 1.853a.363.363 0 0 1-.127-.495l.194-.329a.362.362 0 0 1 .622.368l-.195.329a.36.36 0 0 1-.494.127m-4.737-2.801a.36.36 0 0 1-.127-.494l.193-.329a.361.361 0 0 1 .622.367l-.194.329a.36.36 0 0 1-.494.127m-1.604-.948a.36.36 0 0 1-.127-.494l.194-.329a.36.36 0 0 1 .494-.127.363.363 0 0 1 .128.495l-.195.328a.36.36 0 0 1-.494.127m-1.603-.947a.36.36 0 0 1-.127-.494l.194-.329a.36.36 0 0 1 .495-.127c.17.101.228.323.127.494l-.195.329a.36.36 0 0 1-.494.127m-1.604-.947a.364.364 0 0 1-.127-.495l.195-.329a.36.36 0 0 1 .494-.127.363.363 0 0 1 .127.495l-.194.329a.363.363 0 0 1-.495.127m-1.603-.949a.36.36 0 0 1-.127-.494l.194-.329a.36.36 0 1 1 .621.367l-.194.329a.36.36 0 0 1-.494.127m-1.603-.947a.36.36 0 0 1-.127-.494l.194-.329a.361.361 0 0 1 .622.367l-.194.329a.363.363 0 0 1-.495.127m-1.604-.947a.36.36 0 0 1-.126-.495l.193-.329a.362.362 0 0 1 .622.368l-.194.328a.363.363 0 0 1-.495.128m-1.602-.948a.36.36 0 0 1-.127-.494l.194-.329a.362.362 0 0 1 .622.367l-.195.329a.36.36 0 0 1-.494.127m-1.571-.929a.36.36 0 0 1-.127-.494l.194-.329a.36.36 0 1 1 .621.367l-.193.329a.363.363 0 0 1-.495.127m-1.604-.947a.363.363 0 0 1-.127-.495l.194-.328a.36.36 0 0 1 .494-.128.36.36 0 0 1 .128.495l-.194.329a.363.363 0 0 1-.495.127m-1.602-.949a.36.36 0 0 1-.127-.494l.193-.329a.361.361 0 0 1 .622.367l-.194.329a.36.36 0 0 1-.494.127m-12.325-8.263a.554.554 0 0 1-.775.09l-2.513-1.99c.315-.049.838-.131 1.558-.174l1.642 1.299a.55.55 0 0 1 .088.775"/><path style="fill:#4a75cb" d="m2363.336 1454.315-.486-.288a.68.68 0 0 1-.24-.931l1.201-2.031a.68.68 0 0 1 .931-.239l.487.288a.68.68 0 0 1 .239.931l-1.2 2.031a.68.68 0 0 1-.932.239m3.185 1.883-.487-.288a.68.68 0 0 1-.239-.931l1.201-2.031a.68.68 0 0 1 .93-.239l.488.288c.321.19.43.609.239.931l-1.201 2.031a.68.68 0 0 1-.931.239m19.6 9.695a.36.36 0 0 1-.127-.495l.194-.329a.36.36 0 0 1 .495-.127c.17.102.228.324.127.494l-.195.33a.363.363 0 0 1-.494.127m-1.603-.949a.36.36 0 0 1-.127-.494l.194-.329a.361.361 0 0 1 .622.367l-.194.329a.36.36 0 0 1-.495.127m-1.603-.947a.363.363 0 0 1-.128-.495l.195-.328a.36.36 0 0 1 .494-.128.36.36 0 0 1 .127.495l-.194.329a.36.36 0 0 1-.494.127m-1.603-.948a.36.36 0 0 1-.127-.494l.194-.329a.36.36 0 0 1 .494-.127.36.36 0 0 1 .127.494l-.193.329a.363.363 0 0 1-.495.127m-1.604-.947a.36.36 0 0 1-.127-.494l.194-.329a.361.361 0 0 1 .622.367l-.194.329a.363.363 0 0 1-.495.127m-1.603-.948a.36.36 0 0 1-.127-.495l.194-.329a.361.361 0 0 1 .621.367l-.194.33a.363.363 0 0 1-.494.127m-1.603-.948a.36.36 0 0 1-.127-.494l.194-.329a.36.36 0 0 1 .495-.127c.17.101.228.323.127.494l-.195.329a.36.36 0 0 1-.494.127m-1.604-.947a.363.363 0 0 1-.127-.495l.194-.328a.361.361 0 0 1 .622.367l-.195.329a.36.36 0 0 1-.494.127m-1.602-.948a.36.36 0 0 1-.128-.494l.195-.329a.36.36 0 1 1 .621.367l-.194.329a.36.36 0 0 1-.494.127"/></g><path style="fill:#2b478b" d="M2363.427 1462.803c1.077.193 1.892-.964 1.347-1.914-.544-.948-1.377-2.048-2.558-2.729-2.428-1.402-3.146 3.041-2.356 3.541.464.293 2.132.844 3.567 1.102"/><path style="fill:#2b478b" d="m2363.188 1457.517-2.982 5.046s-2.967-.603-7.021-2.867c-2.482-1.388-3.978-2.672-4.765-3.459-.498-.499-.712-.798-.712-.798l3.127-5.29c.3-.035.674.018 1.102.139 3.551 1.007 10.841 6.756 10.841 6.756z"/><path style="fill:#4a75cb" d="m2351.936 1450.287-3.517 5.949c-.498-.499-.712-.798-.712-.798l3.127-5.29c.3-.035.674.018 1.102.139"/><path style="fill:#2b478b" d="M2419.834 1482.12c.146-.055 10.452 2.274 16.055 6.375l-7.085-.108-9.1-5.379s-.6-.618.13-.888"/><path style="fill:#4a75cb" d="M2398.8 1461.595s-6.376 4.389-7.484 4.983-2.886.432-2.886.432l-.011-.002-10.968-1.849s-11.69-6.828-14.207-8.377a9 9 0 0 1-.442-.283c-.736-.534-.982-1.008-.73-1.155.251-.147 19.479 7.501 21.602 8.361l.061.024c2.07.827 2.486.396 2.486.396l10.602-2.91c.152-.076.354-.089.569-.066.639.066 1.408.446 1.408.446"/><path style="fill:#4a75cb" d="M2397.391 1461.148c-2.9.891-10.915 3.339-11.613 3.428-.75.096-18.234-6.242-22.533-7.794a9 9 0 0 1-.442-.283c-.736-.534-.982-1.008-.73-1.155.251-.147 19.479 7.501 21.602 8.361s2.547.42 2.547.42l10.602-2.91c.15-.076.351-.089.567-.067"/><path style="fill:#4a75cb" d="M2398.8 1461.595s-6.376 4.389-7.484 4.983-2.886.432-2.886.432l-.011-.002a23.8 23.8 0 0 1-4.686-3.278c2.07.827 2.486.396 2.486.396l10.602-2.91c.152-.076.354-.089.569-.066.641.065 1.41.445 1.41.445"/><path style="fill:#739af0" d="m2428.489 1485.621-27.503-17.208s14.201 4.633 16.113 4.117c1.803-.485 21.545-7.077 26.215-6.483-5.305 2.144-17.746 7.449-18.606 10.392-.819 2.801 2.205 7.161 3.781 9.182"/><path style="fill:#f4a671" d="M2199.818 1478.299c.108-5.782 4.595-15.647-4.264-25.021-6.278-6.728-11.813-14.289-14.457-17.985-.959-1.5-11.678 7.316-11.446 7.673 1.762 2.613 9.851 15.924 11.024 23.347 1.283 8.365 15.616 17.522 15.616 17.522s3.496.217 3.527-5.536"/><path style="fill:#2b478b" d="M2267.127 1479.445c-14.096.736-23.73-21.138-29.669-21.426-.975-.043-2.825.227-5.203.576 5.847 9.592 10.314 20.868 12.79 33.261 8.452 42.196-9.358 81.347-39.775 87.433-29.583 5.92-60.202-21.622-69.622-61.968a112 112 0 0 1-.741-3.42c-2.464-12.307-2.69-24.35-1.023-35.394 0-.03.006-.067.012-.098-1.274.337-2.262.631-2.844.907-5.375 2.556-5.841 26.445-19.14 31.194-13.293 4.744-22.254-20.733-6.423-40.578 9.652-12.104 26.758-17.944 38.635-20.659 2.471-4.027 5.309-7.644 8.471-10.769.116-.116.232-.239.355-.355-8.728-4.719-15.365-13.141-17.467-23.633a34.6 34.6 0 0 1-.479-10.504c-.03-.007-.055-.019-.086-.025-6.006-1.813-10.836-6.79-12.153-13.366-1.899-9.5 4.26-18.748 13.766-20.647 6.876-1.379 13.624 1.471 17.546 6.754a34.7 34.7 0 0 1 16.494-3.549c1.661-6.27 6.741-11.369 13.526-12.729 9.505-1.899 18.747 4.26 20.653 13.766 1.244 6.232-.98 12.361-5.339 16.369a34.7 34.7 0 0 1 3.867 10.364c1.986 9.903-.478 19.66-6.006 27.211 4.965 1.71 9.782 4.272 14.348 7.563 11.914-2.28 31.392-4.131 45.818 3.8 22.253 12.221 23.785 39.181 9.689 39.922"/><path style="fill:#233862" d="M2135.647 1517.321a112 112 0 0 1-.741-3.42c-2.464-12.307-2.69-24.35-1.023-35.394 1.746-2.035 4.069-3.549 6.704-2.298 5.822 2.758 4.903 30.644 13.79 37.078 6.588 4.77-9.886 4.824-18.73 4.034m33.8-83.247c-3.34 1.238-10.468 3.451-16.854 4.432.116-.116.232-.239.355-.355-8.728-4.719-15.365-13.141-17.467-23.633a34.6 34.6 0 0 1-.479-10.504c-.03-.007-.055-.019-.086-.025.35-.141.797.074 1.379.896 2.219 3.144 14.2 28.578 33.15 25.667.002-.001 4.954 1.684.002 3.522m8.985-58.681s4.443-8.274 11.032-6.129 7.508 11.645 3.218 14.249c0 0-6.387-5.909-14.25-8.12m-30.95 4.836s-9.5-4.377-13.79.68 4.29 11.506 4.29 11.506 4.137-8.576 9.5-12.186"/><path style="fill:#efcdaf" d="M2071.188 1533.285c-6.707-6.031-1.189-20.272-3.745-23.084-.421-.46-1.38-1.173-2.613-2.089-1.686 6.978-4.756 14.095-9.23 20.816-15.229 22.899-40.958 32.564-57.461 21.585-16.053-10.679-17.466-36.958-3.511-59.457q.585-.943 1.208-1.881c4.441-6.679 9.776-12.228 15.516-16.469a.3.3 0 0 1 .05-.039c-.729-.423-1.308-.735-1.695-.874-3.585-1.271-14.58 9.323-22.739 5.468-8.153-3.856-.704-19.424 15.414-21.252 9.83-1.116 20.203 3.965 26.801 8.1 2.935-.706 5.851-1.061 8.691-1.047.105 0 .214-.003.321 0-1.816-6.074-1.017-12.879 2.771-18.573a22.1 22.1 0 0 1 4.525-4.967c-.011-.017-.017-.033-.027-.05a11.22 11.22 0 0 1 .538-11.531c3.43-5.154 10.39-6.557 15.547-3.124 3.732 2.48 5.497 6.816 4.887 10.976a22.2 22.2 0 0 1 9.06 5.842 11.21 11.21 0 0 1 11.863.35c5.157 3.432 6.556 10.39 3.127 15.549a11.22 11.22 0 0 1-9.805 4.994 22.2 22.2 0 0 1-2.93 6.433c-3.573 5.375-9.093 8.676-15.001 9.595 1.473 3.015 2.495 6.348 3.074 9.897 6.417 4.348 16.062 12.304 19.006 22.403 4.547 15.574-6.932 28.457-13.642 22.429"/><path style="fill:#e2b99a" d="M1994.628 1491.057q.585-.943 1.208-1.881c4.441-6.679 9.776-12.228 15.516-16.469 1.709-.132 3.442.231 4.07 1.987 1.388 3.876-11.617 16.072-10.504 22.994.828 5.131-6.647-2.281-10.29-6.631m52.868-22.389c-2.069-.948-6.292-3.166-9.623-5.605.105 0 .214-.003.321 0-1.816-6.074-1.017-12.879 2.771-18.573a22.1 22.1 0 0 1 4.525-4.967c-.011-.017-.017-.033-.027-.05.222.094.327.393.22 1.027-.416 2.424-6.48 19.336 3.404 26.574 0 0 1.478 2.998-1.591 1.594"/><path style="fill:#fff3e9" d="M2078.052 1446.185s5.745-1.735 7.757 2.209-1.862 8.655-4.979 7.896c0 0-.221-5.555-2.778-10.105m-16.181-11.786s-2.32-6.269-6.543-5.918c-4.223.35-3.254 7.14-3.254 7.14s5.742-2.01 9.797-1.222"/><path style="fill:#afcdfb" d="M1929.25 1529.818s-14.395-18.558-14.492-33.705.344-20.175 2.872-19.492c2.528.684 13.9 9.128 17.987 17.54s11.268 30.419 11.417 33.412c.15 2.992-17.784 2.245-17.784 2.245"/><path style="fill:#e57970" d="M1930.037 1523.895s-9.198-12.82-9.546-23.063c-.349-10.242-.173-13.633 1.394-13.123s8.715 6.436 11.386 12.2 7.502 20.779 7.65 22.806c.148 2.025-10.884 1.18-10.884 1.18"/><path style="fill:#afcdfb" d="M1952.477 1522.073s-6.901-25.136-4.175-31.979 16.864-2.273 18.467 2.551c1.604 4.825.616 25.197.616 25.197z"/><path style="fill:#e57970" d="M1954.313 1493.173s-.999 19.922 2.485 27.674l6.698-1.901s1.039-22.243.146-23.746-9.329-2.027-9.329-2.027"/><path style="fill:#afcdfb" d="M1947.911 1491.521s23.211 15.362 25.085 13.74-5.187-17.216-7.924-18.612-17.328-4.276-17.161 4.872"/><path transform="rotate(-180 2063.434 1641.836)" style="fill:#d3671e" d="M1905.219 1511.377h316.431v260.918h-316.431z"/><path style="fill:#f99746" d="M2063.433 1511.378h316.431v260.919h-316.431z"/><path style="opacity:.4;fill:#d86713" d="M2379.863 1511.378v82.852l-316.43 18.953v-101.805z"/><path style="fill:#f99746" d="m2063.435 1511.377 62.611 68.651h312.245l-58.426-68.651z"/><path style="fill:#f1a34f" d="M1905.403 1706.125h50.142l-4.417-14.109 4.417-10.081h-50.142z"/><path style="opacity:.4;fill:#d86713" d="M2379.933 1750.873h-50.142l4.417-14.109-4.417-10.081h50.142z"/><path style="fill:#c95c12" d="m2063.435 1540.874-66.7 66.7h-91.332v-96.197h158.032z"/><path style="fill:#f99746" d="m1905.219 1511.377-71.143 68.651h158.316l71.043-68.651z"/><path style="fill:#caddff" d="m1827.09 1703.562-5.763 1.118c-6.837 1.329-13.516-3.18-14.841-10.017l-8.476-43.628c-1.209-6.234 2.421-12.325 8.242-14.364a3.5 3.5 0 0 1-.126-.463l-.499-2.564a3.304 3.304 0 0 1 2.61-3.863l2.564-.498a3.305 3.305 0 0 1 3.867 2.604l.494 2.569q.039.177.05.359l.004.063c6.315-.494 12.182 3.849 13.417 10.205l8.472 43.632c1.331 6.833-3.179 13.516-10.015 14.847"/><path transform="rotate(-10.987 1816.968 1665.717)" style="fill:#2b478b" d="M1801.12 1650.266h31.195v30.544h-31.195z"/><path style="fill:#4a75cb" d="m1815.214 1634.815-8.961 1.855a3.5 3.5 0 0 1-.126-.463l-.499-2.564a3.304 3.304 0 0 1 2.61-3.863l2.564-.498a3.305 3.305 0 0 1 3.867 2.604l.494 2.569c.028.118.042.239.051.36"/><path style="fill:#f9ddbf" d="M1982.354 1623.805s-3.794 5.341-7.272 5.415-8.77-2.476-8.77-2.476-3.193-7.117-1.027-9.902c0 0 2.172-.953 4.443.73.391.29.786.655 1.176 1.126.551.662 1.17 1.04 1.826 1.238 2.482.755 5.428-1.021 6.529.692a11.7 11.7 0 0 0 1.919 2.271c.681.608 1.176.906 1.176.906m-49.46 38.527s13.409-32.493 37.547-33.112c0 0 22.281 2.476 23.519 33.112z"/><path style="fill:#f1a34f" d="M1963.828 1630.212s9.675 2.151 12.66.888c0 0 .451-4.046-3.623-3.479-2.789.388-4.605-.952-5.674-1.496-1.511-.77-3.764 2.395-3.363 4.087"/><path style="fill:#e5c1a1" d="M1972.248 1624.113c-.619.465-2.52-6.541-2.52-6.541.391.29.786.655 1.176 1.126.551.662 1.17 1.04 1.826 1.238.006.205.118 3.726-.482 4.177m8.931-1.213c-.136.081-4.61 2.761-5.218 2.761-.618 0 3.299-5.032 3.299-5.032a11.6 11.6 0 0 0 1.919 2.271m-35.186 30.354c-.247-.212 9.49-14.338 12.173-14.44 2.682-.104 8.707 3.094 13.069 3.507 4.363.412 8.592-.825 9.417 1.754.826 2.578 3.095 11.721 1.702 13.184-1.392 1.463-31.006.57-36.361-4.005"/><path style="fill:#e57970" d="M1832.982 1675.223a4.56 4.56 0 0 1-1.535 1.733 4.7 4.7 0 0 1-1.143.554 4.6 4.6 0 0 1-3.512-.268l-60.129-30.546a4.616 4.616 0 0 1-2.02-6.19 4.6 4.6 0 0 1 2.678-2.287 4.6 4.6 0 0 1 3.512.268l60.129 30.546a4.614 4.614 0 0 1 2.02 6.19"/><path style="fill:#b64c41" d="m1786.603 1656.825-3.79-12.254-9.684-4.919 5.837 13.293zm14.684 7.46-7.637-3.88-5.837-13.293 9.684 4.919zm14.673 7.454-7.641-3.882-5.837-13.293 9.688 4.921zm15.487 5.217a4.7 4.7 0 0 1-1.143.554 4.6 4.6 0 0 1-3.512-.268l-3.528-1.793-5.837-13.293 9.683 4.919zm-66.802-36.45s-1.214-6.536-6.525-8.479c0 0 .625.755-1.93 1.568s-1.813 2.576-2.722 3.374c0 .001 3.684 4.895 11.177 3.537"/><path style="fill:#4a75cb" d="m1763.614 1641.369-.141-.072a.83.83 0 0 1-.364-1.116l.748-1.473a.83.83 0 0 1 1.116-.364l.142.071c.407.207.57.709.364 1.116l-.749 1.473a.834.834 0 0 1-1.116.365"/><path style="fill:#b64c41" d="M1832.732 1675.095s5.994-2.874 10.694.27c0 0-.978-.06-.128 2.483s-1.012 2.983-1.119 4.188c.001-.001-6.126-.09-9.447-6.941"/><path style="fill:#4a75cb" d="m1832.643 1676.436.142.071a.83.83 0 0 0 1.116-.364l.748-1.473a.83.83 0 0 0-.364-1.116l-.141-.071a.834.834 0 0 0-1.117.363l-.748 1.474a.83.83 0 0 0 .364 1.116"/><path style="fill:#f1a34f" d="M1910.815 1675.695a4.58 4.58 0 0 1-3.492.458 4.6 4.6 0 0 1-2.799-2.138l-33.775-58.376a4.615 4.615 0 0 1 1.68-6.291c1.096-.634 2.35-.763 3.491-.458s2.165 1.041 2.799 2.138l33.776 58.376a4.616 4.616 0 0 1-1.68 6.291"/><path style="fill:#f9ddbf" d="m1881.949 1634.997 3.498-12.341-5.439-9.4-2.349 14.327zm8.248 14.257-4.289-7.414 2.349-14.327 5.439 9.4zm8.242 14.245-4.291-7.418 2.348-14.327 5.442 9.404zm10.144 12.813a4.7 4.7 0 0 1-1.26-.158 4.6 4.6 0 0 1-2.799-2.138l-1.981-3.426 2.349-14.327 5.439 9.401z"/><path style="fill:#f1a34f" d="M1872.429 1609.349s2.543-6.142-.852-10.664c0 0 .112.973-2.473.263-2.586-.709-2.924 1.173-4.121 1.347 0-.001.423 6.111 7.446 9.054"/><path style="fill:#d3671e" d="m1871.095 1609.511-.079-.137a.83.83 0 0 1 .303-1.135l1.43-.827a.83.83 0 0 1 1.135.303l.08.137a.834.834 0 0 1-.304 1.135l-1.43.827a.834.834 0 0 1-1.135-.303"/><path style="fill:#f1a34f" d="M1910.675 1675.451s6.593.856 8.821 6.054c0 0-.787-.583-1.461 2.013-.673 2.595-2.474 1.95-3.221 2.901 0 0-5.087-3.413-4.139-10.968"/><path style="fill:#d3671e" d="m1909.869 1676.526.08.138a.833.833 0 0 0 1.134.303l1.431-.828a.833.833 0 0 0 .303-1.134l-.08-.138a.833.833 0 0 0-1.134-.303l-1.431.828a.833.833 0 0 0-.303 1.134"/><path style="fill:#4a75cb" d="M1801.511 1692.071a4.58 4.58 0 0 1-2.243-2.714 4.58 4.58 0 0 1 .324-3.507l31.51-59.629a4.616 4.616 0 0 1 6.222-1.92c1.12.592 1.896 1.586 2.244 2.715s.268 2.387-.324 3.507l-31.511 59.629a4.616 4.616 0 0 1-6.222 1.919"/><path style="fill:#699ff0" d="m1820.653 1645.993 12.313-3.593 5.075-9.602-13.386 5.622zm-7.696 14.564 4.003-7.575 13.386-5.622-5.075 9.603zm-7.689 14.55 4.004-7.578 13.386-5.622-5.077 9.607zm-5.466 15.401a4.7 4.7 0 0 1-.534-1.151 4.58 4.58 0 0 1 .324-3.507l1.849-3.499 13.386-5.622-5.075 9.603zm37.521-66.207s6.556-1.108 8.583-6.388c0 0-.765.612-1.537-1.955s-2.547-1.854-3.329-2.775c0 0-4.954 3.605-3.717 11.118"/><path style="fill:#4a75cb" d="m1836.479 1623.258.073-.141a.833.833 0 0 1 1.122-.346l1.461.771c.403.214.56.719.346 1.122l-.074.14a.83.83 0 0 1-1.121.347l-1.461-.772a.83.83 0 0 1-.346-1.121m-34.836 68.564s2.777 6.04-.441 10.689c0 0 .075-.977-2.481-.168s-2.967-1.06-4.169-1.188c-.001.001.186-6.123 7.091-9.333"/><path style="fill:#4a75cb" d="m1800.304 1691.712-.074.14a.833.833 0 0 0 .347 1.122l1.46.771a.83.83 0 0 0 1.122-.346l.074-.14a.83.83 0 0 0-.346-1.122l-1.461-.772a.833.833 0 0 0-1.122.347"/><path style="fill:#b64c41" d="M1864.466 1637.871s2.754 3.876 5.278 3.93 6.364-1.796 6.364-1.796 2.318-5.166.746-7.187c0 0-1.577-.692-3.226.529-.283.211-.57.477-.854.817a2.7 2.7 0 0 1-1.324.898c-1.802.548-3.939-.741-4.739.503a8.4 8.4 0 0 1-1.393 1.648c-.493.442-.852.658-.852.658m35.896 27.961s-9.731-23.582-27.25-24.031c0 0-16.17 1.797-17.068 24.031z"/><path style="fill:#963333" d="M1877.911 1642.521s-7.021 1.562-9.188.644c0 0-.327-2.936 2.63-2.524 2.023.282 3.342-.69 4.117-1.085 1.098-.559 2.733 1.737 2.441 2.965m-6.11-4.425c.449.337 1.828-4.748 1.828-4.748-.283.211-.57.477-.854.817a2.7 2.7 0 0 1-1.324.898c-.005.149-.086 2.705.35 3.033m-6.482-.881c.099.059 3.347 2.004 3.787 2.004.448 0-2.395-3.652-2.395-3.652a8.4 8.4 0 0 1-1.392 1.648m25.535 22.029c.181-.154-6.887-10.406-8.833-10.48-1.947-.075-6.32 2.245-9.486 2.545s-6.235-.599-6.834 1.272c-.599 1.872-2.246 8.507-1.235 9.569s22.503.413 26.388-2.906"/><path style="fill:#caddff" d="m1934.241 1639.131.002-.001c-2.899.036-4.351-4.341-4.351-4.341l-28.224 8.544c1.266 3.093-.78 5.477-.78 5.477s-4.882 3.261-3.364 8.274l6.246 20.632c1.106 3.655 5.003 5.741 8.659 4.635l29.771-9.013c3.656-1.106 5.741-5.003 4.635-8.658l-6.246-20.633c-.874-2.886-3.487-4.786-6.348-4.916"/><path style="fill:#963333" d="m1898.849 1642.419 1.695 5.6c.612 2.024 8.342 1.476 17.265-1.226s15.658-6.531 15.046-8.556l-1.695-5.6z"/><path style="fill:#b64c41" d="M1931.159 1632.638c.613 2.023-6.124 5.854-15.046 8.556s-16.652 3.249-17.266 1.226c-.612-2.024 6.124-5.855 15.047-8.556 8.922-2.702 16.653-3.251 17.265-1.226"/><path style="fill:#b7d2f9" d="M1858.519 1650.338c-2.023-.98-1.513-4.522-1.513-4.522l-22.561-3.859c-.194 2.587-2.441 3.531-2.441 3.531s-4.521.571-5.206 4.578l-2.821 16.492c-.5 2.922 1.481 5.722 4.404 6.222l23.797 4.07c2.922.5 5.722-1.481 6.222-4.403l2.821-16.492c.394-2.309-.762-4.534-2.702-5.617"/><path style="fill:#c95c12" d="m1832.805 1640.343-.766 4.476c-.277 1.618 5.28 3.919 12.412 5.139s13.138.897 13.415-.721l.766-4.476z"/><path style="fill:#f1a34f" d="M1858.632 1644.761c-.277 1.618-6.283 1.94-13.415.721-7.132-1.221-12.689-3.521-12.412-5.139s6.282-1.94 13.414-.721c7.133 1.22 12.689 3.521 12.413 5.139"/><path transform="rotate(-180 1856.516 1714.663)" style="fill:#d3671e" d="M1786.622 1657.031h139.787v115.264h-139.787z"/><path transform="rotate(-180 1926.41 1714.663)" style="fill:#f99746" d="M1856.516 1657.031h139.787v115.264h-139.787z"/><path style="fill:#ed7d2b" d="M1856.516 1657.031h140.147v40.153l-140.147 17.479z"/><path style="fill:#f99746" d="m1856.516 1657.031 27.659 30.328h137.938l-25.81-30.328zm-69.813 86.032h22.151l-1.952-6.232 1.952-4.454h-22.151z"/><path style="fill:#c95c12" d="m1856.516 1670.063-29.466 29.464h-40.347v-42.496h69.813z"/><path style="fill:#f99746" d="m1786.622 1657.031-31.429 30.328h69.938l31.385-30.328z"/><path style="fill:#f77d48" d="M1615.072 1130.164c-141.026-26.08-224.04 140.705-238.305 161.355-14.264-20.65-97.279-187.436-238.305-161.355-155.54 28.765-222.427 175.475-163.661 318.68 47.88 116.676 357.249 303.54 399.757 325.773v2.294s.767-.394 2.208-1.143c1.442.749 2.209 1.143 2.209 1.143v-2.294c42.508-22.233 346.979-211.229 399.757-325.773 58.911-127.853-8.12-289.915-163.66-318.68"/><path style="fill:#ed985f" d="M1180.977 1461.499c-2.535 6.197-19.342 4.507-32.299-4.319-12.863-8.731-31.361-16.807-41.876-24.13-7.887-5.352-16.056-25.633-22.253-38.12-1.596-3.193-3.099-5.916-4.319-7.7-7.605-2.253-7.136-10.14-14.178-12.676-8.357-2.91-5.821-7.604-5.821-7.604s6.009-2.535 13.333-1.784c2.629.376 7.887 7.98 10.985 12.769 2.911 2.16 6.385 5.071 10.141 8.451 10.141 9.015 21.596 20.657 26.196 26.383 5.352 6.668 39.999 13.99 49.388 21.69 16.712 13.707 10.703 27.04 10.703 27.04m-59.991 95.372 36.329 201.67 12.583.827s9.89-87.826 1.417-118.144c-8.472-30.316 14.618-68.658 8.131-94.955s-58.46 10.602-58.46 10.602"/><path style="fill:#ffb27d" d="m1162.781 1445.459-31.721-5.16c-1.51-5.153-1.942-12.234-1.964-18.494-.021-7.776.596-14.283.596-14.283l25.597-2.467 11.37-1.099c-6.246 11.908-3.878 41.503-3.878 41.503"/><path style="fill:#ed985f" d="M1163.724 1410.208s-16.949 14.454-34.628 11.597c-.021-7.776.596-14.283.596-14.283l25.597-2.467z"/><path style="fill:#ffb27d" d="M1145.174 1606.548c-6.422 17.863-12.192 36.06-9.3 50.98.851 4.409 1.382 8.975 1.638 13.625.234 4.267.248 8.604.071 12.958-1.411 35.159-14.801 70.999-16.871 76.344l-.269.688-11.136-1.184-4.792-211.609s50.853-20.542 53.688 6.395c1.467 13.928-6.153 32.678-13.029 51.803"/><path style="fill:#35488b" d="M1175.569 1618.541s-3.246.468-8.074.993c-9.059.992-23.662 2.169-32.685.779-4.303-.659-6.713-7.762-7.847-17.304-2.517-21.145 1.24-54.241 4.657-55.709 4.962-2.126 48.89-.326 48.89-.326s9.591 23.719-4.941 71.567"/><path style="fill:#2c3a64" d="M1168.205 1619.534c-9.059.992-23.662 2.169-32.686.779-4.303-.659-6.713-7.762-7.847-17.304l24.08-39.405 18.076-7.088c0 .001 7.258 30.212-1.623 63.018"/><path style="fill:#35488b" d="M1104.329 1547.655s-9.452 41.823-8.034 74.903c0 0 21.502 4.253 43.477 0 0 0 36.388-52.929 33.316-69.941s-59.544-10.396-68.759-4.962"/><path style="fill:#ffb27d" d="M1121.61 1402.427s29.572 23.446 43.89 4.805c14.317-18.641 27.776-28.169 9.5-43.927s-27.451-11.495-33.744-6.436c-6.291 5.06-26.969 38.979-19.646 45.558"/><path style="fill:#2c3a64" d="M1195.997 1370.312s-1.642-.534-3.527.033l-.003-.033c2.386-4.415.597-11.259.597-11.259.597 3.753-2.784 8.168-2.784 8.168-.199-13.908-34.601-22.518-37.783-23.401s-2.784-6.181-2.784-6.181c-6.562 1.324-13.522 9.713-13.323 17.882.199 8.168 6.96 23.843 11.335 24.063 4.375.221 2.386 3.753-.597 8.609-2.983 4.857.892 18.048 6.261 22.685 4.325 3.734 6.597.612 9.132-.765a7.8 7.8 0 0 1 1.997-.764c10.033-2.238 20.471-12.151 25.662-24.799 2.063-5.023 2.351-10.063 2.344-12.582.856-.499 2.508-1.418 3.473-1.656"/><path style="fill:#739cf3" d="M1171.604 1773.281h-7.022c-2.353-.328-4.09-.93-6.503-1.209-3.664-.425-5.351.903-5.686 1.209q-.066.06-.065.062h-29.834c-.751-.947-.03-3.143.676-4.758.476-1.099 1.512-1.931 2.793-2.258 3.164-.811 9.401-1.532 15.112-6.104 3.213-2.567 15.518-9.441 15.518-9.441l.065-.014c.271.005 1.557.354 7.153 4.533 2.894 2.155 7.824-3.046 7.824-3.046s.926.678 1.617 1.938c.556.996.961 2.364.641 4.051-.445 2.377.991 6.795 2.138 9.782.696 1.811 1.281 3.095 1.281 3.095s.334 1.491-5.708 2.16"/><path style="fill:#415da5" d="M1173.25 1754.193c-1.677 1.045-5.216 3.104-7.563 3.373-3.168.368-9.095-6.785-9.095-6.785l.065-.014c.271.005 1.557.354 7.153 4.533 2.894 2.155 7.824-3.046 7.824-3.046s.926.679 1.616 1.939m-1.646 19.088h-7.022c-2.353-.328-4.09-.93-6.503-1.209-3.664-.425-5.351.903-5.686 1.209q-.066.06-.065.062h-29.834c-.751-.947-.03-3.143.676-4.758.906-.713 1.161 3.094 1.662 3.7s24.337.221 25.714-.664 5.506-2.435 11.263-1.217c5.011 1.058 12.394-1.656 14.221-2.378.696 1.811 1.281 3.095 1.281 3.095s.335 1.491-5.707 2.16"/><path style="fill:#739cf3" d="M1123.606 1773.281h-7.023c-2.353-.328-4.09-.93-6.502-1.209-3.664-.425-5.351.903-5.687 1.209q-.066.06-.065.062h-29.834c-.75-.947-.03-3.143.676-4.758.476-1.099 1.512-1.931 2.793-2.258 3.164-.811 9.4-1.532 15.112-6.104 3.214-2.567 15.518-9.441 15.518-9.441l.065-.014c.27.005 1.557.354 7.153 4.533 2.893 2.155 7.824-3.046 7.824-3.046s.926.678 1.617 1.938c.555.996.961 2.364.641 4.051-.445 2.377.991 6.795 2.137 9.782.696 1.811 1.282 3.095 1.282 3.095s.334 1.491-5.707 2.16"/><path style="fill:#415da5" d="M1125.253 1754.193c-1.677 1.045-5.216 3.104-7.564 3.373-3.168.368-9.095-6.785-9.095-6.785l.065-.014c.27.005 1.557.354 7.153 4.533 2.893 2.155 7.824-3.046 7.824-3.046s.926.679 1.617 1.939m-1.647 19.088h-7.023c-2.353-.328-4.09-.93-6.502-1.209-3.664-.425-5.351.903-5.687 1.209q-.066.06-.065.062h-29.834c-.75-.947-.03-3.143.676-4.758.906-.713 1.162 3.094 1.662 3.7s24.337.221 25.714-.664 5.506-2.435 11.263-1.217c5.011 1.058 12.394-1.656 14.221-2.378.696 1.811 1.282 3.095 1.282 3.095s.334 1.491-5.707 2.16"/><path style="fill:#fff" d="M1186.668 1556.517s-28.436 8.276-63.028 2.387c-6.323-1.078-17.42-4.229-25.272-8.646l10.427-82.915 2.148-38.541s11.938-3.657 17.722-4.012c0 0 24.222 2.893 33.614.411 0 0 13.461 2.779 17.317 15.445 8.025 26.357 10.711 59.067 7.072 115.871"/><path style="fill:#ffb27d" d="M1130.556 1461.499c-2.629 6.197-19.436 4.507-32.299-4.319-1.127-.75-2.253-1.502-3.474-2.254-12.582-7.885-28.919-15.209-38.497-21.876-9.014-6.198-18.497-32.019-24.881-43.097-.563-1.033-1.127-1.972-1.69-2.724-7.512-2.348-7.042-10.14-14.084-12.676-8.356-2.91-5.915-7.604-5.915-7.604s6.103-2.535 13.333-1.784c2.723.376 7.98 7.98 10.985 12.769 2.066 1.597 4.601 3.568 7.23 5.729 10.704 9.296 24.131 22.816 29.107 29.105 3.85 4.789 22.816 9.954 36.712 15.212 5.446 2.16 10.141 4.319 12.77 6.479 16.712 13.707 10.703 27.04 10.703 27.04"/><path style="fill:#fff" d="M1130.556 1461.499c-2.826 12.859-35.629-2.746-36.85-3.498 1.786-19.335 1.55-29.935 6.993-33.293 10.673-1.671 26.758-.854 29.959.3 26.188 9.438-.102 36.491-.102 36.491"/><path style="fill:#ffa412" d="M1094.688 1386.385c-1.126 3.098-3.943 6.667-10.141 8.545-1.596-3.193-3.099-5.916-4.319-7.7-7.605-2.253-7.136-10.14-14.178-12.676-8.357-2.91-5.821-7.604-5.821-7.604s6.009-2.535 13.333-1.784c2.629.376 7.887 7.98 10.985 12.769 2.911 2.159 6.386 5.07 10.141 8.45"/><path style="fill:#fff" d="M1077.269 1378.626c-2.842 2.198-10.433 9.885-10.433 9.885l-17.5-22.623s8.947-5.651 11.936-7.941c2.714-2.078 10.688-9.559 10.688-9.559l17.5 22.623c-.001 0-9.348 5.416-12.191 7.615"/><path style="fill:#fff" d="M1077.269 1378.626c-2.842 2.198-10.433 9.885-10.433 9.885l-12.327-15.936s8.947-5.651 11.936-7.94c2.713-2.079 10.687-9.56 10.687-9.56l12.327 15.936s-9.347 5.416-12.19 7.615"/><path transform="rotate(52.28 1081.617 1358.918)" style="fill:#fff" d="M1067.313 1357.855h28.602v2.288h-28.602z"/><path transform="rotate(52.28 1057.185 1377.819)" style="fill:#fff" d="M1042.88 1376.755h28.602v2.288h-28.602z"/><path style="opacity:.5;fill:#ebf3fa" d="m1043.707 1368.883-23.341 28.601c-2.764 3.387-7.797 3.896-11.184 1.133l-11.723-9.567c-3.58-2.922-4.119-8.243-1.197-11.822l23.057-28.252c3.924-4.809 10.233-6.59 15.879-5.037.741.204 1.55-.075 1.951-.735q.176-.283.392-.551l1.233-1.511 8.711 7.109-1.233 1.511q-.244.298-.52.546c-.519.469-.684 1.221-.36 1.839 2.748 5.249 2.3 11.877-1.665 16.736"/><path style="opacity:.3;fill:#ebf3fa" d="m1043.707 1368.883-23.341 28.601c-2.764 3.387-7.797 3.896-11.184 1.133l-7.368-6.013c-3.58-2.922-4.118-8.243-1.197-11.822l23.057-28.252c3.924-4.809 10.233-6.59 15.879-5.037.272.074.555.083.823.033a1.7 1.7 0 0 0 1.128-.769q.176-.284.392-.551l1.233-1.511 4.355 3.555-1.233 1.511q-.244.298-.52.546c-.519.469-.684 1.221-.36 1.839 2.749 5.25 2.301 11.878-1.664 16.737"/><path style="opacity:.3;fill:#ebf3fa" d="m1038.876 1364.94-23.341 28.601c-2.764 3.387-7.797 3.896-11.184 1.133l-2.537-2.07c-3.58-2.922-4.118-8.243-1.197-11.822l23.057-28.252c3.924-4.809 10.233-6.59 15.879-5.037.272.074.555.083.823.033-.003.229.05.463.165.678 2.749 5.25 2.301 11.878-1.665 16.736"/><path transform="rotate(39.217 1022.605 1369.703)" style="fill:#ebf3fa" d="M1006.921 1358.938h31.483v21.67h-31.483z"/><path transform="rotate(39.107 1044.095 1343.319)" style="fill:#ebf3fa" d="M1037.906 1341.951h12.501v2.959h-12.501z"/><path style="fill:#ffa412" d="M1041.263 1383.662c-1.69 2.534-4.695 4.788-9.858 6.291-.563-1.033-1.127-1.972-1.69-2.724-7.512-2.348-7.042-10.14-14.084-12.676-8.356-2.91-5.915-7.604-5.915-7.604s6.103-2.535 13.333-1.784c2.723.376 7.98 7.98 10.985 12.769 2.065 1.596 4.6 3.568 7.229 5.728"/><path style="fill:#ffb27d" d="m918.827 1343.37-1.691 11.361s-.75 0-2.065-.094c-4.131-.282-14.178-.845-25.539-2.066-17.089-1.689-37.37-4.694-45.445-9.67-12.3-7.511-32.487-30.516-45.632-53.521-.376-.563-.657-1.125-.94-1.689-6.854-12.206-11.643-24.318-12.018-33.989-.282-5.915.375-10.985 1.596-15.398 1.596-5.821 4.226-10.422 6.948-13.896.376-.564.751-1.127 1.314-1.597 4.507-5.352 8.92-7.605 8.92-7.605 2.253-.939 4.695.188 7.229 2.91v.095c2.066 2.16 4.319 5.445 6.479 9.577.094.094.188.188.188.281.469.845.939 1.784 1.503 2.816.187.188.281.47.375.658a237 237 0 0 1 3.099 6.76c11.549 25.163 23.849 63.284 34.083 74.645 4.413 4.883 24.6 14.46 40.655 21.597a764 764 0 0 0 20.941 8.825"/><path style="fill:#2c3a64" d="M766.089 1092.901s-3.491-18.156-23.063-19.138c-19.572-.981-42.636 14.617-40.673 35.034s-20.12 28.76-24.045 45.936 14.571 17.217 18.544 30.425c3.973 13.207-7.034 25.148 16.85 26.241s51.32-3.039 56.863-16.427 8.631-67.568 8.631-67.568z"/><path style="fill:#ffb27d" d="M799.983 1278.245c-1.134 6.294-3.005 11.682-5.26 16.785-1.878 4.274-4.019 8.337-6.224 12.568-6.458 12.44-20.791 18.146-22.18 42.475-.475 8.379.582 18.969 4.026 32.799 16.963 68.171-117.04 10.095-109.462-7.563 15.063-35.088 35.443-54.937 36.13-84.276.007-.077-.007-.148-.014-.227-.071-1.425-.12-5.238-.149-10.278-.071-12.327-.028-31.984.092-41.929 0-.234.007-.461.007-.681.057-4.261.042-7.344-.092-8.159 10.995-39.993 32.82-39.349 40.263-38.944 2.757.148 5.649.439 8.024.729 4.777-2.487 13.341-14.595 18.303-34.847l1.673.786 28.142 13.228s-2.992 9.151-5.196 17.92c-1.722 6.854-2.956 13.476-1.921 15.333 2.219.899 3.544 1.467 3.544 1.467s0 .007.007.028c.463 1.155 16.058 40.866 10.287 72.786"/><path style="fill:#35488b" d="m795.836 1754.311-10.295 5.368s-55.992-77.24-62.636-142.997c-1.178-11.738-.785-23.113 1.767-33.614 0 0-1.119-6.487-2.994-17.225-.373-2.14-.775-4.437-1.197-6.89a36632 36632 0 0 0-5.712-32.516c-2.14-12.131-4.485-25.41-6.91-38.964-4.77-26.666-9.794-54.44-14.035-76.857l3.347-1.079 15.32-4.946 20.846-6.724 7.478-23.741 4.878-1.285 22.053-5.801s.962 1.885 2.454 7.685c1.982 7.665 4.897 22.191 7.773 48.298.383 3.572.775 7.36 1.168 11.385 4.044 29.541 6.39 71.321.01 121.454a520 520 0 0 1-4.721 29.895c-1.423 7.509-1.629 17.755-1.04 29.513 2.719 53.752 22.446 139.041 22.446 139.041"/><path style="fill:#2c3a64" d="M777.974 1423.022c-14.388 34.262-45.588 107.852-57.493 135.931a36632 36632 0 0 0-5.712-32.516c-2.14-12.131-4.485-25.41-6.91-38.964l-5.437-57.071 10.069-25.812 12.828-32.889s9.589.481 20.375 1.139c8.931.55 18.697 1.236 24.507 1.884 1.982 7.666 4.897 22.192 7.773 48.298"/><path style="fill:#f99746" d="M941.787 1373.82c-4.883 4.318-25.519-17.211-27.303-19.183-4.131-.282-14.178-.845-25.539-2.066 3.567-5.82 6.854-14.177 8.356-18.026 11.549 5.07 20.939 8.825 20.939 8.825s17.641 2.904 20.318 5.854c7.423 8.178 8.58 19.996 3.229 24.596"/><path style="fill:#699ff0" d="M936.343 1357.912c-3.521 0-72.768-3.521-72.768-3.521l48.121 51.318 105.63 22.493z"/><path style="fill:#f99746" d="M984.247 1423.591c-2.296 7.018-6.337 28.85-6.337 28.85l-55.867-18.283s8.695-19.936 11.137-27.278c2.216-6.666 7.146-28.588 7.146-28.588l55.867 18.282c-.001-.001-9.649 19.996-11.946 27.017"/><path style="fill:#ed7d2b" d="M984.247 1423.591c-2.296 7.018-6.337 28.85-6.337 28.85l-39.352-12.878s8.695-19.936 11.137-27.279c2.217-6.666 7.146-28.588 7.146-28.588l39.352 12.878c-.001-.001-9.649 19.996-11.946 27.017"/><path transform="rotate(18.121 969.088 1385.285)" style="fill:#ed7d2b" d="M939.597 1382.845h58.784v4.703h-58.784z"/><path transform="rotate(18.121 949.342 1445.627)" style="fill:#dc8d39" d="M919.852 1443.183h58.783v4.703h-58.783z"/><path style="fill:#ecf2fd" d="m994.82 1407.907 20.17 30.919c2.388 3.661 1.347 8.612-2.314 11l-12.674 8.268c-3.87 2.524-9.104 1.424-11.628-2.446l-19.924-30.542c-3.391-5.198-3.173-11.75.019-16.659.419-.645.398-1.5-.108-2.082a5 5 0 0 1-.406-.54l-1.066-1.634 9.417-6.144 1.065 1.634q.21.324.363.661c.289.637.955 1.022 1.642.901 5.839-1.026 12.018 1.411 15.444 6.664"/><path style="fill:#e5eaf5" d="m994.82 1407.907 20.17 30.919c2.388 3.661 1.347 8.612-2.314 11l-7.965 5.196c-3.87 2.524-9.104 1.423-11.628-2.446l-19.924-30.543c-3.391-5.198-3.173-11.75.019-16.658.153-.237.248-.504.281-.774a1.68 1.68 0 0 0-.39-1.308 6 6 0 0 1-.406-.541l-1.065-1.633 4.708-3.072 1.065 1.634q.21.324.363.661c.289.637.955 1.022 1.642.901 5.839-1.026 12.018 1.411 15.444 6.664"/><path style="opacity:.3;fill:#ced4ea" d="m989.599 1411.314 20.17 30.919c2.388 3.661 1.346 8.611-2.315 11l-2.743 1.789c-3.87 2.524-9.104 1.423-11.628-2.446l-19.924-30.543c-3.391-5.198-3.173-11.75.019-16.658.153-.237.248-.504.281-.774.218.072.456.093.696.049 5.838-1.026 12.016 1.412 15.444 6.664"/><path transform="rotate(-33.123 989.125 1428.183)" style="fill:#ebf3fa" d="M973.542 1417.395h31.483v21.67h-31.483z"/><path transform="rotate(-33.232 970.8 1399.873)" style="fill:#ebf3fa" d="M964.454 1398.276h12.5v2.959h-12.5z"/><path style="fill:#ecf2fd" d="m925.314 1394.819 7.485 36.149c.886 4.28-1.892 8.509-6.172 9.395l-14.817 3.068c-4.524.938-8.995-1.999-9.932-6.523l-7.394-35.709c-1.258-6.078 1.336-12.098 6.102-15.502.625-.446.919-1.25.659-1.978a5 5 0 0 1-.181-.651l-.395-1.91 11.01-2.279.395 1.909q.077.378.097.749c.036.697.516 1.3 1.2 1.438 5.81 1.177 10.671 5.703 11.943 11.844"/><path style="fill:#e5eaf5" d="m925.314 1394.819 7.485 36.149c.886 4.28-1.892 8.509-6.172 9.395l-9.313 1.929c-4.524.937-8.995-2-9.932-6.524l-7.394-35.709c-1.259-6.077 1.336-12.097 6.101-15.501.229-.164.415-.378.544-.618.22-.408.277-.9.115-1.359a5 5 0 0 1-.181-.651l-.396-1.91 5.505-1.14.395 1.909q.077.378.097.749c.036.697.516 1.3 1.2 1.438 5.813 1.176 10.674 5.702 11.946 11.843"/><path style="opacity:.3;fill:#ced4ea" d="m919.208 1396.084 7.485 36.149c.886 4.28-1.892 8.509-6.171 9.395l-3.207.664c-4.524.937-8.995-2-9.932-6.524l-7.394-35.709c-1.259-6.077 1.336-12.097 6.101-15.501.229-.164.415-.378.544-.618.177.147.391.253.63.3 5.811 1.176 10.673 5.702 11.944 11.844"/><path transform="rotate(-11.706 912.443 1411.609)" style="fill:#ed7d2b" d="M896.996 1400.881h31.483v21.67h-31.483z"/><path transform="rotate(-11.819 905.597 1378.433)" style="fill:#ed7d2b" d="M899.59 1376.944h12.5v2.959h-12.5z"/><path style="fill:#aac9f5" d="m1053.563 1633.313-11.925 75.866-3.474 21.876-6.854 43.849h-92.767s-12.206-7.512-28.074-17.37c-27.041-16.995-64.411-40.656-68.167-44.881-2.441-2.724-6.667-23.191-10.798-46.289-5.822-32.956-11.455-71.454-11.455-71.454l33.99-63.472-29.295-70.138 38.684-106.909 48.073 51.325 105.724 22.439z"/><path style="fill:#aac9f5" d="m915.657 1619.347-10.563 59.857 79.223-55.163zm125.835 89.833-10.328 65.725h-92.767s-12.206-7.512-28.074-17.37l-7.699-22.628 89.198-40.468 10.704-.563z"/><path style="fill:#c3d9fa" d="m1053.563 1633.313-11.925 75.866-3.474 21.876c-6.009-3.004-47.885-24.6-46.195-36.617 1.784-12.864 61.594-61.125 61.594-61.125m-211.26 79.34s56.336 17.019 60.444 22.3 15.844 27.581 15.844 27.581zm73.354-93.306s44.6-12.91 48.707-18.778c4.108-5.869 32.863-41.665 32.863-41.665s-7.628 58.096-12.91 65.138c-5.282 7.041-68.66-4.695-68.66-4.695"/><path style="fill:#9dc1ed" d="m879.109 1577.259-47.604 89.105c-5.822-32.956-11.455-71.454-11.455-71.454l26.948-31.735z"/><path style="fill:#c3d9fa" d="M879.109 1577.259s-25.821-10.141-59.059 17.651l33.99-63.472zm-54.364-115.958 78.589 20.531 32.862 50.076z"/><path style="fill:#9dc1ed" d="m905.094 1679.204-2.347 55.749 89.222-40.515 61.594-61.125-56.336-74.41-26.994 71.593z"/><path style="fill:#2c3a64" d="M818.714 1113.042s-7.552-27.174-29.405-29.791-35.593 10.469-38.538 23.228-.816 46.13 12.678 50.219c13.494 4.087 55.265-43.656 55.265-43.656"/><path style="fill:#35488b" d="m755.988 1381.958-1.354-11.611c-22.684 6.025-83.291-16.835-83.291-16.835s-21.975 19.316-19.089 65.619c1.408 22.6 2.322 60.95 2.322 60.95h.002c-.057 32.885 2.39 65.454 4.342 86.103a865 865 0 0 0 2.169 20.557.1.1 0 0 1 .007.028c.106.893-.205 1.736-.659 2.517-3.955 6.713-7.703 13.541-9.917 20.854-15.495 51.185-3.298 129.824-3.298 129.824l15.257 23.799s17.317-96.305 31.388-138.851c2.389-7.217 4.678-12.888 6.776-16.275 6.118-9.875 11.795-26.008 16.949-45.197 9.685-36.072 38.396-181.482 38.396-181.482"/><path style="fill:#ed985f" d="M793.266 1170.714s-2.992 9.148-5.196 17.919c-16.448-4.59-21.443-21.879-22.946-31.147z"/><path style="fill:#ffb27d" d="M796.729 1180.4s-39.352-9.107-33.303-33.526 5.043-42.04 30.424-37.258 27.935 15.306 27.899 23.946c-.035 8.642-14.627 48.578-25.02 46.838"/><path style="fill:#2c3a64" d="M823.963 1119.699c-4.231-8.851-9.21-8.378-12.324-6.809-18.491-17.108-36.626-3.132-36.626-3.132-6.981 16.863-22.109 23.754-22.109 23.754s6.045 6.19 23.566 6.054c5.352-.041 10.733-2.499 15.629-5.885-9.444 9.513-20.518 15.304-20.518 15.304 21.934-4.197 36.641-29.59 38.148-32.287 1.858 2.744 5.412 8.585 5.711 13.518.406 6.702-1.9 19.719 1.938 20.212 0 0 12.93-17.455 6.585-30.729"/><path style="fill:#f99746" d="M812.353 1217.481s9.475 16.528 10.893 20.781c0 0-12.287-.473-17.249 8.979 0 0 .425-27.385 6.356-29.76"/><path style="fill:#f99746" d="M809.076 1266.717c-.285.775-.619 1.54-.972 2.315-9.873 21.269-18.864 39.013-18.864 39.013-.245-.146-1.433 78.801-13.377 81.912-6.743 1.747-25.979 4.318-39.749 5.231-6.694.441-25.027 1.472-41.83 0-21.189-1.855-33.242-6.654-41.329-13.977-9.589-12.769 34.832-54.862 40.867-85.15-.079-1.58.196-6.664.628-13.288.766-12.102 2.003-29.365 2.375-39.916.068-1.58.108-3.013.118-4.26 0-.235.01-.461.01-.677 2.14-1.59 4.23-3.063 6.154-4.466 6.183-4.505 10.806-8.353 11.1-13.299a38 38 0 0 0-.157-5.938 45 45 0 0 0-.353-2.816c-1.521-9.903-5.643-18.874-5.643-18.874 10.453-4.239 29.071-1.717 29.071-1.717s-.03 1.04-.04 2.728c-.068 6.802 0 24.252 2.179 27.55 2.729 4.112 52.576 22.142 55.207 16.557 2.591-5.486-4.505-31.21-4.77-32.182l-.01-.029c16.694 6.546 22.662 12.042 22.662 12.042-10.059 6.538 4.506 28.61-3.277 49.241"/><path style="fill:#ed7d2b" d="M740.041 1343.299c-13.093-6.065-32.889-37.786-45.589-60.525.766-12.102 2.003-29.365 2.375-39.916z"/><path style="fill:#ffb27d" d="m837.891 1361.867-3.287 12.018s-4.131-.75-10.704-1.971c-1.972-.376-3.098-.657-3.098-.657-5.258-1.032-11.549-2.441-18.403-3.943h-.094c-11.737-2.817-24.882-6.196-35.961-9.954-7.793-2.722-14.553-5.632-19.154-8.543a12 12 0 0 1-1.315-.939c-10.985-7.979-24.037-31.453-34.177-56.617-1.409-3.475-2.723-6.948-4.038-10.328-4.695-12.582-8.45-24.976-10.703-35.68-1.409-6.385-2.348-12.207-2.536-16.995-.094-1.689-.188-3.285-.094-4.789.188-27.228 13.708-30.984 13.708-30.984.281-.094.563-.188.939-.28 2.347-.376 4.789 1.219 7.324 4.318 3.192 3.849 6.573 10.141 10.047 17.745 5.351 12.112 10.985 27.793 16.243 43.38 2.911 8.543 5.727 17.088 8.544 24.975a531 531 0 0 0 4.695 13.428c2.911 7.887 5.54 14.271 7.887 18.309 1.502 2.629 5.821 6.291 11.549 10.422 9.953 7.229 24.506 15.963 37.182 23.098 5.258 3.005 10.234 5.729 14.365 7.981 6.667 3.66 11.081 6.006 11.081 6.006"/><path style="fill:#f99746" d="M726.312 1214.306c-18.076-4.983-32.019 9.13-32.019 9.13.226-27.185 13.759-30.906 13.759-30.906 5.444-2.255 11.753 7.173 18.26 21.776m151.037 159.481c-6.009 2.533-14.459 11.36-27.98 6.009-9.671-3.756-19.905-6.386-24.882-7.606-1.972-.375-3.098-.656-3.098-.656-5.258-1.033-11.549-2.441-18.403-3.943 5.633-6.948 8.826-15.774 10.047-19.438 5.258 3.006 10.234 5.729 14.365 7.982 13.61 5.193 21.126 4.507 29.389 2.629 9.295-2.159 24.882 9.014 24.882 9.014s1.689 3.568-4.32 6.009"/><path style="fill:#233862" d="M704.033 1770.22h-60.729s-2.27-9.686 1.717-16.277c3.529-5.831 2.027-12.548 1.31-20.509 2.751 1.126 6.255 4.021 10.123 4.689 4.253.736 8.469-.499 11.275-2.129 2.614 2.98 9.92 18.383 13.417 20.896 3.969 2.852 21.665 1.836 22.887 13.33m122.489 0h-60.728s-2.271-9.686 1.716-16.277c3.529-5.831 2.027-12.548 1.311-20.509 2.751 1.126 6.255 4.021 10.122 4.689 4.253.736 9.75-2.071 12.556-3.7 1.376 11.797 8.639 19.954 12.136 22.468 3.968 2.851 21.665 1.835 22.887 13.329"/><path style="fill:#2e3552" d="M3041.895 1777.191H250.372a3.114 3.114 0 0 1-3.106-3.105v-.913a3.115 3.115 0 0 1 3.106-3.106h2791.522a3.115 3.115 0 0 1 3.105 3.106v.913a3.11 3.11 0 0 1-3.104 3.105"/></svg>