<?xml version="1.0" encoding="utf-8"?>
<!-- Generator: Adobe Illustrator 27.5.0, SVG Export Plug-In . SVG Version: 6.00 Build 0)  -->
<svg version="1.1" xmlns="http://www.w3.org/2000/svg" xmlns:xlink="http://www.w3.org/1999/xlink" x="0px" y="0px"
	 viewBox="0 0 500 500" style="" xml:space="preserve">
<g id="BACKGROUND">
	
</g>
<g id="OBJECTS">
	<g>
		<defs>
			<rect id="SVGID_1_" width="400" height="400"/>
		</defs>
		<clipPath id="SVGID_00000025426015625160642030000001498172284339504569_">
			<use xlink:href="#SVGID_1_"  style="overflow:visible;"/>
		</clipPath>
		<g style="clip-path:url(#SVGID_00000025426015625160642030000001498172284339504569_);">
			<circle style="fill:#A7C8DE;" cx="250" cy="250" r="201"/>
			<circle style="fill:#C0DBE8;" cx="250" cy="250" r="174"/>
			<g>
				<g>
					<g>
						<polygon style="fill:#715A9A;" points="145.593,92.521 142.008,92.907 145.823,95.729 						"/>
						<polygon style="fill:#715A9A;" points="162.435,97.117 164.633,91.799 161.388,91.516 						"/>
						<path style="fill:#FA6D54;" d="M142.008,92.907l-0.988,6.005c0,0-10.229,4.862-13.419,7.155
							c-3.189,2.293-3.72,5.685-4.36,11.149c-0.64,5.464-0.068,15.227-2.029,18.464c-1.961,3.237,1.497,8.278-0.069,11.615
							c-1.567,3.337-2.198,5.318,1.762,4.776c3.96-0.542,11.514,0.464,12.946,6.037l-2.692,9.223c0,0-1.099,2.659-0.475,4.162
							c0.624,1.503,23.834-2.226,29.171,0.229c5.336,2.455,13.643,6.761,14.761,4.359c1.118-2.402,5.188-57.133,6.049-59.517
							c0.861-2.384,26.29-7.563,29.479-9.856s5.48-6.327,5.48-6.327s-6.766-0.804-8.967-2.711c-2.201-1.906,0.493-7.517,0.493-7.517
							s-2.641-0.842-4.308,1.083c-1.668,1.926-3.208,2.036-4.711,2.66c-1.503,0.624-7.058,2.313-9.937,1.745
							c-2.879-0.567-14.741-0.49-17.345-0.819c-2.604-0.329-4.949,2.935-5.775,2.22c-0.825-0.715-2.44-5.243-2.44-5.243
							L142.008,92.907z"/>
						<path style="fill:#F6C367;" d="M120.961,151.952l0.212,31.719c0,0-4.984,9.646-4.892,10.929
							c0.092,1.283,4.935,7.644,5.76,8.359c0.825,0.715,4.693-2.917,4.693-2.917s-0.549,3.135,1.01,3.282
							c1.559,0.146,2.255-0.936,2.235-4.805c-0.02-3.869,0.86-5.996,0.07-9.809c-0.79-3.813-1.506-6.6-1.506-6.6l7.308-24.003
							C135.851,158.107,136.325,150.333,120.961,151.952z"/>
						<path style="fill:#F6C367;" d="M209.15,90.153c0,0,19.244-23.053,21.809-26.849c2.566-3.796,6.708-7.189,8.23-7.557
							c1.522-0.367,2.622,0.586,2.622,0.586s2.438-1.981,3.52-1.285c1.082,0.696,1.211,2.493,0.001,3.612
							c-1.21,1.119-5.132,3.98-5.132,3.98s-1.318,6.803-3.536,8.252c-2.218,1.449-3.941,2.605-3.941,2.605
							s-12.148,24.866-15.099,26.884C217.624,100.381,202.387,100.184,209.15,90.153z"/>
						<path style="fill:#F6C367;" d="M243.406,56.992c0,0,3.776-1.303,4.217,1.245s-1.502,4.236-1.502,4.236s0.422,2.292-1.52,3.979
							c-1.943,1.688-6.746,3.064-6.746,3.064l1.152-9.113L243.406,56.992z"/>
						<path style="fill:#F6C367;" d="M162.092,59.989c3.656,2.417,5.149,5.242,5.04,7.314c-0.109,2.072-0.383,5.446-0.383,5.446
							s2.036,1.402,2.146,2.942l-2.021,1.499c0,0,1.3,9.13-1.193,10.341c-2.493,1.211-4.532,2.454-4.532,2.454l1.286,7.132
							l-5.48,6.327l-11.132-7.715l-0.388-9.002c0,0-6.384-9.862-6.349-16.573C139.12,63.444,151.529,53.007,162.092,59.989z"/>
						<path style="fill:#1A2074;" d="M163.995,61.336c0,0-9.213,1.048-9.652,3.015c-0.439,1.966,0.195,8.113-0.547,8.553
							c-0.742,0.44-3.011,1.184-2.584,4.443c0.427,3.259-0.326,3.171-1.044,4.332c-2.254,3.645-4.618,5.749-4.618,5.749
							s-0.175,0.134-0.115-0.701c0,0-2.761-4.317-5.141-7.823c-2.38-3.506-3.345-11.564-0.391-16.226
							c2.955-4.663,9.871-8.061,16.114-7.348C162.261,56.043,166.469,58.063,163.995,61.336z"/>
						<circle style="fill:#F6C367;" cx="152.572" cy="74.734" r="3.86"/>
					</g>
				</g>
			</g>
			<g>
				<g>
					<circle style="fill:#13365F;" cx="250" cy="250" r="149"/>
					<g>
						<path style="fill:#264F83;" d="M220.184,317.998c-14.99-6.433-20.348-17.195-31.917-21.899
							c-11.632-4.695-11.102,0.116-16.232,4.595c-5.113,4.458-2.527-3.926-6.807-2.396c-4.292,1.514-5.083-2.737-8.097-6.615
							c-3.007-3.87-2.629-3.445-8.098-6.512c-5.45-3.048-2.678-3.387-10.139-3.554c-7.506-0.182-7.354-8.707-6.376-13.613
							c0.894-4.864,18.859-8.304,29.703-10.577c10.76-2.19,22.077-17.111,29.473-28.329c7.384-11.174,21.048-12.318,13.003-14.559
							c-8.207-2.305-17.036-14.586-22.876-17.307c-6.018-2.749-9.042,4.891-5.911,10.071c3.228,5.223-4.484,4.505-5.933,13.395
							c-1.205,8.899-8.316-2.105-10.289-7.219c-2.036-5.162-10.281-2.839-10.327-7.981c0.091-5.124,9.566-7.643,19.991-13.983
							c10.242-6.421,1.374-12.439-9.025-6.336c-10.483,5.999-21.287,3.824-33.619,2.276c-4.98-0.596-8.788-0.36-12.157,0.391
							C105.856,206.766,101,227.815,101,250c0,2.292,0.06,4.57,0.162,6.837c1.895,1.401,3.769,2.735,5.276,4.059
							c6.378,5.457,2.191,2.711,7.857,8.652c5.838,6.006,6.309,5.255,6.635,9.253c0.397,3.991,10.086,6.68,17.154,7.721
							c7.106,1.036,10.428,2.353,15.721,9.225c5.386,6.879,16.238,8.688,18.384,10.483c2.189,1.806-2.271,6.696-3.106,14.116
							c-0.703,7.419,5.676,5.812,10.612,14.139c5.126,8.335,10.226,7.589,14.215,9.625c3.954,2.035,7.241,19.253,11.667,33.368
							c2.08,6.713,5.293,12.54,8.601,17.177c2.196,0.542,4.409,1.038,6.642,1.481c-1.166-2.653-2.132-5.546-2.269-8.254
							c-1.299-9.008,11.212-27.831,19.665-30.576c7.715-2.564,2.421-17.276,4.91-26.203
							C245.657,322.14,235.1,324.445,220.184,317.998z"/>
						<path style="fill:#264F83;" d="M259.346,171.338c8.677-11.404,6.157-15.794,12.344-24.827
							c6.091-9.039,10.736-18.056,5.893-17.201c-4.952,0.873-3.284-7.356-8.425-7.637c-5.094-0.288-18.642,6.722-27.709,9.783
							c-8.918,3.04-17.463,6.161-22.394,12.131c-6.658,8.1-11.505,3.116-13.001,6.9c-1.547,3.767-8.019,10.667,2.053,6.799
							c10.046-3.844,10.684-4.43,13.206,2.382c2.666,6.837,9.471,8.018,3.785,13.295c-5.617,5.293-12.785,10.589-8.655,16.362
							c4.228,5.816,4.055,8.957,7.748,9.625c3.729,0.68,1.052-0.941,5.847-7.003c4.779-6.072,6.403-7.518,12.989-11.062
							C249.543,177.326,250.519,182.713,259.346,171.338z"/>
						<path style="fill:#264F83;" d="M181.34,164.212c8.604,0.098,9.825-2.74,17.169-12.024
							c7.561-9.269,21.365-16.129,28.045-22.079c6.74-5.97-3.544-2.346-13.872,0.855c-10.264,3.225-17.056,6.966-15.045,8.452
							c2.066,1.554-2.03,5.646-5.628,5.067c-3.533-0.549-1.739-3.205-9.632,3.607c-0.057-0.031,4.01,3.367,4.781,7.679
							c0.796,4.294-5.537,3.142-6.581-0.487c-0.91-3.619-5.086-1.963-4.681,1.325C176.444,159.962,172.84,164.183,181.34,164.212z"
							/>
						<path style="fill:#264F83;" d="M337.751,244.548c-0.184-0.003-0.36-0.006-0.555-0.008c-11.167-0.076-15.977-7.56-19.113-2.916
							c-3.152,4.65-0.818,6.996-10.181,1.825c-9.336-5.171-0.099-7.013-7.056-8.905c-6.92-1.9-21.22,2.325-21.238,2.329
							c-5.079,2.82-17.387,18.749-19.745,22.943c-2.393,4.204-1.396,18.191,4.771,24.751c6.137,6.554,1.997,11.232,15.403,6.113
							c13.45-5.134,19.086-1.875,22.208,6.536c3.165,8.414,8.794,17.246,4.512,24.286c-4.229,7.041-2.112,12.173,0.74,16.345
							c2.806,4.166-2.419,7.979,2.996,16.297c5.295,8.294,3.049,12.989,11.004,6.734c7.993-6.266,11.802-9.174,14.232-19.411
							c2.349-10.225,15.235-3.693,11.884-16.942c-3.598-13.257-12.284-9.468,1.87-22.162c14.129-12.688,27.933-18.703,17.745-20.903
							c-10.223-2.228-7.662,8.361-15.253-6.343c-7.497-14.191-13.606-19.082-12.442-23.548
							C336.972,248.416,336.875,246.304,337.751,244.548z"/>
						<path style="fill:#264F83;" d="M369.915,161.558c-1.85,0.561-4.227,0.614-7.365,0.533
							c-7.886-0.241-16.803,10.626-22.913,9.018c-5.976-1.643-14.891-8.918-8.324-7.266c6.608,1.654,12.965-0.278,9.253-3.22
							c-3.73-2.951-14.181-8.546-18.693-8.72c-4.661-0.184-10.884-1.347-16.838,10.691c-6.049,12.033-15.046,17.645-10.729,21.867
							c4.335,4.23,6.783-0.893,9.252-1.8c2.521-0.906-1.725,10.728,3.767,8.453c5.506-2.269,7.808-5.479,4.973-10.195
							c-2.816-4.712-0.806-6.55,2.109-10.675c2.901-4.13,9.534-5.307,6.463-0.296c-3.094,5.015-8.507,11.895-0.636,10.671
							c7.824-1.202,12.835-1.018,9.009,2.097c-3.862,3.139-1.911,10.594-12.291,10.87c-10.346,0.298-14.524,4.483-21.529,7.725
							c-6.996,3.246-15.027,5.147-16.438,9.364c-1.409,4.213,6.714,1.852,6.707,1.856c-0.467,6.554-2.31,9.357-9.111,7.978
							c-6.771-1.372-7.837,4.247-5.64,9.376c2.194,5.132,4.487,10.739,10.079,3.243c5.571-7.495,7.837-11.243,14.171-13.57
							c6.359-2.317,2.448-12.631,14.896-2.261c12.569,10.385,17.115,18.328,25.318,16.554c8.196-1.758,9.693,0.119,7.134,4.713
							c-1.278,2.276-3.734,3.873-4.787,5.983c-0.876,1.756-0.779,3.868,1.783,7.023c0.57,0.703,1.26,1.456,2.092,2.27
							c9.058,8.846,12.312,16.661,13.147,21.728c0.827,5.071,4.168,2.261,14.08-3.268c9.892-5.521,15.956-7.748,11.697-11.397
							c-4.268-3.653-0.593-5.46-7.096-4.131c-6.519,1.333-10.731-0.052-12.298-5.578c-1.589-5.528-2.139-6.906,5.044-2.248
							c7.171,4.655,14.733,7.866,23.553,6.127c4.097-0.802,6.982,0.366,9.03,2.955c0.141-2.659,0.217-5.335,0.217-8.03
							C399,216.883,388.19,186.295,369.915,161.558z"/>
						<path style="fill:#264F83;" d="M359.856,329.191c-3.717-1.698-3.715,4.698-7.663,8.05c-3.934,3.35-3.575,4.262-3.229,10.199
							c0.301,5.931-2.73,6.53,1.861,6.312C355.482,353.506,362.286,330.214,359.856,329.191z"/>
					</g>
				</g>
				<g>
					<g>
						<g>
							<path style="fill:#519A85;" d="M394.106,222.298c-1.089-3.529-2.533-6.698-4.293-9.418c-2.055-3.036-4.336-5.695-6.765-7.882
								c-4.891-4.41-10.9-8.132-17.864-11.065c-5.83-2.519-12.492-4.525-20.377-6.138c-7.465-1.479-14.404-2.42-21.208-2.873
								c-13.881-1.018-28.235-0.178-42.675,2.492l-0.212,0.037c-7.034,1.205-14.309,2.45-21.657,1.835
								c-4.146-0.363-7.821-1.324-10.932-2.857c-3.249-1.534-6.279-3.843-8.991-6.854l1.671-1.505
								c2.511,2.789,5.302,4.92,8.297,6.334c2.876,1.417,6.284,2.303,10.146,2.641c7.066,0.594,14.192-0.629,21.086-1.81
								l0.198-0.034c14.614-2.702,29.161-3.552,43.225-2.522c6.894,0.46,13.928,1.413,21.495,2.913
								c8.044,1.645,14.85,3.697,20.815,6.274c7.186,3.026,13.41,6.884,18.486,11.463c2.565,2.309,4.965,5.105,7.136,8.312
								c1.885,2.913,3.416,6.27,4.565,9.996L394.106,222.298z"/>
						</g>
					</g>
					<g>
						<g>
							<path style="fill:#519A85;" d="M389.326,210.048c0,0-0.158-0.74-0.405-1.893c-0.281-1.121-0.558-2.756-0.807-4.518
								c-0.273-1.724-0.398-3.72-0.179-5.57c0.217-1.831,0.844-3.622,2.328-4.988c2.995-2.708,3.758-5.327,3.632-7.366
								c-0.054-1.025-0.314-1.858-0.563-2.41c-0.247-0.566-0.477-0.885-0.477-0.885s0.328,0.438,0.851,1.203
								c0.522,0.771,1.225,1.967,1.972,3.339c0.371,0.699,0.761,1.418,1.126,2.237c0.363,0.831,0.716,1.701,1.043,2.591
								c0.324,0.896,0.634,1.786,0.882,2.726c0.238,0.963,0.435,1.926,0.578,2.871c0.143,0.945,0.233,1.87,0.259,2.761
								c-0.001,0.932-0.064,1.824-0.195,2.66c-0.261,1.674-0.793,3.121-1.62,4.257c-0.834,1.146-1.976,1.99-3.358,2.46
								C392.99,210.016,391.282,210.185,389.326,210.048z"/>
						</g>
						<g>
							<path style="fill:#519A85;" d="M389.726,209.748c0,0-0.162-0.094-0.45-0.262c-0.299-0.154-0.685-0.401-1.249-0.598
								c-1.111-0.409-2.561-0.913-4.202-1.06c-1.679-0.123-3.399-0.014-5.024,0.63c-1.645,0.649-3.102,1.755-4.254,3.395
								c-2.332,3.256-4.421,4.778-5.786,5.584c-0.679,0.392-1.225,0.599-1.624,0.715c-0.386,0.111-0.594,0.117-0.594,0.117
								s0.292-0.008,0.798-0.021c0.509-0.018,1.16-0.023,2.039-0.072c0.879-0.05,1.896-0.108,2.98-0.169
								c1.153-0.086,2.374-0.176,3.595-0.267c0.637-0.056,1.303-0.125,1.983-0.208c0.635-0.065,1.291-0.146,1.957-0.25
								c1.331-0.21,2.705-0.506,4.007-0.991c1.29-0.482,2.496-1.142,3.552-2.186C388.478,213.075,389.291,211.696,389.726,209.748z"
								/>
						</g>
					</g>
					<g>
						<g>
							<path style="fill:#519A85;" d="M376.313,198.333c0,0-0.435-0.604-1.038-1.626c-0.596-1.037-1.439-2.365-2.164-3.992
								c-0.727-1.622-1.425-3.352-1.672-5.207c-0.248-1.845-0.084-3.716,0.96-5.437c2.109-3.444,2.214-6.118,1.695-7.969
								c-0.509-1.847-1.58-2.84-1.58-2.84s1.519,1.347,3.424,3.443c0.952,1.102,1.995,2.398,2.985,3.799
								c0.99,1.424,1.919,3.037,2.667,4.618c0.75,1.589,1.293,3.314,1.561,4.881c0.27,1.573,0.246,3.093-0.141,4.474
								c-0.381,1.368-1.11,2.561-2.215,3.534C379.694,196.978,378.218,197.734,376.313,198.333z"/>
						</g>
						<g>
							<path style="fill:#519A85;" d="M376.581,197.912c0,0-0.75-0.138-1.901-0.214c-1.142-0.09-2.757,0.013-4.372,0.318
								c-1.619,0.309-3.347,0.997-4.753,2.013c-1.415,1.023-2.564,2.464-3.217,4.364c-1.318,3.78-3.006,5.782-4.268,6.876
								c-1.273,1.09-2.18,1.241-2.18,1.241s1.252-0.17,3.205-0.624c0.936-0.191,2.047-0.446,3.272-0.778
								c1.206-0.318,2.463-0.659,3.798-1.119c1.327-0.456,2.6-0.923,3.886-1.555c1.282-0.631,2.49-1.36,3.517-2.248
								c1.036-0.898,1.918-1.981,2.488-3.338C376.63,201.485,376.885,199.847,376.581,197.912z"/>
						</g>
					</g>
					<g>
						<g>
							<path style="fill:#519A85;" d="M360.433,190.728c0,0-2.234-1.976-4.294-4.786c-2.029-2.832-3.997-6.483-2.609-10.268
								c1.426-3.765,1.075-6.426,0.289-8.162c-0.749-1.71-1.829-2.448-1.829-2.448s0.374,0.259,1.022,0.707
								c0.618,0.441,1.573,1.148,2.643,2.016c1.069,0.866,2.26,1.889,3.426,3.098c1.166,1.197,2.312,2.475,3.297,3.904
								c1.984,2.782,3.303,5.892,3.166,8.698C365.424,186.294,363.851,188.806,360.433,190.728z"/>
						</g>
						<g>
							<path style="fill:#519A85;" d="M360.6,190.257c0,0-0.757,0.03-1.91,0.232c-1.154,0.205-2.677,0.525-4.238,1.207
								c-3.12,1.278-6.188,3.791-6.736,7.762c-0.591,3.972-1.91,6.22-3.002,7.491c-1.138,1.277-2.161,1.574-2.161,1.574
								s0.352-0.102,0.961-0.278c0.634-0.191,1.426-0.458,2.391-0.822c0.967-0.365,2.103-0.833,3.294-1.332
								c1.195-0.51,2.493-1.143,3.744-1.794c2.534-1.37,5.033-3.025,6.676-5.255C361.248,196.801,362.015,193.988,360.6,190.257z"/>
						</g>
					</g>
					<g>
						<g>
							<path style="fill:#519A85;" d="M343.364,186.248c0,0-0.63-0.406-1.553-1.138c-0.922-0.733-2.149-1.74-3.332-3.018
								c-2.356-2.517-4.646-5.963-3.698-9.875c0.975-3.905,0.367-6.5-0.539-8.112c-0.9-1.614-2.062-2.251-2.062-2.251
								s1.633,0.843,3.82,2.288c1.091,0.743,2.318,1.637,3.546,2.645c1.227,1.019,2.451,2.184,3.551,3.408
								c2.199,2.482,3.871,5.293,4.157,8.08C347.545,181.082,346.467,183.776,343.364,186.248z"/>
						</g>
						<g>
							<path style="fill:#519A85;" d="M343.458,185.758c0,0-0.743,0.145-1.853,0.489c-1.111,0.344-2.596,0.94-4.062,1.768
								c-2.956,1.69-5.785,4.473-5.879,8.488c-0.122,4.014-1.221,6.395-2.238,7.789c-1.022,1.391-1.996,1.78-1.996,1.78
								s1.358-0.504,3.334-1.449c0.986-0.451,2.127-1.012,3.335-1.677c1.205-0.654,2.47-1.381,3.705-2.226
								c2.459-1.657,4.797-3.684,6.09-6.141C345.174,192.136,345.429,189.174,343.458,185.758z"/>
						</g>
					</g>
					<g>
						<g>
							<path style="fill:#519A85;" d="M325.861,183.838c0,0-0.669-0.35-1.666-0.958c-0.996-0.606-2.319-1.537-3.633-2.651
								c-2.609-2.262-5.25-5.435-4.722-9.415c0.556-3.987-0.323-6.504-1.394-8.023c-1.065-1.529-2.288-2.015-2.288-2.015
								s0.42,0.172,1.146,0.47c0.719,0.323,1.73,0.798,2.893,1.407c1.163,0.598,2.477,1.364,3.804,2.253
								c1.328,0.877,2.668,1.882,3.889,3.008c2.45,2.209,4.407,4.863,4.988,7.593C329.47,178.242,328.681,181.086,325.861,183.838z"
								/>
						</g>
						<g>
							<path style="fill:#519A85;" d="M325.903,183.34c0,0-0.722,0.21-1.791,0.692c-1.07,0.484-2.479,1.176-3.852,2.185
								c-2.76,1.985-5.279,5.063-4.948,9.074c0.304,4.004-0.537,6.487-1.401,7.969c-0.87,1.472-1.797,1.986-1.797,1.986
								s0.323-0.176,0.883-0.48c0.557-0.299,1.347-0.739,2.281-1.308c0.934-0.579,2.01-1.249,3.14-2.022
								c1.13-0.785,2.314-1.664,3.451-2.61c2.274-1.934,4.381-4.161,5.406-6.753C328.291,189.486,328.223,186.564,325.903,183.34z"
								/>
						</g>
					</g>
					<g>
						<g>
							<path style="fill:#519A85;" d="M308.202,183.303c0,0-0.702-0.261-1.758-0.777c-1.056-0.529-2.468-1.264-3.893-2.25
								c-2.835-1.99-5.796-4.836-5.694-8.87c0.132-4.013-1.012-6.451-2.237-7.829c-1.22-1.384-2.491-1.756-2.491-1.756
								s0.437,0.13,1.192,0.355c0.75,0.239,1.804,0.576,3.027,1.078c2.445,0.961,5.546,2.468,8.21,4.409
								c2.671,1.981,4.896,4.351,5.764,7.034C311.198,177.373,310.715,180.248,308.202,183.303z"/>
						</g>
						<g>
							<path style="fill:#519A85;" d="M308.191,182.803c0,0-0.695,0.301-1.708,0.877c-1.014,0.564-2.34,1.45-3.599,2.583
								c-2.536,2.248-4.712,5.606-3.959,9.539c0.727,3.959,0.151,6.489-0.548,8.073c-0.705,1.58-1.574,2.17-1.574,2.17
								s4.871-3.157,9.013-7.428c2.057-2.12,3.917-4.62,4.662-7.275C311.215,188.678,310.837,185.743,308.191,182.803z"/>
						</g>
					</g>
					<g>
						<g>
							<path style="fill:#519A85;" d="M290.586,184.642c0,0-0.727-0.197-1.832-0.596c-1.103-0.386-2.587-0.982-4.112-1.825
								c-3.034-1.648-6.11-4.279-6.365-8.294c-0.259-4.011-1.53-6.328-2.684-7.653c-0.578-0.662-1.156-1.069-1.555-1.32
								c-0.398-0.252-0.657-0.337-0.657-0.337s0.362,0.117,0.989,0.319c0.658,0.202,1.564,0.512,2.68,0.915
								c2.234,0.802,5.337,1.973,8.247,3.635c2.864,1.635,5.339,3.833,6.481,6.363C292.932,178.397,292.76,181.344,290.586,184.642z
								"/>
						</g>
						<g>
							<path style="fill:#519A85;" d="M290.521,184.146c0,0-0.661,0.361-1.607,1.044c-0.944,0.696-2.17,1.703-3.303,2.948
								c-2.269,2.53-4.276,6.053-3.175,9.917c1.107,3.866,0.682,6.474-0.072,8.122c-0.376,0.824-0.805,1.406-1.174,1.782
								c-0.371,0.377-0.643,0.547-0.643,0.547s0.392-0.228,1.014-0.646c0.6-0.417,1.47-1.028,2.421-1.785
								c1.898-1.517,4.092-3.609,5.864-5.945c1.809-2.376,3.402-4.981,3.855-7.747C294.148,189.637,293.467,186.795,290.521,184.146
								z"/>
						</g>
					</g>
					<g>
						<g>
							<path style="fill:#519A85;" d="M273.104,187.407c0,0-0.736-0.185-1.825-0.599c-1.088-0.402-2.526-1.085-3.894-2.029
								c-1.368-0.965-2.653-2.208-3.483-3.752c-0.852-1.515-1.237-3.311-1.062-5.308c0.302-3.986-0.281-6.51-0.748-8.016
								c-0.256-0.746-0.484-1.257-0.623-1.594c-0.152-0.329-0.257-0.461-0.257-0.461s0.151,0.189,0.413,0.515
								c0.275,0.336,0.767,0.777,1.339,1.394c1.249,1.152,3.226,2.761,5.422,4.581C272.737,175.777,277.362,180.692,273.104,187.407
								z"/>
						</g>
						<g>
							<path style="fill:#519A85;" d="M273.035,186.913c0,0-0.649,0.37-1.614,1.043c-0.963,0.684-2.256,1.619-3.565,2.801
								c-1.314,1.161-2.658,2.55-3.684,4.102c-1.003,1.581-1.692,3.343-1.437,5.344c0.558,4.007-0.579,6.489-2.047,7.949
								c-0.712,0.739-1.504,1.2-2.141,1.456c-0.625,0.266-1.056,0.355-1.056,0.355s0.603-0.114,1.609-0.351
								c0.998-0.244,2.309-0.685,3.832-1.238c2.944-1.184,6.339-3.077,8.845-5.442c2.526-2.359,4.315-5.105,4.748-7.868
								C276.954,192.291,276.008,189.509,273.035,186.913z"/>
						</g>
					</g>
					<g>
						<g>
							<path style="fill:#519A85;" d="M255.403,187.516c0,0-0.643-0.43-1.5-1.179c-0.832-0.824-1.879-1.933-2.56-3.408
								c-0.356-0.706-0.637-1.465-0.775-2.301c-0.148-0.818-0.195-1.635-0.103-2.461c0.206-1.703,0.947-3.329,2.141-4.942
								c2.322-3.262,3.376-5.54,4.114-6.876c0.351-0.653,0.573-1.13,0.703-1.43c0.131-0.297,0.167-0.421,0.167-0.421
								s-0.202,0.77-0.497,1.9c-0.17,0.618-0.247,1.311-0.307,2.259c0.013,0.854,0.045,1.956,0.284,3.065
								c0.171,1.175,0.549,2.355,0.847,3.672c0.325,1.288,0.665,2.6,0.788,3.978C258.945,182.093,258.521,185.011,255.403,187.516z"
								/>
						</g>
						<g>
							<path style="fill:#519A85;" d="M244.542,184.247c0,0-0.792,0.049-2.041-0.108c-1.233-0.165-2.957-0.554-4.636-1.382
								c-3.419-1.599-6.562-4.914-5.883-8.784c0.664-3.855,0.09-6.16-0.773-7.619c-0.85-1.444-1.93-1.973-1.93-1.973
								s1.524,0.706,3.617,1.886c2.094,1.178,4.764,2.783,7.081,4.419c2.323,1.674,4.272,3.262,5.181,5.232
								C246.058,177.893,246.089,180.412,244.542,184.247z"/>
						</g>
						<g>
							<path style="fill:#519A85;" d="M255.5,187.026c0,0-0.722,0.128-1.885,0.43c-1.145,0.222-2.765,0.649-4.542,1.022
								c-0.9,0.225-1.833,0.459-2.775,0.694c-0.938,0.25-1.895,0.564-2.801,0.946c-1.779,0.72-3.432,1.776-4.261,3.617
								c-1.595,3.719-4.123,5.11-6.409,5.282c-1.151,0.107-2.162-0.065-2.893-0.261c-0.735-0.195-1.188-0.411-1.188-0.411
								s0.626,0.312,1.703,0.78c0.527,0.236,1.205,0.502,1.98,0.778c0.775,0.275,1.617,0.575,2.594,0.83
								c1.908,0.564,4.145,0.906,6.385,1.098c2.26,0.079,4.542,0.009,6.593-0.488c2.069-0.402,3.872-1.216,5.34-2.117
								c1.455-0.941,2.536-2.108,3.207-3.351C257.908,193.358,257.464,190.414,255.5,187.026z"/>
						</g>
					</g>
				</g>
				<g>
					<g>
						<g>
							<path style="fill:#519A85;" d="M145.947,350.416c-4.465-3.329-8.788-6.711-12.848-10.053
								c-4.239-3.53-8.352-7.176-12.229-10.838c-3.967-3.8-7.79-7.759-11.368-11.773c-3.565-4.053-6.996-8.367-10.203-12.828
								c-3.046-4.286-5.963-8.975-8.673-13.938c-2.481-4.565-4.676-9.477-6.709-15.017c-1.731-4.758-3.144-9.951-4.321-15.88
								c-0.98-5.035-1.536-10.394-1.698-16.386c-0.185-11.684,1.772-22.564,5.818-32.352c0.2-0.457,0.385-0.895,0.571-1.332
								c0.35-0.824,0.7-1.648,1.08-2.458l1.913-3.661c0.396-0.813,0.881-1.598,1.349-2.357c0.248-0.4,0.495-0.801,0.729-1.208
								l0.616-0.94c0.549-0.838,1.117-1.706,1.721-2.542c3.095-4.342,6.68-8.566,10.652-12.552
								c6.907-6.985,14.63-13.237,22.1-19.284l27.809-22.515l1.415,1.748l-27.809,22.515c-7.422,6.008-15.096,12.22-21.919,19.12
								c-3.888,3.901-7.393,8.031-10.42,12.278c-0.578,0.8-1.131,1.646-1.667,2.464l-0.586,0.891
								c-0.209,0.368-0.468,0.787-0.727,1.207c-0.46,0.745-0.895,1.449-1.256,2.19l-1.905,3.646
								c-0.347,0.741-0.686,1.539-1.024,2.337c-0.189,0.446-0.378,0.891-0.572,1.334c-3.919,9.481-5.819,20.061-5.639,31.424
								c0.159,5.854,0.701,11.092,1.656,16c1.155,5.81,2.538,10.895,4.227,15.541c1.994,5.434,4.145,10.247,6.572,14.713
								c2.666,4.885,5.536,9.496,8.528,13.706c3.16,4.396,6.545,8.652,10.057,12.645c3.534,3.965,7.316,7.881,11.234,11.634
								c3.838,3.625,7.916,7.239,12.114,10.735c4.027,3.314,8.321,6.675,12.757,9.982L145.947,350.416z"/>
						</g>
					</g>
					<g>
						<g>
							<path style="fill:#519A85;" d="M130.835,336.812c0,0-0.632-0.881-1.428-2.329c-0.792-1.45-1.824-3.379-2.549-5.533
								c-1.53-4.26-1.958-9.126,1.288-11.526c3.232-2.434,4.119-5.051,4.257-7.021c0.161-1.991-0.467-3.355-0.467-3.355
								s0.22,0.478,0.597,1.297c0.367,0.835,0.885,2.017,1.496,3.409c0.604,1.406,1.256,3.065,1.951,4.809
								c0.676,1.756,1.322,3.643,1.897,5.503c1.092,3.757,1.798,7.481,0.977,10.299
								C138.036,335.172,135.744,337.037,130.835,336.812z"/>
						</g>
						<g>
							<path style="fill:#519A85;" d="M131.16,336.432c0,0-0.993-0.45-2.513-1.079c-1.518-0.632-3.64-1.358-5.844-1.986
								c-4.451-1.172-9.489-1.809-11.828,1.511c-2.305,3.334-5.05,4.155-7.256,4.08c-2.185-0.097-3.807-1.053-3.807-1.053
								s0.562,0.329,1.526,0.892c0.961,0.561,2.344,1.306,4.001,2.088c1.651,0.793,3.55,1.668,5.591,2.409
								c2.03,0.762,4.16,1.464,6.272,1.932c4.194,0.998,8.241,1.162,10.897-0.073C130.867,343.914,132.172,341.215,131.16,336.432z"
								/>
						</g>
					</g>
					<g>
						<g>
							<path style="fill:#519A85;" d="M111.698,318.318c0,0-0.12-0.243-0.33-0.671c-0.209-0.426-0.489-1.048-0.783-1.821
								c-0.582-1.548-1.346-3.59-1.745-5.819c-0.892-4.425-0.508-9.254,3.073-11.119c3.561-1.91,4.876-4.33,5.351-6.196
								c0.52-1.897,0.17-3.287,0.17-3.287s0.124,0.489,0.335,1.326c0.186,0.851,0.49,2.046,0.84,3.475
								c0.323,1.46,0.693,3.139,1.082,4.897c0.187,0.893,0.362,1.818,0.518,2.76c0.164,0.938,0.341,1.875,0.469,2.823
								c0.486,3.804,0.702,7.523-0.486,10.218C119.02,317.576,116.537,319.173,111.698,318.318z"/>
						</g>
						<g>
							<path style="fill:#519A85;" d="M112.069,317.983c0,0-0.232-0.142-0.64-0.391c-0.412-0.242-1.002-0.588-1.713-1.006
								c-1.412-0.837-3.428-1.842-5.523-2.791c-4.247-1.811-9.154-3.285-11.981-0.37c-2.79,2.947-5.647,3.293-7.858,2.826
								c-2.168-0.5-3.647-1.772-3.647-1.772s0.513,0.438,1.392,1.187c0.873,0.75,2.157,1.746,3.707,2.829
								c1.539,1.097,3.323,2.302,5.277,3.381c0.969,0.549,1.964,1.086,2.968,1.592c1.01,0.498,2.054,0.936,3.075,1.343
								c4.072,1.653,8.133,2.346,10.919,1.473C110.857,325.397,112.457,322.856,112.069,317.983z"/>
						</g>
					</g>
					<g>
						<g>
							<path style="fill:#519A85;" d="M95.625,297.115c0,0-0.075-0.261-0.206-0.719c-0.128-0.457-0.3-1.115-0.44-1.931
								c-0.279-1.632-0.657-3.771-0.607-6.027c0.052-2.255,0.284-4.514,1.182-6.371c0.855-1.849,2.181-3.228,4.123-3.789
								c3.871-1.147,5.684-3.192,6.575-4.831c0.941-1.678,0.946-3.036,0.946-3.036s0.001,0.478,0.003,1.298
								c-0.032,0.836-0.006,1.991-0.002,3.381c-0.003,0.697-0.015,1.455-0.041,2.26c-0.02,0.806,0.02,1.659,0.004,2.544
								c-0.007,0.884-0.031,1.8-0.077,2.732c-0.028,0.924-0.044,1.851-0.108,2.784c-0.06,0.931-0.149,1.861-0.274,2.772
								c-0.117,0.907-0.233,1.778-0.417,2.62c-0.359,1.68-0.905,3.211-1.719,4.423C102.946,297.632,100.232,298.82,95.625,297.115z"
								/>
						</g>
						<g>
							<path style="fill:#519A85;" d="M96.05,296.851c0,0-0.203-0.181-0.561-0.498c-0.362-0.313-0.88-0.76-1.505-1.299
								c-1.227-1.088-3.033-2.45-4.906-3.798c-1.872-1.35-4.044-2.548-6.026-3.261c-2.015-0.685-4.013-0.776-5.685,0.373
								c-3.333,2.322-6.222,2.017-8.322,1.012c-2.039-1.015-3.223-2.665-3.223-2.665s0.413,0.566,1.121,1.537
								c0.693,0.967,1.777,2.279,3.103,3.746c0.658,0.735,1.372,1.511,2.127,2.301c0.759,0.786,1.604,1.527,2.454,2.292
								c0.856,0.757,1.74,1.505,2.638,2.221c0.914,0.705,1.871,1.358,2.812,1.971c0.944,0.611,1.887,1.17,2.814,1.658
								c0.935,0.483,1.886,0.871,2.788,1.187c1.813,0.626,3.5,0.906,4.961,0.719C93.582,303.969,95.56,301.718,96.05,296.851z"/>
						</g>
					</g>
					<g>
						<g>
							<path style="fill:#519A85;" d="M84.257,273.075c0,0-0.012-0.271-0.032-0.747c-0.007-0.478-0.047-1.148,0.02-1.976
								c0.124-1.652,0.29-3.818,0.878-5.979c0.621-2.17,1.423-4.274,2.744-5.841c1.303-1.569,2.94-2.562,4.958-2.612
								c4.032-0.129,6.312-1.639,7.597-2.984c0.621-0.68,1.095-1.341,1.342-1.83c0.26-0.49,0.349-0.812,0.349-0.812
								s-0.126,0.453-0.341,1.229c-0.259,0.781-0.486,1.89-0.864,3.224c-0.184,0.667-0.394,1.391-0.627,2.157
								c-0.188,0.761-0.399,1.564-0.635,2.395c-0.233,0.83-0.501,1.69-0.777,2.559c-0.238,0.861-0.502,1.734-0.793,2.602
								c-0.291,0.868-0.61,1.731-0.958,2.57c-0.31,0.828-0.649,1.632-1.025,2.393c-0.752,1.52-1.646,2.868-2.722,3.856
								C91.261,275.224,88.325,275.815,84.257,273.075z"/>
						</g>
						<g>
							<path style="fill:#519A85;" d="M84.731,272.919c0,0-0.156-0.223-0.429-0.616c-0.27-0.393-0.706-0.938-1.163-1.616
								c-0.927-1.352-2.338-3.118-3.841-4.891c-1.469-1.778-3.272-3.509-5.026-4.697c-1.77-1.179-3.677-1.779-5.588-1.091
								c-3.816,1.403-6.529,0.365-8.301-1.157c-0.905-0.748-1.468-1.624-1.873-2.295c-0.393-0.674-0.573-1.154-0.573-1.154
								s0.253,0.664,0.686,1.801c0.413,1.134,1.173,2.682,2.059,4.456c0.448,0.886,0.939,1.825,1.468,2.788
								c0.574,0.951,1.186,1.926,1.828,2.897c0.645,0.971,1.31,1.942,2.014,2.878c0.74,0.925,1.502,1.821,2.275,2.664
								c0.773,0.843,1.556,1.632,2.342,2.346c0.823,0.701,1.648,1.327,2.46,1.857c1.626,1.062,3.206,1.742,4.67,1.902
								C80.716,279.306,83.104,277.541,84.731,272.919z"/>
						</g>
					</g>
					<g>
						<g>
							<path style="fill:#519A85;" d="M79.277,246.964c0,0,0.205-1.071,0.695-2.629c0.564-1.558,1.332-3.597,2.461-5.505
								c1.202-1.904,2.571-3.685,4.261-4.794c1.701-1.114,3.553-1.573,5.501-1.049c3.9,1.014,6.517,0.262,8.126-0.586
								c0.785-0.441,1.417-0.896,1.801-1.259c0.391-0.361,0.568-0.621,0.568-0.621s-0.251,0.367-0.681,0.995
								c-0.483,0.616-0.982,1.563-1.734,2.661c-0.375,0.558-0.779,1.159-1.201,1.787c-0.39,0.646-0.816,1.327-1.274,2.029
								c-0.447,0.704-0.974,1.421-1.442,2.161c-0.463,0.74-0.954,1.487-1.472,2.224c-0.508,0.738-1.081,1.463-1.604,2.166
								c-0.518,0.703-1.06,1.378-1.626,2.004c-1.124,1.25-2.368,2.308-3.638,2.977C85.51,250.844,82.458,250.676,79.277,246.964z"/>
						</g>
						<g>
							<path style="fill:#519A85;" d="M79.776,246.937c0,0-0.356-1.025-0.959-2.574c-0.529-1.551-1.388-3.634-2.375-5.762
								c-0.915-2.123-2.15-4.304-3.511-5.961c-1.352-1.651-3.002-2.795-5.031-2.677c-4.062,0.268-6.356-1.544-7.601-3.581
								c-0.646-1.009-0.93-2.051-1.104-2.84c-0.168-0.789-0.192-1.322-0.192-1.322s0.037,0.737,0.102,1.999
								c0.038,1.255,0.338,3.015,0.653,5.036c0.176,1.01,0.348,2.086,0.606,3.192c0.281,1.105,0.593,2.243,0.936,3.385
								c0.354,1.141,0.691,2.291,1.146,3.406c0.46,1.115,0.949,2.206,1.463,3.246c0.524,1.039,1.034,2.031,1.638,2.939
								c0.609,0.907,1.238,1.74,1.881,2.475c1.293,1.471,2.614,2.554,4.013,3.09C74.269,252.072,76.967,250.973,79.776,246.937z"/>
						</g>
					</g>
					<g>
						<g>
							<path style="fill:#519A85;" d="M81.931,220.537c0,0,0.14-0.232,0.386-0.641c0.259-0.402,0.598-0.982,1.095-1.635
								c1.043-1.291,2.413-2.973,4.111-4.38c1.774-1.377,3.632-2.576,5.605-3.006c1.976-0.437,3.86-0.199,5.507,0.965
								c3.312,2.291,6.007,2.539,7.769,2.376c0.865-0.097,1.611-0.295,2.083-0.488c0.48-0.189,0.729-0.363,0.729-0.363
								s-1.407,0.988-3.417,2.399c-0.531,0.359-1.103,0.744-1.701,1.148c-0.564,0.437-1.174,0.893-1.825,1.36
								c-0.64,0.473-1.365,0.933-2.039,1.437c-0.661,0.51-1.354,1.02-2.071,1.516c-0.706,0.501-1.481,0.97-2.189,1.445
								c-0.701,0.477-1.42,0.925-2.147,1.323c-1.444,0.799-2.963,1.394-4.362,1.637C86.691,226.104,83.789,225.055,81.931,220.537z"
								/>
						</g>
						<g>
							<path style="fill:#519A85;" d="M82.413,220.668c0,0-0.006-0.272-0.017-0.749c-0.021-0.481-0.051-1.168-0.088-1.998
								c0.006-1.635-0.147-3.897-0.361-6.244c-0.139-2.314-0.576-4.819-1.258-6.859c-0.685-2.033-1.821-3.703-3.767-4.294
								c-3.91-1.145-5.409-3.685-5.823-6.099c-0.229-1.212-0.123-2.295-0.004-3.114c0.126-0.813,0.294-1.331,0.294-1.331
								s-0.229,0.717-0.621,1.946c-0.402,1.2-0.797,3.034-1.233,5.102c-0.206,1.042-0.433,2.147-0.598,3.308
								c-0.128,1.176-0.236,2.395-0.314,3.626c-0.066,1.234-0.152,2.467-0.109,3.708c0.058,1.244,0.153,2.473,0.292,3.657
								c0.15,1.186,0.297,2.319,0.577,3.398c0.287,1.081,0.618,2.093,0.994,3.012c0.764,1.841,1.667,3.299,2.846,4.248
								C75.597,223.907,78.478,223.626,82.413,220.668z"/>
						</g>
					</g>
					<g>
						<g>
							<path style="fill:#519A85;" d="M93.408,196.618c0,0,0.214-0.167,0.591-0.46c0.372-0.293,0.939-0.681,1.633-1.12
								c1.368-0.894,3.3-1.944,5.382-2.723c4.188-1.577,9.009-1.895,11.398,1.354c2.432,3.223,5.015,4.169,6.931,4.378
								c1.958,0.206,3.289-0.378,3.289-0.378s-0.467,0.205-1.268,0.556c-0.821,0.342-1.96,0.816-3.307,1.347
								c-2.704,1.062-6.203,2.365-9.673,3.363c-3.433,0.995-6.944,1.72-9.746,1.163c-1.409-0.292-2.658-0.93-3.595-2.111
								C94.109,200.808,93.461,199.064,93.408,196.618z"/>
						</g>
						<g>
							<path style="fill:#519A85;" d="M93.812,196.912c0,0,0.36-1.025,0.908-2.583c0.517-1.58,1.221-3.697,1.787-5.968
								c1.114-4.522,1.864-9.611-1.454-11.958c-3.344-2.307-4.106-5.087-3.956-7.343c0.145-2.214,1.151-3.862,1.151-3.862
								s-0.346,0.571-0.938,1.55c-0.58,0.969-1.378,2.384-2.245,4.095c-1.737,3.407-3.719,8.048-4.732,12.568
								c-1.011,4.554-1.049,8.846,0.459,11.452c0.739,1.301,1.831,2.175,3.316,2.532C89.595,197.753,91.448,197.582,93.812,196.912z
								"/>
						</g>
					</g>
					<g>
						<g>
							<path style="fill:#519A85;" d="M111.667,177.276c0,0,0.974-0.486,2.509-1.081c1.528-0.603,3.625-1.298,5.845-1.761
								c4.438-0.921,9.406-0.908,11.425,2.597c2.024,3.506,4.583,4.646,6.654,4.898c2.073,0.25,3.643-0.378,3.643-0.378
								s-0.547,0.218-1.483,0.591c-0.94,0.362-2.285,0.862-3.856,1.383c-3.158,1.055-7.245,2.204-11.133,2.805
								c-3.894,0.6-7.663,0.692-10.313-0.499C112.324,184.64,110.733,182.094,111.667,177.276z"/>
						</g>
						<g>
							<path style="fill:#519A85;" d="M111.997,177.651c0,0,0.599-0.905,1.426-2.333c0.82-1.436,1.884-3.384,2.771-5.501
								c1.78-4.234,2.856-9.107-0.17-11.803c-3.027-2.691-3.579-5.461-3.391-7.543c0.187-2.08,1.128-3.485,1.128-3.485
								s-0.327,0.49-0.887,1.328c-0.551,0.845-1.31,2.047-2.185,3.511c-1.734,2.916-3.916,6.862-5.443,10.865
								c-1.528,3.998-2.346,7.988-1.48,10.817C104.631,176.356,107.111,177.959,111.997,177.651z"/>
						</g>
					</g>
					<g>
						<g>
							<path style="fill:#519A85;" d="M132.197,160.349c0,0,15.889-7.077,19.914-0.05c4.026,7.027,10.306,4.514,10.306,4.514
								S127.688,179.428,132.197,160.349z"/>
						</g>
						<g>
							<path style="fill:#519A85;" d="M144.34,149.032c0,0,6.388-15.095,16.167-16.265c9.779-1.171,12.568-7.052,12.568-7.052
								S158.323,158.452,144.34,149.032z"/>
						</g>
						<g>
							<path style="fill:#519A85;" d="M132.511,160.738c0,0,10.229-14.067,4.194-19.468c-6.035-5.401-2.27-11.02-2.27-11.02
								S112.911,161.176,132.511,160.738z"/>
						</g>
					</g>
				</g>
				<g>
					<g>
						<g>
							<path style="fill:#519A85;" d="M290.35,369.368l-1.746-1.416c6.158-7.595,13.3-14.386,21.227-20.186
								c6.874-5.082,14.993-9.609,25.548-14.243c4.765-2.096,9.66-4.06,14.395-5.959c4.085-1.64,8.309-3.334,12.411-5.099
								c10.356-4.389,18.322-8.742,25.074-13.703l0.751-0.532l3.406-2.819c0.476-0.386,0.892-0.729,1.253-1.105
								c0.459-0.459,0.909-0.895,1.358-1.33c1.289-1.246,2.507-2.424,3.561-3.769c3.023-3.338,5.659-7.262,7.888-11.724
								c4.004-8.059,6.314-17.511,6.678-27.331c0.358-9.279-0.994-18.707-4.021-28.024c-2.724-8.492-6.879-17.142-12.352-25.713
								l1.895-1.21c5.577,8.734,9.815,17.561,12.597,26.233c3.107,9.565,4.497,19.256,4.129,28.799
								c-0.377,10.136-2.768,19.904-6.913,28.248c-2.32,4.648-5.073,8.742-8.183,12.171c-1.097,1.404-2.428,2.691-3.714,3.935
								c-0.441,0.427-0.883,0.854-1.316,1.287c-0.435,0.454-0.928,0.861-1.435,1.272l-3.466,2.863l-0.8,0.571
								c-6.881,5.057-14.991,9.492-25.508,13.948c-4.122,1.773-8.359,3.473-12.457,5.117c-4.718,1.893-9.597,3.851-14.327,5.931
								c-10.398,4.565-18.38,9.013-25.121,13.996C303.388,355.267,296.387,361.924,290.35,369.368z"/>
						</g>
					</g>
					<g>
						<g>
							<path style="fill:#519A85;" d="M302.057,355.651c0,0,3.576-1.686,7.657-2.158c4.097-0.507,8.523,0.262,10.342,3.865
								c1.862,3.567,4.116,5.058,5.814,5.713c1.718,0.665,2.947,0.469,2.947,0.469s-0.431,0.072-1.172,0.194
								c-0.753,0.104-1.808,0.276-3.092,0.441c-2.552,0.345-5.959,0.791-9.378,0.958c-3.416,0.151-6.867,0.016-9.427-1.234
								C303.211,362.65,301.484,360.206,302.057,355.651z"/>
						</g>
						<g>
							<path style="fill:#519A85;" d="M302.39,356.024c0,0,2.015-3.315,3.635-7.258c1.58-3.938,2.877-8.605,0.11-11.55
								c-2.815-2.918-3.162-5.707-2.715-7.822c0.448-2.093,1.648-3.453,1.648-3.453s-0.41,0.472-1.113,1.283
								c-0.697,0.807-1.635,1.998-2.674,3.418c-2.069,2.857-4.428,6.747-5.881,10.643c-1.471,3.894-2.047,7.749-1.055,10.487
								C295.336,354.536,297.823,356.104,302.39,356.024z"/>
						</g>
					</g>
					<g>
						<g>
							<path style="fill:#519A85;" d="M321.351,341.809c0,0,0.968-0.201,2.447-0.374c1.49-0.156,3.436-0.35,5.517-0.139
								c2.07,0.186,4.159,0.606,5.898,1.516c1.748,0.913,3.1,2.259,3.672,4.192c1.154,3.862,3.167,5.701,4.842,6.594
								c0.842,0.446,1.599,0.651,2.162,0.746c0.575,0.097,0.934,0.082,0.934,0.082s-0.496,0.022-1.346,0.059
								c-0.828,0.031-2.007,0.057-3.413,0.043c-0.704-0.016-1.461-0.034-2.256-0.053c-0.769-0.02-1.58-0.055-2.418-0.108
								c-1.676-0.105-3.48-0.298-5.155-0.536c-1.701-0.251-3.418-0.629-4.965-1.14c-1.527-0.494-2.938-1.168-4.05-2.043
								C321.004,348.891,319.833,346.145,321.351,341.809z"/>
						</g>
						<g>
							<path style="fill:#519A85;" d="M321.597,342.243c0,0,0.682-0.685,1.65-1.824c0.974-1.12,2.21-2.776,3.405-4.496
								c1.18-1.743,2.251-3.745,2.778-5.679c0.523-1.927,0.487-3.86-0.611-5.559c-2.207-3.392-2.113-6.171-1.419-8.121
								c0.343-0.972,0.835-1.742,1.23-2.254c0.389-0.503,0.694-0.767,0.694-0.767s-0.423,0.347-1.156,1.01
								c-0.736,0.667-1.762,1.625-2.923,2.784c-0.582,0.584-1.19,1.2-1.825,1.89c-0.64,0.703-1.293,1.445-1.94,2.217
								c-1.292,1.543-2.556,3.176-3.652,4.961c-1.09,1.756-1.995,3.5-2.572,5.199c-0.572,1.725-0.826,3.335-0.629,4.788
								C315.014,339.302,317.12,341.363,321.597,342.243z"/>
						</g>
					</g>
					<g>
						<g>
							<path style="fill:#519A85;" d="M342.852,331.711c0,0,3.896-0.375,8.029,0.256c4.125,0.641,8.542,2.209,9.516,6.128
								c0.96,3.925,2.996,5.794,4.809,6.674c1.797,0.895,3.425,0.742,3.425,0.742s-0.561,0.047-1.523,0.129
								c-0.94,0.048-2.271,0.097-3.837,0.102c-0.783,0.003-1.625-0.005-2.506-0.03c-0.865-0.034-1.762-0.09-2.684-0.165
								c-1.833-0.152-3.788-0.383-5.592-0.76c-1.824-0.372-3.591-0.869-5.156-1.53c-1.545-0.657-2.886-1.474-3.891-2.501
								C341.44,338.704,340.795,335.816,342.852,331.711z"/>
						</g>
						<g>
							<path style="fill:#519A85;" d="M343.041,332.173c0,0,3.046-2.456,5.603-5.77c2.57-3.312,4.559-7.499,2.516-10.984
								c-2.028-3.49-1.928-6.229-1.338-8.087c0.613-1.86,1.635-2.843,1.635-2.843s-0.362,0.343-0.983,0.932
								c-0.646,0.598-1.551,1.459-2.588,2.514c-0.519,0.527-1.071,1.103-1.64,1.718c-0.587,0.619-1.2,1.279-1.809,1.968
								c-1.226,1.383-2.419,2.866-3.553,4.441c-1.116,1.565-2.087,3.172-2.777,4.747c-0.701,1.591-1.119,3.155-1.111,4.599
								C337.008,328.304,338.71,330.73,343.041,332.173z"/>
						</g>
					</g>
					<g>
						<g>
							<path style="fill:#519A85;" d="M364.801,322.693c0,0,0.964-0.127,2.458-0.202c1.498-0.066,3.519-0.094,5.627,0.027
								c4.219,0.364,8.937,1.239,10.349,5.046c1.356,3.814,3.696,5.384,5.782,5.947c1.035,0.304,2.005,0.276,2.711,0.213
								c0.706-0.067,1.15-0.194,1.15-0.194s-0.614,0.172-1.668,0.468c-1.057,0.317-2.526,0.543-4.257,0.841
								c-3.472,0.622-7.864,0.864-11.853,0.472c-1.988-0.232-3.887-0.608-5.544-1.178c-1.655-0.574-3.06-1.385-4.098-2.389
								C363.381,329.717,362.835,326.822,364.801,322.693z"/>
						</g>
						<g>
							<path style="fill:#519A85;" d="M365.003,323.151c0,0,0.744-0.644,1.779-1.712c1.04-1.058,2.364-2.554,3.471-4.307
								c2.307-3.435,3.574-7.797,1.169-11.012c-2.368-3.261-2.684-5.937-2.493-7.744c0.119-0.899,0.296-1.622,0.483-2.103
								c0.183-0.482,0.353-0.734,0.353-0.734s-0.238,0.354-0.647,0.962c-0.37,0.633-1.073,1.473-1.793,2.551
								c-1.414,2.165-3.523,5.049-5.264,8.158c-0.903,1.537-1.697,3.13-2.258,4.701c-0.565,1.57-0.933,3.092-0.887,4.529
								C358.997,319.296,360.627,321.789,365.003,323.151z"/>
						</g>
					</g>
					<g>
						<g>
							<path style="fill:#519A85;" d="M385.614,311.46c0,0,0.918-0.306,2.38-0.674c1.496-0.323,3.397-0.911,5.537-1.29
								c1.054-0.209,2.208-0.311,3.269-0.46c1.074-0.133,2.153-0.187,3.186-0.116c2.062,0.146,3.953,0.78,5.145,2.411
								c1.187,1.636,2.463,2.658,3.75,3.23c1.283,0.571,2.586,0.718,3.694,0.549c2.244-0.297,3.917-1.498,3.917-1.498
								s-0.573,0.425-1.566,1.106c-0.998,0.674-2.376,1.654-4.141,2.505c-1.744,0.877-3.72,1.878-5.83,2.648
								c-2.137,0.714-4.356,1.33-6.481,1.734c-2.152,0.312-4.227,0.381-6.047,0.204c-0.912-0.095-1.758-0.243-2.534-0.492
								c-0.781-0.263-1.484-0.596-2.094-1.003c-1.221-0.814-2.069-1.928-2.449-3.38C384.968,315.484,385.074,313.718,385.614,311.46
								z"/>
						</g>
						<g>
							<path style="fill:#519A85;" d="M385.898,311.871c0,0,0.611-0.778,1.412-2.016c0.836-1.194,1.7-3.037,2.351-4.938
								c0.308-0.969,0.616-1.908,0.703-2.939c0.102-1.017,0.099-2.014-0.044-2.955c-0.284-1.885-1.143-3.527-2.748-4.754
								c-1.599-1.232-2.669-2.457-3.415-3.557c-0.746-1.104-1.138-2.075-1.439-2.926c-0.562-1.678-0.365-2.672-0.365-2.672
								s-0.073,0.355-0.198,0.965c-0.125,0.617-0.23,1.554-0.546,2.601c-0.289,1.063-0.533,2.387-0.884,3.807
								c-0.405,1.387-0.797,2.93-1.117,4.547c-0.401,1.566-0.761,3.176-0.919,4.77c-0.084,0.793-0.112,1.587-0.099,2.342
								c0.001,0.745,0.067,1.47,0.218,2.162c0.301,1.382,0.935,2.629,2.066,3.617C382.005,310.909,383.649,311.665,385.898,311.871z
								"/>
						</g>
					</g>
					<g>
						<g>
							<path style="fill:#519A85;" d="M402.448,295.046c0,0,0.198-0.146,0.547-0.402c0.341-0.262,0.829-0.638,1.419-1.092
								c0.599-0.451,1.331-0.965,2.134-1.52c0.767-0.575,1.623-1.182,2.541-1.773c0.939-0.582,1.852-1.19,2.814-1.722
								c0.961-0.532,1.959-0.995,2.954-1.329c1.923-0.684,3.893-0.847,5.634,0.193c3.467,2.116,6.309,1.704,8.334,0.582
								c1.967-1.111,3.019-2.823,3.019-2.823s-0.369,0.584-1.004,1.587c-0.617,0.991-1.618,2.357-2.841,3.877
								c-1.174,1.53-2.746,3.175-4.382,4.763c-0.798,0.801-1.752,1.546-2.65,2.271c-0.929,0.714-1.809,1.413-2.797,2.002
								c-3.828,2.438-7.83,3.643-10.653,3.009c-1.447-0.336-2.623-1.115-3.449-2.355
								C403.235,299.068,402.672,297.292,402.448,295.046z"/>
						</g>
						<g>
							<path style="fill:#519A85;" d="M402.86,295.33c0,0,0.074-0.232,0.203-0.64c0.117-0.413,0.239-1.028,0.374-1.755
								c0.129-0.731,0.267-1.576,0.346-2.493c0.043-0.938,0.045-1.937-0.022-2.934c-0.047-0.986-0.25-2.017-0.529-2.98
								c-0.28-0.964-0.649-1.868-1.134-2.669c-1.03-1.637-2.482-2.819-4.431-3.321c-3.881-1.04-5.895-2.781-6.989-4.08
								c-1.134-1.346-1.334-2.389-1.334-2.389s1.127,6.232,2.144,11.851c0.608,3.036,1.271,6.185,2.848,8.585
								c0.762,1.172,1.763,2.134,3.165,2.704C398.894,295.771,400.606,295.885,402.86,295.33z"/>
						</g>
					</g>
					<g>
						<g>
							<path style="fill:#519A85;" d="M411.723,273.459c0,0,0.455-0.849,1.265-2.118c0.853-1.263,1.853-2.99,3.194-4.72
								c1.212-1.739,2.755-3.499,4.326-4.773c1.601-1.267,3.413-2.048,5.397-1.653c3.953,0.822,6.554-0.467,8.046-2.104
								c1.492-1.621,1.969-3.498,1.969-3.498s-0.168,0.644-0.456,1.75c-0.305,1.096-0.725,2.63-1.407,4.389
								c-0.328,0.878-0.693,1.81-1.092,2.767c-0.423,0.958-0.909,1.943-1.411,2.924c-0.971,1.963-2.254,3.915-3.538,5.649
								c-1.335,1.734-2.819,3.247-4.265,4.377c-1.522,1.124-3.032,1.864-4.472,2.102
								C416.387,279.041,413.813,277.473,411.723,273.459z"/>
						</g>
						<g>
							<path style="fill:#519A85;" d="M412.21,273.568c0,0-0.089-0.99-0.357-2.442c-0.225-1.444-0.839-3.379-1.626-5.21
								c-0.914-1.852-2.006-3.601-3.535-4.815c-1.498-1.218-3.251-1.878-5.259-1.696c-4.029,0.33-6.442-0.685-7.955-1.642
								c-1.513-0.974-2.014-1.98-2.014-1.98s0.176,0.357,0.478,0.971c0.311,0.616,0.807,1.497,1.322,2.546
								c0.27,0.526,0.573,1.098,0.908,1.706c0.315,0.608,0.646,1.245,0.984,1.898c0.748,1.331,1.432,2.718,2.291,4.127
								c0.81,1.393,1.651,2.768,2.639,4.026c0.916,1.232,1.951,2.343,3.122,3.151C405.55,275.809,408.446,276.267,412.21,273.568z"
								/>
						</g>
					</g>
					<g>
						<g>
							<path style="fill:#519A85;" d="M413.118,249.939c0,0,0.183-0.95,0.58-2.405c0.366-1.451,0.899-3.413,1.606-5.446
								c0.681-2.025,1.595-4.145,2.744-5.805c1.179-1.666,2.698-2.92,4.709-3.119c4.028-0.372,6.131-2.316,7.107-4.253
								c0.499-0.965,0.739-1.918,0.853-2.628c0.121-0.714,0.094-1.17,0.094-1.17s0.042,0.639,0.038,1.746
								c-0.009,1.108,0.008,2.644-0.136,4.464c-0.156,1.83-0.338,3.857-0.772,6.031c-0.207,1.075-0.427,2.155-0.711,3.221
								c-0.304,1.07-0.64,2.12-1.009,3.128c-1.497,4.045-3.713,7.364-6.331,8.695C419.273,253.752,416.396,253.108,413.118,249.939z
								"/>
						</g>
						<g>
							<path style="fill:#519A85;" d="M413.616,249.892c0,0-0.379-0.914-1.065-2.219c-0.716-1.3-1.785-2.979-3.142-4.489
								c-1.384-1.51-2.986-2.855-4.795-3.595c-1.78-0.748-3.648-0.892-5.519-0.133c-3.748,1.491-6.384,1.19-8.126,0.647
								c-0.864-0.28-1.49-0.641-1.899-0.934c-0.403-0.293-0.617-0.516-0.617-0.516s0.278,0.316,0.755,0.857
								c0.467,0.541,1.209,1.301,2.036,2.208c0.812,0.904,1.867,1.967,2.89,3.039c0.525,0.542,1.103,1.096,1.677,1.66
								c0.555,0.567,1.139,1.137,1.747,1.697c2.409,2.233,5.013,4.385,7.714,5.214C407.971,254.135,410.92,253.616,413.616,249.892z
								"/>
						</g>
					</g>
					<g>
						<g>
							<path style="fill:#519A85;" d="M407.643,226.988c0,0-0.056-0.975-0.071-2.474c-0.05-1.484,0.019-3.536,0.174-5.647
								c0.203-2.133,0.548-4.351,1.32-6.231c0.788-1.886,1.967-3.414,3.883-4.077c3.839-1.309,5.429-3.613,6.009-5.673
								c0.597-2.064,0.161-3.771,0.161-3.771s0.161,0.591,0.392,1.612c0.216,1.036,0.5,2.502,0.768,4.216
								c0.493,3.47,0.847,7.981,0.345,12.15c-0.221,2.067-0.658,4.049-1.306,5.751c-0.626,1.692-1.482,3.111-2.564,4.108
								c-1.073,0.994-2.355,1.556-3.859,1.585C411.392,228.567,409.675,228.063,407.643,226.988z"/>
						</g>
						<g>
							<path style="fill:#519A85;" d="M400.458,214.162c0,0-0.809-0.472-1.991-1.297c-1.216-0.807-2.787-1.968-4.397-3.331
								c-3.186-2.764-6.409-6.342-6.502-10.802c-0.022-2.251-0.465-4.075-1.023-5.578c-0.595-1.478-1.333-2.619-2.064-3.461
								c-1.482-1.672-2.856-2.203-2.856-2.203s1.918,0.676,4.657,1.999c2.727,1.328,6.269,3.344,9.423,5.959
								c3.137,2.616,5.91,5.81,7.062,9.142c0.59,1.653,0.748,3.35,0.425,4.954C402.846,211.166,401.965,212.726,400.458,214.162z"/>
						</g>
						<g>
							<path style="fill:#519A85;" d="M408.11,226.811c0,0-0.586-0.787-1.609-1.861c-1.058-1.06-2.467-2.435-4.199-3.567
								c-1.684-1.154-3.631-2.085-5.539-2.417c-1.895-0.342-3.788-0.067-5.425,1.102c-3.285,2.32-5.983,2.602-7.81,2.386
								c-1.815-0.229-2.86-0.995-2.86-0.995s0.362,0.271,0.983,0.737c0.606,0.466,1.483,1.117,2.566,1.869
								c2.104,1.515,4.97,3.46,7.898,5.155c1.496,0.838,3,1.612,4.495,2.191c1.517,0.573,3.005,0.955,4.414,0.99
								c1.419,0.031,2.781-0.292,4.003-1.158C406.25,230.374,407.342,228.958,408.11,226.811z"/>
						</g>
					</g>
				</g>
				<g>
					<g>
						<path style="fill:#FFFFFF;" d="M146.817,349.039c0,0-7.63-20.92-0.738-20.92C152.97,328.119,146.817,349.039,146.817,349.039z
							"/>
						<path style="fill:#FFFFFF;" d="M146.793,348.912c0,0-20.188-9.398-15.315-14.271
							C136.351,329.768,146.793,348.912,146.793,348.912z"/>
						<path style="fill:#FFFFFF;" d="M146.84,348.912c0,0,20.188-9.398,15.315-14.271
							C157.282,329.768,146.84,348.912,146.84,348.912z"/>
					</g>
					<g>
						<path style="fill:#FFFFFF;" d="M146.816,348.793c0,0,7.63,20.92,0.738,20.92C140.663,369.714,146.816,348.793,146.816,348.793
							z"/>
						<path style="fill:#FFFFFF;" d="M146.84,348.92c0,0,20.188,9.398,15.315,14.271C157.282,368.064,146.84,348.92,146.84,348.92z"
							/>
						<path style="fill:#FFFFFF;" d="M146.732,348.762c0,0,21.309-6.464,20.929,0.417
							C167.281,356.059,146.732,348.762,146.732,348.762z"/>
						<path style="fill:#FFFFFF;" d="M146.869,348.762c0,0-21.309-6.464-20.929,0.417
							C126.32,356.059,146.869,348.762,146.869,348.762z"/>
						<path style="fill:#FFFFFF;" d="M146.793,348.92c0,0-20.188,9.398-15.315,14.271
							C136.351,368.064,146.793,348.92,146.793,348.92z"/>
					</g>
					<circle style="fill:#F9EE4F;" cx="146.817" cy="349.039" r="2.215"/>
				</g>
				<g>
					<g>
						<path style="fill:#FFFFFF;" d="M175.624,197.012c0,0-4.533-12.429-0.439-12.429
							C179.28,184.583,175.624,197.012,175.624,197.012z"/>
						<path style="fill:#FFFFFF;" d="M175.61,196.936c0,0-11.994-5.583-9.099-8.479C169.406,185.562,175.61,196.936,175.61,196.936z
							"/>
						<path style="fill:#FFFFFF;" d="M175.637,196.936c0,0,11.994-5.583,9.099-8.479
							C181.841,185.562,175.637,196.936,175.637,196.936z"/>
					</g>
					<g>
						<path style="fill:#FFFFFF;" d="M175.623,196.866c0,0,4.533,12.429,0.439,12.429
							C171.967,209.295,175.623,196.866,175.623,196.866z"/>
						<path style="fill:#FFFFFF;" d="M175.637,196.941c0,0,11.994,5.583,9.099,8.479
							C181.841,208.315,175.637,196.941,175.637,196.941z"/>
						<path style="fill:#FFFFFF;" d="M175.574,196.847c0,0,12.661-3.841,12.435,0.248
							C187.782,201.183,175.574,196.847,175.574,196.847z"/>
						<path style="fill:#FFFFFF;" d="M175.655,196.847c0,0-12.66-3.841-12.435,0.248
							C163.446,201.183,175.655,196.847,175.655,196.847z"/>
						<path style="fill:#FFFFFF;" d="M175.61,196.941c0,0-11.994,5.583-9.099,8.479C169.406,208.315,175.61,196.941,175.61,196.941z
							"/>
					</g>
					<path style="fill:#F9EE4F;" d="M176.94,197.012c0,0.727-0.589,1.316-1.316,1.316c-0.727,0-1.316-0.589-1.316-1.316
						c0-0.727,0.589-1.316,1.316-1.316C176.351,195.696,176.94,196.285,176.94,197.012z"/>
				</g>
				<g>
					<g>
						<path style="fill:#FFFFFF;" d="M341.684,237.553c0,0-4.533-12.429-0.439-12.429
							C345.339,225.124,341.684,237.553,341.684,237.553z"/>
						<path style="fill:#FFFFFF;" d="M341.669,237.478c0,0-11.994-5.584-9.099-8.479
							C335.465,226.104,341.669,237.478,341.669,237.478z"/>
						<path style="fill:#FFFFFF;" d="M341.697,237.478c0,0,11.994-5.584,9.099-8.479
							C347.901,226.104,341.697,237.478,341.697,237.478z"/>
					</g>
					<g>
						<path style="fill:#FFFFFF;" d="M341.683,237.407c0,0,4.533,12.429,0.439,12.429
							C338.027,249.836,341.683,237.407,341.683,237.407z"/>
						<path style="fill:#FFFFFF;" d="M341.697,237.483c0,0,11.994,5.584,9.099,8.479
							C347.901,248.857,341.697,237.483,341.697,237.483z"/>
						<path style="fill:#FFFFFF;" d="M341.633,237.388c0,0,12.66-3.841,12.435,0.247
							C353.842,241.724,341.633,237.388,341.633,237.388z"/>
						<path style="fill:#FFFFFF;" d="M341.715,237.388c0,0-12.66-3.841-12.435,0.247
							C329.506,241.724,341.715,237.388,341.715,237.388z"/>
						<path style="fill:#FFFFFF;" d="M341.669,237.483c0,0-11.994,5.584-9.099,8.479
							C335.465,248.857,341.669,237.483,341.669,237.483z"/>
					</g>
					<path style="fill:#F9EE4F;" d="M343,237.553c0,0.727-0.589,1.316-1.316,1.316s-1.316-0.589-1.316-1.316
						c0-0.727,0.589-1.316,1.316-1.316S343,236.827,343,237.553z"/>
				</g>
				<g>
					<g>
						<path style="fill:#FFFFFF;" d="M289.483,369.039c0,0-7.63-20.92-0.738-20.92C295.637,348.119,289.483,369.039,289.483,369.039
							z"/>
						<path style="fill:#FFFFFF;" d="M289.459,368.912c0,0-20.188-9.398-15.315-14.271
							C279.017,349.768,289.459,368.912,289.459,368.912z"/>
						<path style="fill:#FFFFFF;" d="M289.506,368.912c0,0,20.188-9.398,15.315-14.271
							C299.948,349.768,289.506,368.912,289.506,368.912z"/>
					</g>
					<g>
						<path style="fill:#FFFFFF;" d="M289.482,368.793c0,0,7.63,20.92,0.738,20.92C283.329,389.714,289.482,368.793,289.482,368.793
							z"/>
						<path style="fill:#FFFFFF;" d="M289.506,368.92c0,0,20.188,9.398,15.315,14.271
							C299.948,388.064,289.506,368.92,289.506,368.92z"/>
						<path style="fill:#FFFFFF;" d="M289.399,368.762c0,0,21.309-6.464,20.929,0.417
							C309.948,376.059,289.399,368.762,289.399,368.762z"/>
						<path style="fill:#FFFFFF;" d="M289.536,368.762c0,0-21.309-6.464-20.929,0.417
							C268.987,376.059,289.536,368.762,289.536,368.762z"/>
						<path style="fill:#FFFFFF;" d="M289.459,368.92c0,0-20.188,9.398-15.315,14.271
							C279.017,388.064,289.459,368.92,289.459,368.92z"/>
					</g>
					<circle style="fill:#F9EE4F;" cx="289.483" cy="369.039" r="2.215"/>
				</g>
				<g>
					<g>
						<path style="fill:#FFFFFF;" d="M80.478,249.999c0,0-5.105-13.999-0.494-13.999C84.595,236,80.478,249.999,80.478,249.999z"/>
						<path style="fill:#FFFFFF;" d="M80.462,249.913c0,0-13.508-6.288-10.248-9.549C73.475,237.104,80.462,249.913,80.462,249.913z
							"/>
						<path style="fill:#FFFFFF;" d="M80.493,249.913c0,0,13.509-6.288,10.248-9.549C87.481,237.104,80.493,249.913,80.493,249.913z
							"/>
					</g>
					<g>
						<path style="fill:#FFFFFF;" d="M80.477,249.834c0,0,5.105,13.999,0.494,13.999C76.36,263.832,80.477,249.834,80.477,249.834z"
							/>
						<path style="fill:#FFFFFF;" d="M80.493,249.919c0,0,13.509,6.288,10.248,9.549C87.481,262.729,80.493,249.919,80.493,249.919z
							"/>
						<path style="fill:#FFFFFF;" d="M80.422,249.813c0,0,14.259-4.325,14.004,0.279C94.172,254.696,80.422,249.813,80.422,249.813z
							"/>
						<path style="fill:#FFFFFF;" d="M80.513,249.813c0,0-14.259-4.325-14.004,0.279C66.763,254.696,80.513,249.813,80.513,249.813z
							"/>
						<path style="fill:#FFFFFF;" d="M80.462,249.919c0,0-13.508,6.288-10.248,9.549C73.475,262.729,80.462,249.919,80.462,249.919z
							"/>
					</g>
					<circle style="fill:#F9EE4F;" cx="80.478" cy="249.999" r="1.482"/>
				</g>
				<g>
					<g>
						<path style="fill:#FFFFFF;" d="M412.478,249.999c0,0-5.105-13.999-0.494-13.999C416.595,236,412.478,249.999,412.478,249.999z
							"/>
						<path style="fill:#FFFFFF;" d="M412.462,249.913c0,0-13.509-6.288-10.248-9.549
							C405.475,237.104,412.462,249.913,412.462,249.913z"/>
						<path style="fill:#FFFFFF;" d="M412.493,249.913c0,0,13.509-6.288,10.248-9.549
							C419.481,237.104,412.493,249.913,412.493,249.913z"/>
					</g>
					<g>
						<path style="fill:#FFFFFF;" d="M412.477,249.834c0,0,5.105,13.999,0.494,13.999
							C408.36,263.832,412.477,249.834,412.477,249.834z"/>
						<path style="fill:#FFFFFF;" d="M412.493,249.919c0,0,13.509,6.288,10.248,9.549
							C419.481,262.729,412.493,249.919,412.493,249.919z"/>
						<path style="fill:#FFFFFF;" d="M412.422,249.813c0,0,14.259-4.325,14.004,0.279
							C426.172,254.696,412.422,249.813,412.422,249.813z"/>
						<path style="fill:#FFFFFF;" d="M412.513,249.813c0,0-14.259-4.325-14.004,0.279
							C398.763,254.696,412.513,249.813,412.513,249.813z"/>
						<path style="fill:#FFFFFF;" d="M412.462,249.919c0,0-13.509,6.288-10.248,9.549
							C405.475,262.729,412.462,249.919,412.462,249.919z"/>
					</g>
					<circle style="fill:#F9EE4F;" cx="412.478" cy="249.999" r="1.482"/>
				</g>
			</g>
			<g>
				<g>
					<path style="fill:#FFFFFF;" d="M275.893,261.049c0,0-9.554-26.196-0.925-26.196
						C283.597,234.854,275.893,261.049,275.893,261.049z"/>
					<path style="fill:#FFFFFF;" d="M275.862,260.89c0,0-25.279-11.768-19.177-17.869
						C262.787,236.919,275.862,260.89,275.862,260.89z"/>
					<path style="fill:#FFFFFF;" d="M275.921,260.89c0,0,25.279-11.768,19.177-17.869
						C288.996,236.919,275.921,260.89,275.921,260.89z"/>
				</g>
				<g>
					<path style="fill:#FFFFFF;" d="M275.891,260.741c0,0,9.554,26.196,0.925,26.196
						C268.186,286.937,275.891,260.741,275.891,260.741z"/>
					<path style="fill:#FFFFFF;" d="M275.921,260.901c0,0,25.279,11.768,19.177,17.869
						C288.996,284.872,275.921,260.901,275.921,260.901z"/>
					<path style="fill:#FFFFFF;" d="M275.787,260.702c0,0,26.683-8.094,26.207,0.522
						C301.518,269.839,275.787,260.702,275.787,260.702z"/>
					<path style="fill:#FFFFFF;" d="M275.958,260.702c0,0-26.683-8.094-26.207,0.522
						C250.227,269.839,275.958,260.702,275.958,260.702z"/>
					<path style="fill:#FFFFFF;" d="M275.862,260.901c0,0-25.279,11.768-19.177,17.869
						C262.787,284.872,275.862,260.901,275.862,260.901z"/>
				</g>
				<path style="fill:#F9EE4F;" d="M278.666,261.049c0,1.532-1.242,2.774-2.774,2.774c-1.532,0-2.774-1.242-2.774-2.774
					c0-1.532,1.242-2.774,2.774-2.774C277.424,258.276,278.666,259.517,278.666,261.049z"/>
			</g>
			<g>
				<polygon style="fill:#4774E8;" points="265.272,211.565 273.895,214.439 202.762,504.719 193.421,502.563 				"/>
				<polygon style="fill:#4774E8;" points="269.826,272.48 250.79,279.333 250.79,274.003 269.826,267.15 				"/>
				<polygon style="fill:#4774E8;" points="260.308,304.461 241.272,311.314 241.272,305.984 260.308,299.131 				"/>
				<polygon style="fill:#4774E8;" points="250.029,358.525 230.993,365.378 230.993,360.048 250.029,353.195 				"/>
				<polygon style="fill:#4774E8;" points="226.805,452.941 207.769,459.794 207.769,454.464 226.805,447.611 				"/>
				<g>
					<path style="fill:#F6C367;" d="M253.455,272.004c0,0,2.284-3.141,6.282-6.853c3.998-3.712,4.854-5.711,7.138-4.854
						s2.855,5.14,2.57,6.567c-0.286,1.428-7.424,3.426-7.424,3.426l-3.712,6.853L253.455,272.004z"/>
					<path style="fill:#FA6D54;" d="M189.494,471.787c0,0-3.046,3.617-2.665,6.663c0.381,3.046,6.282,4.378,7.995,5.901
						c1.713,1.523,3.807,5.901,8.376,7.043c4.569,1.142,9.518,2.475,12.183,0.761c2.665-1.713-4.569-7.805-4.569-7.805
						L189.494,471.787z"/>
					<path style="fill:#FA6D54;" d="M200.154,441.329c0,0-1.523,3.807-1.142,5.33c0.381,1.523,5.901,5.901,8.376,6.282
						c2.475,0.381,11.993,0.381,13.325-1.142c1.332-1.523-2.284-4.188-7.995-4.759L200.154,441.329z"/>
					<path style="fill:#10134B;" d="M216.525,337.583c0,0-4.188,19.036-3.997,19.988c0.19,0.952-7.043,45.305-7.234,51.016
						c-0.19,5.711-1.333,13.325-2.855,16.181c-1.523,2.855-3.046,31.98-2.665,36.168c0.381,4.188,2.284,10.47,4.378,14.658
						c2.094,4.188,7.614,8.947,7.234,10.47c-0.381,1.523-9.137,1.904-12.373-1.523c-3.236-3.426-9.708-11.041-9.518-12.754
						c0.19-1.713,1.523-8.376,0-15.419c-1.523-7.043-4.569-18.465-2.094-28.744c2.475-10.279,1.904-26.27,0.381-30.458
						c-1.523-4.188-1.904-16.561-4.188-19.988c-2.284-3.427-7.805-15.419-2.284-25.889c5.52-10.47,7.614-16.561,7.614-16.561
						s14.658-1.523,26.841,3.046"/>
					<path style="fill:#10134B;" d="M210.815,344.056c0,0,19.607,28.554,25.318,35.407c5.711,6.853,10.089,11.993,7.424,17.323
						c-2.665,5.33-32.361,29.125-34.455,32.742c-2.094,3.617-3.046,6.091-2.094,8.185c0.952,2.094,3.998,8.757,5.711,9.328
						c1.713,0.571-4.188,2.475-8.186-0.761c-3.997-3.236-10.47-13.706-7.995-17.703c2.475-3.998,8.376-7.805,11.612-14.277
						s10.089-16.561,16.942-19.036l-15.99-15.419L210.815,344.056z"/>
					<path style="fill:#F6C367;" d="M206.246,242.975c2.296,1.312,5.52,3.807,5.901,6.282c0.381,2.475,1.333,4.378,4.378,4.188
						c0,0,1.523,0,0.381,1.904c0,0,2.665,8.376,0.571,11.041c-2.094,2.665-5.52,1.523-6.091,3.807
						c-0.571,2.284-3.998,7.995-3.998,7.995l-9.518-6.282l1.333-7.614c0,0-9.328-1.523-9.708-8.376
						C189.114,249.066,198.251,238.406,206.246,242.975z"/>
					<path style="fill:#D7A861;" d="M196.918,264.866c0.428,0,2.284-0.571,2.284-0.571s7.71,4.997,12.706,4.569
						c0,0-1.904,6.092-4.521,9.328l-11.041-6.758L196.918,264.866z"/>
					<path style="fill:#F6C367;" d="M232.896,313.693l6.567-3.997c0,0,3.997,0.285,5.425-2.284c1.428-2.57,2.284-3.998,3.426-3.998
						c1.142,0,2.855-1.142,2.855-1.142s-2.57-3.712-4.854-3.141s-5.425,4.854-7.71,5.996c-2.284,1.142-5.711,2.57-5.711,2.57
						V313.693z"/>
					<polygon style="fill:#A24533;" points="218.048,312.266 232.896,307.697 235.752,315.406 216.049,325.4 					"/>
					<path style="fill:#FA6D54;" d="M196.347,270.577l12.373,7.995l6.092,3.046c0,0,21.511,3.426,22.843,3.236
						c1.333-0.19,15.99-13.706,15.99-13.706s5.52-0.571,7.043,5.14c0,0-11.802,16.371-14.658,18.275
						c-2.855,1.904-26.079,2.475-26.079,2.475s3.998,5.711,3.998,9.328c0,3.617-8.185,23.605-8.185,23.605s-0.381-2.094,0,1.142
						c0.381,3.236,2.665,6.663,0,6.663c-2.665,0-21.32,0-26.841-3.046c0,0-1.713-3.046,0.571-7.995
						c2.284-4.949-1.713-14.467-2.094-19.036c-0.381-4.569-3.046-26.27-2.665-32.361
						C185.116,269.244,193.682,268.673,196.347,270.577z"/>
					<path style="fill:#715A9A;" d="M205.485,242.594c0,0-3.998,10.279-1.142,19.417c2.855,9.137-5.938,11.519-6.509,20.656
						c-0.571,9.137,4.995,38.12-3,39.833c-7.995,1.713-17.903-9.663-17.332-23.94c0.571-14.277,5.673-37.849,7.424-48.542
						C187.167,236.333,203,234.333,205.485,242.594z"/>
					<path style="fill:#F6C367;" d="M206.167,260.583c0,1.887-1.53,3.417-3.417,3.417s-3.417-1.53-3.417-3.417
						c0-1.887,1.53-3.417,3.417-3.417S206.167,258.696,206.167,260.583z"/>
					<path style="fill:#715A9A;" d="M203.833,241c0,0,4,4.833,2.833,8.5c-1.167,3.667,0.5,9.167,0.667,10.5
						c0.167,1.333-4.333-2.5-5.833-4.5S203.833,241,203.833,241z"/>
				</g>
				<polygon style="fill:#4774E8;" points="280.867,201.667 290.004,204.712 214.622,512.333 204.723,510.049 				"/>
				<polygon style="fill:#4774E8;" points="280.105,235.17 261.07,242.023 261.07,236.693 280.105,229.84 				"/>
			</g>
			<g>
				<g>
					<g>
						<path style="fill:#10134B;" d="M420.475,221.511c0,0,3.607,19.012-6.51,48.801l23.606,66.358l-8.431,5.023l-33.724-71.943
							v-30.351L420.475,221.511z"/>
						<path style="fill:#10134B;" d="M383.614,221.975c0,0,0.562,116.346,1.686,118.032l7.307-1.124L405.593,230.8L383.614,221.975z
							"/>
						<polygon style="fill:#715A9A;" points="406.72,149.065 409.742,149.391 406.526,151.77 						"/>
						<polygon style="fill:#715A9A;" points="392.521,152.941 390.668,148.457 393.404,148.218 						"/>
						<path style="fill:#FA6D54;" d="M409.742,149.391l0.833,5.063c0,0,8.624,4.099,11.313,6.032c2.689,1.933,3.136,4.793,3.676,9.4
							c0.539,4.607,0.058,12.838,1.711,15.567c1.653,2.729-1.262,6.979,0.059,9.793c1.321,2.814,1.853,4.483-1.485,4.026
							c-3.339-0.457-9.708,0.391-10.915,5.09l2.27,7.776c0,0,0.927,2.242,0.401,3.509c-0.526,1.267-20.095-1.877-24.594,0.193
							c-4.499,2.07-11.503,5.7-12.445,3.675c-0.942-2.025-4.374-48.168-5.1-50.178c-0.726-2.01-22.164-6.376-24.854-8.309
							c-2.689-1.933-4.62-5.335-4.62-5.335s5.704-0.678,7.56-2.285c1.855-1.607-0.415-6.338-0.415-6.338s2.226-0.71,3.632,0.913
							c1.406,1.624,2.705,1.717,3.972,2.243c1.267,0.526,5.951,1.95,8.378,1.471c2.427-0.478,12.428-0.413,14.623-0.691
							c2.195-0.277,4.173,2.475,4.869,1.872c0.696-0.603,2.057-4.42,2.057-4.42L409.742,149.391z"/>
						<g>
							<path style="fill:#4F75C4;" d="M449.645,223.818c0,0-35.201-36.894-79.328-3.953
								C370.317,219.865,400.077,253.759,449.645,223.818z"/>
							<g>
								<path style="fill:#EFEFF1;" d="M420.475,221.511l-0.301-0.401c5.745,0.398,11.102,0.811,15.633,1.18l0.439,0.586
									l-0.08,0.096c-4.515-0.369-9.88-0.785-15.653-1.187C420.538,221.692,420.536,221.593,420.475,221.511z"/>
								<path style="fill:#EFEFF1;" d="M436.921,222.691l-0.248-0.33c6.587,0.54,11.275,0.972,12.612,1.097
									c0.235,0.23,0.36,0.36,0.36,0.36c-0.161,0.097-0.319,0.186-0.48,0.282c-1.391-0.13-5.909-0.545-12.232-1.065
									C436.992,222.925,436.998,222.794,436.921,222.691z"/>
								<path style="fill:#EFEFF1;" d="M386.291,220.072c-5.882-0.129-11.276-0.116-15.686,0.106
									c-0.188-0.199-0.288-0.312-0.288-0.312c0.161-0.12,0.321-0.23,0.482-0.349c4.512-0.218,10.025-0.223,16.025-0.083
									L386.291,220.072z"/>
								<path style="fill:#EFEFF1;" d="M404.028,220.331l-0.168-0.224c5.237,0.276,10.481,0.603,15.456,0.944l0.484,0.645
									l-0.032,0.038c-5.066-0.35-10.423-0.686-15.776-0.969l0.025-0.03C404.114,220.618,404.118,220.452,404.028,220.331z"/>
								<path style="fill:#EFEFF1;" d="M387.609,219.452c4.924,0.124,10.151,0.34,15.405,0.611l0.339,0.452l-0.173,0.207
									c-5.483-0.284-10.941-0.509-16.057-0.632l0.448-0.537C387.595,219.525,387.596,219.487,387.609,219.452z"/>
								<path style="fill:#EFEFF1;" d="M435.807,222.29l-9.711-12.95c0.375,0.131,0.746,0.264,1.114,0.4l9.464,12.62l0.248,0.33
									c0.077,0.103,0.071,0.234,0.012,0.344c-0.01,0.019-0.008,0.043-0.023,0.06l-8.626,10.339
									c-0.372,0.109-0.74,0.211-1.109,0.313l8.99-10.775l0.08-0.096L435.807,222.29z"/>
								<path style="fill:#EFEFF1;" d="M419.316,221.051l-11.147-14.865c0.277,0.002,0.551,0.01,0.826,0.016l11.179,14.908
									l0.301,0.401c0.061,0.082,0.063,0.181,0.038,0.275c-0.012,0.045-0.018,0.092-0.049,0.129l-11.878,14.236
									c-0.277-0.007-0.555-0.011-0.83-0.021l12.011-14.395l0.032-0.038L419.316,221.051z"/>
								<path style="fill:#EFEFF1;" d="M403.013,220.063l-9.038-12.051c0.23-0.061,0.457-0.113,0.686-0.17l9.198,12.266l0.168,0.224
									c0.09,0.121,0.086,0.288-0.01,0.404l-0.025,0.03l-10.764,12.902c-0.225-0.069-0.451-0.138-0.673-0.21l10.625-12.734
									l0.173-0.207L403.013,220.063z"/>
								<path style="fill:#EFEFF1;" d="M386.906,219.335l-5.013-6.685c0.196-0.099,0.393-0.205,0.588-0.301l5.1,6.801
									c0.067,0.09,0.065,0.201,0.028,0.302c-0.013,0.035-0.014,0.072-0.039,0.102l-0.448,0.537l-6.57,7.874
									c-0.19-0.115-0.374-0.23-0.559-0.346l6.297-7.548l0.533-0.638L386.906,219.335z"/>
							</g>
						</g>
						<path style="fill:#F6C367;" d="M427.487,199.171l-0.179,26.742c0,0,4.202,8.132,4.124,9.214
							c-0.078,1.082-4.16,6.444-4.856,7.047c-0.696,0.603-3.956-2.459-3.956-2.459s0.463,2.643-0.851,2.767
							c-1.314,0.123-1.901-0.789-1.885-4.051c0.017-3.262-0.725-5.055-0.059-8.27c0.666-3.215,1.269-5.564,1.269-5.564
							l-6.161-20.236C414.933,204.361,414.534,197.807,427.487,199.171z"/>
						<path style="fill:#F6C367;" d="M353.137,147.069c0,0-16.224-19.436-18.387-22.636c-2.163-3.201-5.656-6.061-6.938-6.371
							c-1.283-0.31-2.211,0.494-2.211,0.494s-2.055-1.67-2.967-1.083c-0.912,0.587-1.021,2.102-0.001,3.045s4.327,3.356,4.327,3.356
							s1.111,5.735,2.981,6.957s3.323,2.196,3.323,2.196s10.242,20.964,12.73,22.665
							C345.992,155.692,358.838,155.526,353.137,147.069z"/>
						<path style="fill:#F6C367;" d="M324.255,119.112c0,0-3.184-1.099-3.556,1.05s1.266,3.571,1.266,3.571
							s-0.356,1.932,1.282,3.355c1.638,1.423,5.688,2.583,5.688,2.583l-0.971-7.683L324.255,119.112z"/>
						<path style="fill:#F6C367;" d="M392.81,121.638c-3.082,2.037-4.341,4.42-4.249,6.166c0.092,1.747,0.323,4.591,0.323,4.591
							s-1.716,1.182-1.809,2.48l1.704,1.264c0,0-1.096,7.698,1.006,8.719c2.102,1.021,3.821,2.069,3.821,2.069l-1.084,6.013
							l4.62,5.334l9.385-6.505l0.327-7.59c0,0,5.382-8.314,5.353-13.972C412.178,124.551,401.716,115.752,392.81,121.638z"/>
						<path style="fill:#10134B;" d="M388.75,125.75c0,0,7.13,0.342,7.5,2c0.37,1.658,2.929,4.406,3.555,4.777
							c0.626,0.371,2.539,0.998,2.178,3.745c-0.36,2.747,0.275,2.674,0.88,3.652c1.9,3.073,4.137,7.575,4.137,7.575l0,0
							c0,0,1.743,0.706,3.75-2.25c2.007-2.956,8-14,5-22.25c-2.735-7.522-17.986-11.101-23.25-10.5
							C387.236,113.101,378,119,388.75,125.75z"/>
						<path style="fill:#F6C367;" d="M397.59,133.836c-0.129,1.793,1.22,3.35,3.013,3.479c1.793,0.129,3.35-1.22,3.479-3.013
							c0.129-1.793-1.22-3.35-3.013-3.479C399.276,130.695,397.719,132.044,397.59,133.836z"/>
					</g>
					<path style="fill:#10134B;" d="M437.009,336.073l-8.501,5.34c0,0-8.852-1.405-12.225,0.843
						c-3.372,2.248-3.372,6.183-3.372,6.183l17.705-0.281l10.328-4.215C440.944,343.941,440.382,337.759,437.009,336.073z"/>
					<path style="fill:#10134B;" d="M392.607,338.883c0,0,2.248,7.307,2.248,8.993c0,1.686-7.869,0.562-9.555,0
						c-1.686-0.562-5.059,1.124-5.059,1.124H369c0,0,0.562-9.555,6.183-9.555c5.621,0,10.117,0.562,10.117,0.562l1.686-5.059
						L392.607,338.883z"/>
				</g>
				<g>
					<g>
						<path style="fill:#FFFFFF;" d="M323.747,120.76c0,0,5.138-11.464,1.26-11.742C321.13,108.74,323.747,120.76,323.747,120.76z"
							/>
						<path style="fill:#FFFFFF;" d="M323.766,120.689c0,0,11.739-4.473,9.194-7.412
							C330.415,110.339,323.766,120.689,323.766,120.689z"/>
						<path style="fill:#FFFFFF;" d="M323.74,120.687c0,0-10.98-6.103-8.041-8.648C318.637,109.494,323.74,120.687,323.74,120.687z"
							/>
					</g>
					<g>
						<path style="fill:#FFFFFF;" d="M323.758,120.621c0,0-5.138,11.464-1.26,11.742
							C326.375,132.642,323.758,120.621,323.758,120.621z"/>
						<path style="fill:#FFFFFF;" d="M323.739,120.692c0,0-11.739,4.473-9.194,7.412
							C317.09,131.042,323.739,120.692,323.739,120.692z"/>
						<path style="fill:#FFFFFF;" d="M323.806,120.607c0,0-11.73-4.498-11.794-0.611
							C311.949,123.884,323.806,120.607,323.806,120.607z"/>
						<path style="fill:#FFFFFF;" d="M323.729,120.602c0,0,12.252-2.777,11.76,1.08
							C334.997,125.538,323.729,120.602,323.729,120.602z"/>
						<path style="fill:#FFFFFF;" d="M323.766,120.694c0,0,10.98,6.103,8.041,8.648
							C328.868,131.888,323.766,120.694,323.766,120.694z"/>
					</g>
					<path style="fill:#F9EE4F;" d="M322.501,120.671c-0.049,0.688,0.469,1.286,1.157,1.336c0.688,0.049,1.286-0.469,1.336-1.157
						c0.049-0.688-0.469-1.287-1.157-1.336C323.148,119.464,322.55,119.982,322.501,120.671z"/>
				</g>
			</g>
			<path style="fill:#4774E8;" d="M455.667,352.333h-99.333c-1.833,0-3.333-1.5-3.333-3.333l0,0c0-1.833,1.5-3.333,3.333-3.333
				h99.333c1.833,0,3.333,1.5,3.333,3.333l0,0C459,350.833,457.5,352.333,455.667,352.333z"/>
			<path style="fill:#4774E8;" d="M369,349"/>
			<rect x="369" y="349" style="fill:#4774E8;" width="4.666" height="155.333"/>
			<rect x="440.334" y="349" style="fill:#4774E8;" width="4.666" height="155.333"/>
			<rect x="371" y="373" style="fill:#4774E8;" width="72" height="3.333"/>
			<rect x="371" y="403" style="fill:#4774E8;" width="72" height="3.333"/>
			<rect x="371" y="433" style="fill:#4774E8;" width="72" height="3.333"/>
			<rect x="371" y="463" style="fill:#4774E8;" width="72" height="3.333"/>
			<g>
				<g>
					<path style="fill:#DCBB43;" d="M270.867,63c-14.4,7.069-20.131,12.8-27.2,27.2c-7.069-14.4-12.8-20.131-27.2-27.2
						c14.4-7.069,20.131-12.8,27.2-27.2C250.736,50.2,256.467,55.931,270.867,63z"/>
					<path style="fill:#DCBB43;" d="M262.9,82.233c-15.181-5.184-23.286-5.184-38.467,0c5.184-15.181,5.184-23.286,0-38.467
						c15.181,5.184,23.285,5.184,38.467,0C257.716,58.948,257.716,67.052,262.9,82.233z"/>
				</g>
				<circle style="fill:#F9EB67;" cx="243.667" cy="63" r="14.667"/>
			</g>
		</g>
	</g>
</g>
</svg>
