<svg xmlns="http://www.w3.org/2000/svg" xmlns:xlink="http://www.w3.org/1999/xlink" viewBox="0 0 500 500" xml:space="preserve"><g/><defs><path id="a" d="M0 0h500v500H0z"/></defs><clipPath id="b"><use xlink:href="#a" style="overflow:visible"/></clipPath><g style="clip-path:url(#b)"><circle style="fill:#d0f288" cx="250" cy="250" r="201"/><circle style="fill:#f8ffd2" cx="250" cy="250" r="174"/><path style="fill:#558b6e" d="m145.593 92.521-3.585.386 3.815 2.822zm16.842 4.596 2.198-5.318-3.245-.283z"/><path style="fill:#8ad300" d="m142.008 92.907-.988 6.005s-10.229 4.862-13.419 7.155c-3.189 2.293-3.72 5.685-4.36 11.149s-.068 15.227-2.029 18.464 1.497 8.278-.069 11.615-2.198 5.318 1.762 4.776 11.514.464 12.946 6.037l-2.692 9.223s-1.099 2.659-.475 4.162 23.834-2.226 29.171.229 13.643 6.761 14.761 4.359 5.188-57.133 6.049-59.517 26.29-7.563 29.479-9.856 5.48-6.327 5.48-6.327-6.766-.804-8.967-2.711.493-7.517.493-7.517-2.641-.842-4.308 1.083c-1.668 1.926-3.208 2.036-4.711 2.66s-7.058 2.313-9.937 1.745c-2.879-.567-14.741-.49-17.345-.819s-4.949 2.935-5.775 2.22c-.825-.715-2.44-5.243-2.44-5.243z"/><path style="fill:#f6c367" d="m120.961 151.952.212 31.719s-4.984 9.646-4.892 10.929 4.935 7.644 5.76 8.359 4.693-2.917 4.693-2.917-.549 3.135 1.01 3.282c1.559.146 2.255-.936 2.235-4.805s.86-5.996.07-9.809-1.506-6.6-1.506-6.6l7.308-24.003s.474-7.774-14.89-6.155m88.189-61.799s19.244-23.053 21.809-26.849 6.708-7.189 8.23-7.557c1.522-.367 2.622.586 2.622.586s2.438-1.981 3.52-1.285 1.211 2.493.001 3.612-5.132 3.98-5.132 3.98-1.318 6.803-3.536 8.252-3.941 2.605-3.941 2.605-12.148 24.866-15.099 26.884c0 0-15.237-.197-8.474-10.228"/><path style="fill:#f6c367" d="M243.406 56.992s3.776-1.303 4.217 1.245-1.502 4.236-1.502 4.236.422 2.292-1.52 3.979c-1.943 1.688-6.746 3.064-6.746 3.064l1.152-9.113zm-81.314 2.997c3.656 2.417 5.149 5.242 5.04 7.314s-.383 5.446-.383 5.446 2.036 1.402 2.146 2.942l-2.021 1.499s1.3 9.13-1.193 10.341-4.532 2.454-4.532 2.454l1.286 7.132-5.48 6.327-11.132-7.715-.388-9.002s-6.384-9.862-6.349-16.573c.034-6.71 12.443-17.147 23.006-10.165"/><path style="fill:#1a2074" d="M163.995 61.336s-9.213 1.048-9.652 3.015c-.439 1.966.195 8.113-.547 8.553s-3.011 1.184-2.584 4.443-.326 3.171-1.044 4.332c-2.254 3.645-4.618 5.749-4.618 5.749s-.175.134-.115-.701c0 0-2.761-4.317-5.141-7.823s-3.345-11.564-.391-16.226c2.955-4.663 9.871-8.061 16.114-7.348s10.452 2.733 7.978 6.006"/><circle style="fill:#f6c367" cx="152.572" cy="74.734" r="3.86"/><circle style="fill:#5d8736" cx="250" cy="250" r="149"/><path style="fill:#a9c46c" d="M220.184 317.998c-14.99-6.433-20.348-17.195-31.917-21.899-11.632-4.695-11.102.116-16.232 4.595-5.113 4.458-2.527-3.926-6.807-2.396-4.292 1.514-5.083-2.737-8.097-6.615-3.007-3.87-2.629-3.445-8.098-6.512-5.45-3.048-2.678-3.387-10.139-3.554-7.506-.182-7.354-8.707-6.376-13.613.894-4.864 18.859-8.304 29.703-10.577 10.76-2.19 22.077-17.111 29.473-28.329 7.384-11.174 21.048-12.318 13.003-14.559-8.207-2.305-17.036-14.586-22.876-17.307-6.018-2.749-9.042 4.891-5.911 10.071 3.228 5.223-4.484 4.505-5.933 13.395-1.205 8.899-8.316-2.105-10.289-7.219-2.036-5.162-10.281-2.839-10.327-7.981.091-5.124 9.566-7.643 19.991-13.983 10.242-6.421 1.374-12.439-9.025-6.336-10.483 5.999-21.287 3.824-33.619 2.276-4.98-.596-8.788-.36-12.157.391C105.856 206.766 101 227.815 101 250c0 2.292.06 4.57.162 6.837 1.895 1.401 3.769 2.735 5.276 4.059 6.378 5.457 2.191 2.711 7.857 8.652 5.838 6.006 6.309 5.255 6.635 9.253.397 3.991 10.086 6.68 17.154 7.721 7.106 1.036 10.428 2.353 15.721 9.225 5.386 6.879 16.238 8.688 18.384 10.483 2.189 1.806-2.271 6.696-3.106 14.116-.703 7.419 5.676 5.812 10.612 14.139 5.126 8.335 10.226 7.589 14.215 9.625 3.954 2.035 7.241 19.253 11.667 33.368 2.08 6.713 5.293 12.54 8.601 17.177q3.293.815 6.642 1.481c-1.166-2.653-2.132-5.546-2.269-8.254-1.299-9.008 11.212-27.831 19.665-30.576 7.715-2.564 2.421-17.276 4.91-26.203 2.531-8.963-8.026-6.658-22.942-13.105m39.162-146.66c8.677-11.404 6.157-15.794 12.344-24.827 6.091-9.039 10.736-18.056 5.893-17.201-4.952.873-3.284-7.356-8.425-7.637-5.094-.288-18.642 6.722-27.709 9.783-8.918 3.04-17.463 6.161-22.394 12.131-6.658 8.1-11.505 3.116-13.001 6.9-1.547 3.767-8.019 10.667 2.053 6.799 10.046-3.844 10.684-4.43 13.206 2.382 2.666 6.837 9.471 8.018 3.785 13.295-5.617 5.293-12.785 10.589-8.655 16.362 4.228 5.816 4.055 8.957 7.748 9.625 3.729.68 1.052-.941 5.847-7.003 4.779-6.072 6.403-7.518 12.989-11.062 6.516-3.559 7.492 1.828 16.319-9.547m-78.006-7.126c8.604.098 9.825-2.74 17.169-12.024 7.561-9.269 21.365-16.129 28.045-22.079 6.74-5.97-3.544-2.346-13.872.855-10.264 3.225-17.056 6.966-15.045 8.452 2.066 1.554-2.03 5.646-5.628 5.067-3.533-.549-1.739-3.205-9.632 3.607-.057-.031 4.01 3.367 4.781 7.679.796 4.294-5.537 3.142-6.581-.487-.91-3.619-5.086-1.963-4.681 1.325.548 3.355-3.056 7.576 5.444 7.605m156.411 80.336-.555-.008c-11.167-.076-15.977-7.56-19.113-2.916-3.152 4.65-.818 6.996-10.181 1.825-9.336-5.171-.099-7.013-7.056-8.905-6.92-1.9-21.22 2.325-21.238 2.329-5.079 2.82-17.387 18.749-19.745 22.943-2.393 4.204-1.396 18.191 4.771 24.751 6.137 6.554 1.997 11.232 15.403 6.113 13.45-5.134 19.086-1.875 22.208 6.536 3.165 8.414 8.794 17.246 4.512 24.286-4.229 7.041-2.112 12.173.74 16.345 2.806 4.166-2.419 7.979 2.996 16.297 5.295 8.294 3.049 12.989 11.004 6.734 7.993-6.266 11.802-9.174 14.232-19.411 2.349-10.225 15.235-3.693 11.884-16.942-3.598-13.257-12.284-9.468 1.87-22.162 14.129-12.688 27.933-18.703 17.745-20.903-10.223-2.228-7.662 8.361-15.253-6.343-7.497-14.191-13.606-19.082-12.442-23.548-2.561-3.153-2.658-5.265-1.782-7.021"/><path style="fill:#a9c46c" d="M369.915 161.558c-1.85.561-4.227.614-7.365.533-7.886-.241-16.803 10.626-22.913 9.018-5.976-1.643-14.891-8.918-8.324-7.266 6.608 1.654 12.965-.278 9.253-3.22-3.73-2.951-14.181-8.546-18.693-8.72-4.661-.184-10.884-1.347-16.838 10.691-6.049 12.033-15.046 17.645-10.729 21.867 4.335 4.23 6.783-.893 9.252-1.8 2.521-.906-1.725 10.728 3.767 8.453 5.506-2.269 7.808-5.479 4.973-10.195-2.816-4.712-.806-6.55 2.109-10.675 2.901-4.13 9.534-5.307 6.463-.296-3.094 5.015-8.507 11.895-.636 10.671 7.824-1.202 12.835-1.018 9.009 2.097-3.862 3.139-1.911 10.594-12.291 10.87-10.346.298-14.524 4.483-21.529 7.725-6.996 3.246-15.027 5.147-16.438 9.364-1.409 4.213 6.714 1.852 6.707 1.856-.467 6.554-2.31 9.357-9.111 7.978-6.771-1.372-7.837 4.247-5.64 9.376 2.194 5.132 4.487 10.739 10.079 3.243 5.571-7.495 7.837-11.243 14.171-13.57 6.359-2.317 2.448-12.631 14.896-2.261 12.569 10.385 17.115 18.328 25.318 16.554 8.196-1.758 9.693.119 7.134 4.713-1.278 2.276-3.734 3.873-4.787 5.983-.876 1.756-.779 3.868 1.783 7.023.57.703 1.26 1.456 2.092 2.27 9.058 8.846 12.312 16.661 13.147 21.728.827 5.071 4.168 2.261 14.08-3.268 9.892-5.521 15.956-7.748 11.697-11.397-4.268-3.653-.593-5.46-7.096-4.131-6.519 1.333-10.731-.052-12.298-5.578-1.589-5.528-2.139-6.906 5.044-2.248 7.171 4.655 14.733 7.866 23.553 6.127 4.097-.802 6.982.366 9.03 2.955.141-2.659.217-5.335.217-8.03-.001-33.115-10.811-63.703-29.086-88.44m-10.059 167.633c-3.717-1.698-3.715 4.698-7.663 8.05-3.934 3.35-3.575 4.262-3.229 10.199.301 5.931-2.73 6.53 1.861 6.312 4.657-.246 11.461-23.538 9.031-24.561"/><path style="fill:#519a85" d="M394.106 222.298c-1.089-3.529-2.533-6.698-4.293-9.418-2.055-3.036-4.336-5.695-6.765-7.882-4.891-4.41-10.9-8.132-17.864-11.065-5.83-2.519-12.492-4.525-20.377-6.138-7.465-1.479-14.404-2.42-21.208-2.873-13.881-1.018-28.235-.178-42.675 2.492l-.212.037c-7.034 1.205-14.309 2.45-21.657 1.835-4.146-.363-7.821-1.324-10.932-2.857-3.249-1.534-6.279-3.843-8.991-6.854l1.671-1.505c2.511 2.789 5.302 4.92 8.297 6.334 2.876 1.417 6.284 2.303 10.146 2.641 7.066.594 14.192-.629 21.086-1.81l.198-.034c14.614-2.702 29.161-3.552 43.225-2.522 6.894.46 13.928 1.413 21.495 2.913 8.044 1.645 14.85 3.697 20.815 6.274 7.186 3.026 13.41 6.884 18.486 11.463 2.565 2.309 4.965 5.105 7.136 8.312 1.885 2.913 3.416 6.27 4.565 9.996z"/><path style="fill:#519a85" d="m389.326 210.048-.405-1.893c-.281-1.121-.558-2.756-.807-4.518-.273-1.724-.398-3.72-.179-5.57.217-1.831.844-3.622 2.328-4.988 2.995-2.708 3.758-5.327 3.632-7.366a6.8 6.8 0 0 0-.563-2.41c-.247-.566-.477-.885-.477-.885s.328.438.851 1.203c.522.771 1.225 1.967 1.972 3.339.371.699.761 1.418 1.126 2.237a47 47 0 0 1 1.043 2.591c.324.896.634 1.786.882 2.726.238.963.435 1.926.578 2.871s.233 1.87.259 2.761a17.4 17.4 0 0 1-.195 2.66c-.261 1.674-.793 3.121-1.62 4.257a6.8 6.8 0 0 1-3.358 2.46c-1.403.493-3.111.662-5.067.525"/><path style="fill:#519a85" d="m389.726 209.748-.45-.262c-.299-.154-.685-.401-1.249-.598-1.111-.409-2.561-.913-4.202-1.06-1.679-.123-3.399-.014-5.024.63-1.645.649-3.102 1.755-4.254 3.395-2.332 3.256-4.421 4.778-5.786 5.584a7.4 7.4 0 0 1-1.624.715c-.386.111-.594.117-.594.117l.798-.021c.509-.018 1.16-.023 2.039-.072l2.98-.169 3.595-.267a59 59 0 0 0 1.983-.208 37 37 0 0 0 1.957-.25c1.331-.21 2.705-.506 4.007-.991 1.29-.482 2.496-1.142 3.552-2.186 1.024-1.03 1.837-2.409 2.272-4.357m-13.413-11.415s-.435-.604-1.038-1.626c-.596-1.037-1.439-2.365-2.164-3.992-.727-1.622-1.425-3.352-1.672-5.207-.248-1.845-.084-3.716.96-5.437 2.109-3.444 2.214-6.118 1.695-7.969-.509-1.847-1.58-2.84-1.58-2.84s1.519 1.347 3.424 3.443a50 50 0 0 1 2.985 3.799 33 33 0 0 1 2.667 4.618c.75 1.589 1.293 3.314 1.561 4.881.27 1.573.246 3.093-.141 4.474a7.2 7.2 0 0 1-2.215 3.534c-1.101.967-2.577 1.723-4.482 2.322"/><path style="fill:#519a85" d="M376.581 197.912s-.75-.138-1.901-.214c-1.142-.09-2.757.013-4.372.318-1.619.309-3.347.997-4.753 2.013-1.415 1.023-2.564 2.464-3.217 4.364-1.318 3.78-3.006 5.782-4.268 6.876-1.273 1.09-2.18 1.241-2.18 1.241s1.252-.17 3.205-.624a53 53 0 0 0 3.272-.778c1.206-.318 2.463-.659 3.798-1.119 1.327-.456 2.6-.923 3.886-1.555 1.282-.631 2.49-1.36 3.517-2.248 1.036-.898 1.918-1.981 2.488-3.338.574-1.363.829-3.001.525-4.936m-16.148-7.184s-2.234-1.976-4.294-4.786c-2.029-2.832-3.997-6.483-2.609-10.268 1.426-3.765 1.075-6.426.289-8.162-.749-1.71-1.829-2.448-1.829-2.448l1.022.707a55 55 0 0 1 2.643 2.016c1.069.866 2.26 1.889 3.426 3.098 1.166 1.197 2.312 2.475 3.297 3.904 1.984 2.782 3.303 5.892 3.166 8.698-.12 2.807-1.693 5.319-5.111 7.241"/><path style="fill:#519a85" d="M360.6 190.257s-.757.03-1.91.232c-1.154.205-2.677.525-4.238 1.207-3.12 1.278-6.188 3.791-6.736 7.762-.591 3.972-1.91 6.22-3.002 7.491-1.138 1.277-2.161 1.574-2.161 1.574l.961-.278a38 38 0 0 0 2.391-.822c.967-.365 2.103-.833 3.294-1.332a56 56 0 0 0 3.744-1.794c2.534-1.37 5.033-3.025 6.676-5.255 1.629-2.241 2.396-5.054.981-8.785m-17.236-4.009s-.63-.406-1.553-1.138c-.922-.733-2.149-1.74-3.332-3.018-2.356-2.517-4.646-5.963-3.698-9.875.975-3.905.367-6.5-.539-8.112-.9-1.614-2.062-2.251-2.062-2.251s1.633.843 3.82 2.288a50 50 0 0 1 3.546 2.645 34 34 0 0 1 3.551 3.408c2.199 2.482 3.871 5.293 4.157 8.08.291 2.807-.787 5.501-3.89 7.973"/><path style="fill:#519a85" d="M343.458 185.758s-.743.145-1.853.489c-1.111.344-2.596.94-4.062 1.768-2.956 1.69-5.785 4.473-5.879 8.488-.122 4.014-1.221 6.395-2.238 7.789-1.022 1.391-1.996 1.78-1.996 1.78s1.358-.504 3.334-1.449a51 51 0 0 0 3.335-1.677c1.205-.654 2.47-1.381 3.705-2.226 2.459-1.657 4.797-3.684 6.09-6.141 1.28-2.443 1.535-5.405-.436-8.821m-17.597-1.92s-.669-.35-1.666-.958c-.996-.606-2.319-1.537-3.633-2.651-2.609-2.262-5.25-5.435-4.722-9.415.556-3.987-.323-6.504-1.394-8.023-1.065-1.529-2.288-2.015-2.288-2.015l1.146.47c.719.323 1.73.798 2.893 1.407a39 39 0 0 1 3.804 2.253c1.328.877 2.668 1.882 3.889 3.008 2.45 2.209 4.407 4.863 4.988 7.593.592 2.735-.197 5.579-3.017 8.331"/><path style="fill:#519a85" d="M325.903 183.34s-.722.21-1.791.692c-1.07.484-2.479 1.176-3.852 2.185-2.76 1.985-5.279 5.063-4.948 9.074.304 4.004-.537 6.487-1.401 7.969-.87 1.472-1.797 1.986-1.797 1.986l.883-.48a49 49 0 0 0 2.281-1.308 81 81 0 0 0 3.14-2.022 50 50 0 0 0 3.451-2.61c2.274-1.934 4.381-4.161 5.406-6.753 1.016-2.587.948-5.509-1.372-8.733m-17.701-.037s-.702-.261-1.758-.777c-1.056-.529-2.468-1.264-3.893-2.25-2.835-1.99-5.796-4.836-5.694-8.87.132-4.013-1.012-6.451-2.237-7.829-1.22-1.384-2.491-1.756-2.491-1.756l1.192.355c.75.239 1.804.576 3.027 1.078 2.445.961 5.546 2.468 8.21 4.409 2.671 1.981 4.896 4.351 5.764 7.034.876 2.676.393 5.551-2.12 8.606"/><path style="fill:#519a85" d="M308.191 182.803s-.695.301-1.708.877a20.4 20.4 0 0 0-3.599 2.583c-2.536 2.248-4.712 5.606-3.959 9.539.727 3.959.151 6.489-.548 8.073-.705 1.58-1.574 2.17-1.574 2.17s4.871-3.157 9.013-7.428c2.057-2.12 3.917-4.62 4.662-7.275.737-2.664.359-5.599-2.287-8.539m-17.605 1.839s-.727-.197-1.832-.596a27 27 0 0 1-4.112-1.825c-3.034-1.648-6.11-4.279-6.365-8.294-.259-4.011-1.53-6.328-2.684-7.653a6.9 6.9 0 0 0-1.555-1.32 3.3 3.3 0 0 0-.657-.337l.989.319c.658.202 1.564.512 2.68.915 2.234.802 5.337 1.973 8.247 3.635 2.864 1.635 5.339 3.833 6.481 6.363 1.154 2.548.982 5.495-1.192 8.793"/><path style="fill:#519a85" d="M290.521 184.146s-.661.361-1.607 1.044c-.944.696-2.17 1.703-3.303 2.948-2.269 2.53-4.276 6.053-3.175 9.917 1.107 3.866.682 6.474-.072 8.122-.376.824-.805 1.406-1.174 1.782-.371.377-.643.547-.643.547s.392-.228 1.014-.646a46 46 0 0 0 2.421-1.785c1.898-1.517 4.092-3.609 5.864-5.945 1.809-2.376 3.402-4.981 3.855-7.747.447-2.746-.234-5.588-3.18-8.237m-17.417 3.261s-.736-.185-1.825-.599a18.2 18.2 0 0 1-3.894-2.029c-1.368-.965-2.653-2.208-3.483-3.752-.852-1.515-1.237-3.311-1.062-5.308.302-3.986-.281-6.51-.748-8.016-.256-.746-.484-1.257-.623-1.594-.152-.329-.257-.461-.257-.461l.413.515c.275.336.767.777 1.339 1.394 1.249 1.152 3.226 2.761 5.422 4.581 4.351 3.639 8.976 8.554 4.718 15.269"/><path style="fill:#519a85" d="M273.035 186.913s-.649.37-1.614 1.043c-.963.684-2.256 1.619-3.565 2.801-1.314 1.161-2.658 2.55-3.684 4.102-1.003 1.581-1.692 3.343-1.437 5.344.558 4.007-.579 6.489-2.047 7.949a6.3 6.3 0 0 1-2.141 1.456c-.625.266-1.056.355-1.056.355s.603-.114 1.609-.351c.998-.244 2.309-.685 3.832-1.238 2.944-1.184 6.339-3.077 8.845-5.442 2.526-2.359 4.315-5.105 4.748-7.868.429-2.773-.517-5.555-3.49-8.151m-17.632.603s-.643-.43-1.5-1.179c-.832-.824-1.879-1.933-2.56-3.408a8 8 0 0 1-.775-2.301 8.5 8.5 0 0 1-.103-2.461c.206-1.703.947-3.329 2.141-4.942 2.322-3.262 3.376-5.54 4.114-6.876.351-.653.573-1.13.703-1.43.131-.297.167-.421.167-.421l-.497 1.9c-.17.618-.247 1.311-.307 2.259.013.854.045 1.956.284 3.065.171 1.175.549 2.355.847 3.672.325 1.288.665 2.6.788 3.978.24 2.721-.184 5.639-3.302 8.144m-10.861-3.269s-.792.049-2.041-.108c-1.233-.165-2.957-.554-4.636-1.382-3.419-1.599-6.562-4.914-5.883-8.784.664-3.855.09-6.16-.773-7.619-.85-1.444-1.93-1.973-1.93-1.973s1.524.706 3.617 1.886c2.094 1.178 4.764 2.783 7.081 4.419 2.323 1.674 4.272 3.262 5.181 5.232.9 1.975.931 4.494-.616 8.329"/><path style="fill:#519a85" d="M255.5 187.026s-.722.128-1.885.43c-1.145.222-2.765.649-4.542 1.022l-2.775.694c-.938.25-1.895.564-2.801.946-1.779.72-3.432 1.776-4.261 3.617-1.595 3.719-4.123 5.11-6.409 5.282a8.3 8.3 0 0 1-2.893-.261c-.735-.195-1.188-.411-1.188-.411s.626.312 1.703.78c.527.236 1.205.502 1.98.778.775.275 1.617.575 2.594.83 1.908.564 4.145.906 6.385 1.098 2.26.079 4.542.009 6.593-.488 2.069-.402 3.872-1.216 5.34-2.117 1.455-.941 2.536-2.108 3.207-3.351 1.36-2.517.916-5.461-1.048-8.849m-109.553 163.39a341 341 0 0 1-12.848-10.053 263 263 0 0 1-12.229-10.838c-3.967-3.8-7.79-7.759-11.368-11.773a168 168 0 0 1-10.203-12.828c-3.046-4.286-5.963-8.975-8.673-13.938-2.481-4.565-4.676-9.477-6.709-15.017-1.731-4.758-3.144-9.951-4.321-15.88-.98-5.035-1.536-10.394-1.698-16.386-.185-11.684 1.772-22.564 5.818-32.352.2-.457.385-.895.571-1.332.35-.824.7-1.648 1.08-2.458l1.913-3.661c.396-.813.881-1.598 1.349-2.357.248-.4.495-.801.729-1.208l.616-.94c.549-.838 1.117-1.706 1.721-2.542 3.095-4.342 6.68-8.566 10.652-12.552 6.907-6.985 14.63-13.237 22.1-19.284l27.809-22.515 1.415 1.748-27.809 22.515c-7.422 6.008-15.096 12.22-21.919 19.12-3.888 3.901-7.393 8.031-10.42 12.278-.578.8-1.131 1.646-1.667 2.464l-.586.891c-.209.368-.468.787-.727 1.207-.46.745-.895 1.449-1.256 2.19l-1.905 3.646a70 70 0 0 0-1.024 2.337q-.282.67-.572 1.334c-3.919 9.481-5.819 20.061-5.639 31.424.159 5.854.701 11.092 1.656 16 1.155 5.81 2.538 10.895 4.227 15.541 1.994 5.434 4.145 10.247 6.572 14.713 2.666 4.885 5.536 9.496 8.528 13.706a165 165 0 0 0 10.057 12.645 206 206 0 0 0 11.234 11.634 261 261 0 0 0 12.114 10.735 340 340 0 0 0 12.757 9.982z"/><path style="fill:#519a85" d="M130.835 336.812s-.632-.881-1.428-2.329c-.792-1.45-1.824-3.379-2.549-5.533-1.53-4.26-1.958-9.126 1.288-11.526 3.232-2.434 4.119-5.051 4.257-7.021.161-1.991-.467-3.355-.467-3.355l.597 1.297 1.496 3.409c.604 1.406 1.256 3.065 1.951 4.809a87 87 0 0 1 1.897 5.503c1.092 3.757 1.798 7.481.977 10.299-.818 2.807-3.11 4.672-8.019 4.447"/><path style="fill:#519a85" d="M131.16 336.432s-.993-.45-2.513-1.079c-1.518-.632-3.64-1.358-5.844-1.986-4.451-1.172-9.489-1.809-11.828 1.511-2.305 3.334-5.05 4.155-7.256 4.08-2.185-.097-3.807-1.053-3.807-1.053l1.526.892a53 53 0 0 0 4.001 2.088c1.651.793 3.55 1.668 5.591 2.409 2.03.762 4.16 1.464 6.272 1.932 4.194.998 8.241 1.162 10.897-.073 2.668-1.239 3.973-3.938 2.961-8.721m-19.462-18.114-.33-.671a22 22 0 0 1-.783-1.821c-.582-1.548-1.346-3.59-1.745-5.819-.892-4.425-.508-9.254 3.073-11.119 3.561-1.91 4.876-4.33 5.351-6.196.52-1.897.17-3.287.17-3.287l.335 1.326c.186.851.49 2.046.84 3.475l1.082 4.897c.187.893.362 1.818.518 2.76.164.938.341 1.875.469 2.823.486 3.804.702 7.523-.486 10.218-1.172 2.672-3.655 4.269-8.494 3.414"/><path style="fill:#519a85" d="m112.069 317.983-.64-.391-1.713-1.006c-1.412-.837-3.428-1.842-5.523-2.791-4.247-1.811-9.154-3.285-11.981-.37-2.79 2.947-5.647 3.293-7.858 2.826-2.168-.5-3.647-1.772-3.647-1.772l1.392 1.187c.873.75 2.157 1.746 3.707 2.829 1.539 1.097 3.323 2.302 5.277 3.381a70 70 0 0 0 2.968 1.592c1.01.498 2.054.936 3.075 1.343 4.072 1.653 8.133 2.346 10.919 1.473 2.812-.887 4.412-3.428 4.024-8.301m-16.444-20.868-.206-.719c-.128-.457-.3-1.115-.44-1.931-.279-1.632-.657-3.771-.607-6.027.052-2.255.284-4.514 1.182-6.371.855-1.849 2.181-3.228 4.123-3.789 3.871-1.147 5.684-3.192 6.575-4.831.941-1.678.946-3.036.946-3.036l.003 1.298c-.032.836-.006 1.991-.002 3.381a81 81 0 0 1-.041 2.26c-.02.806.02 1.659.004 2.544a66 66 0 0 1-.077 2.732c-.028.924-.044 1.851-.108 2.784-.06.931-.149 1.861-.274 2.772-.117.907-.233 1.778-.417 2.62-.359 1.68-.905 3.211-1.719 4.423-1.621 2.407-4.335 3.595-8.942 1.89"/><path style="fill:#519a85" d="m96.05 296.851-.561-.498-1.505-1.299c-1.227-1.088-3.033-2.45-4.906-3.798-1.872-1.35-4.044-2.548-6.026-3.261-2.015-.685-4.013-.776-5.685.373-3.333 2.322-6.222 2.017-8.322 1.012-2.039-1.015-3.223-2.665-3.223-2.665l1.121 1.537c.693.967 1.777 2.279 3.103 3.746a97 97 0 0 0 2.127 2.301c.759.786 1.604 1.527 2.454 2.292a68 68 0 0 0 2.638 2.221 43 43 0 0 0 2.812 1.971c.944.611 1.887 1.17 2.814 1.658.935.483 1.886.871 2.788 1.187 1.813.626 3.5.906 4.961.719 2.942-.378 4.92-2.629 5.41-7.496m-11.793-23.776-.032-.747c-.007-.478-.047-1.148.02-1.976.124-1.652.29-3.818.878-5.979.621-2.17 1.423-4.274 2.744-5.841 1.303-1.569 2.94-2.562 4.958-2.612 4.032-.129 6.312-1.639 7.597-2.984.621-.68 1.095-1.341 1.342-1.83.26-.49.349-.812.349-.812l-.341 1.229c-.259.781-.486 1.89-.864 3.224a87 87 0 0 1-.627 2.157 72 72 0 0 1-1.412 4.954 51 51 0 0 1-.793 2.602c-.291.868-.61 1.731-.958 2.57-.31.828-.649 1.632-1.025 2.393-.752 1.52-1.646 2.868-2.722 3.856-2.11 1.945-5.046 2.536-9.114-.204"/><path style="fill:#519a85" d="m84.731 272.919-.429-.616c-.27-.393-.706-.938-1.163-1.616-.927-1.352-2.338-3.118-3.841-4.891-1.469-1.778-3.272-3.509-5.026-4.697-1.77-1.179-3.677-1.779-5.588-1.091-3.816 1.403-6.529.365-8.301-1.157-.905-.748-1.468-1.624-1.873-2.295-.393-.674-.573-1.154-.573-1.154l.686 1.801c.413 1.134 1.173 2.682 2.059 4.456.448.886.939 1.825 1.468 2.788a84 84 0 0 0 1.828 2.897c.645.971 1.31 1.942 2.014 2.878.74.925 1.502 1.821 2.275 2.664a37 37 0 0 0 2.342 2.346 24 24 0 0 0 2.46 1.857c1.626 1.062 3.206 1.742 4.67 1.902 2.977.315 5.365-1.45 6.992-6.072m-5.454-25.955s.205-1.071.695-2.629c.564-1.558 1.332-3.597 2.461-5.505 1.202-1.904 2.571-3.685 4.261-4.794 1.701-1.114 3.553-1.573 5.501-1.049 3.9 1.014 6.517.262 8.126-.586.785-.441 1.417-.896 1.801-1.259a4 4 0 0 0 .568-.621l-.681.995c-.483.616-.982 1.563-1.734 2.661l-1.201 1.787c-.39.646-.816 1.327-1.274 2.029-.447.704-.974 1.421-1.442 2.161a50 50 0 0 1-1.472 2.224c-.508.738-1.081 1.463-1.604 2.166a26 26 0 0 1-1.626 2.004c-1.124 1.25-2.368 2.308-3.638 2.977-2.508 1.319-5.56 1.151-8.741-2.561"/><path style="fill:#519a85" d="M79.776 246.937s-.356-1.025-.959-2.574c-.529-1.551-1.388-3.634-2.375-5.762-.915-2.123-2.15-4.304-3.511-5.961-1.352-1.651-3.002-2.795-5.031-2.677-4.062.268-6.356-1.544-7.601-3.581-.646-1.009-.93-2.051-1.104-2.84a9 9 0 0 1-.192-1.322l.102 1.999c.038 1.255.338 3.015.653 5.036.176 1.01.348 2.086.606 3.192.281 1.105.593 2.243.936 3.385.354 1.141.691 2.291 1.146 3.406.46 1.115.949 2.206 1.463 3.246.524 1.039 1.034 2.031 1.638 2.939.609.907 1.238 1.74 1.881 2.475 1.293 1.471 2.614 2.554 4.013 3.09 2.828 1.084 5.526-.015 8.335-4.051m2.155-26.4.386-.641c.259-.402.598-.982 1.095-1.635 1.043-1.291 2.413-2.973 4.111-4.38 1.774-1.377 3.632-2.576 5.605-3.006 1.976-.437 3.86-.199 5.507.965 3.312 2.291 6.007 2.539 7.769 2.376.865-.097 1.611-.295 2.083-.488.48-.189.729-.363.729-.363l-3.417 2.399-1.701 1.148q-.847.657-1.825 1.36c-.64.473-1.365.933-2.039 1.437-.661.51-1.354 1.02-2.071 1.516-.706.501-1.481.97-2.189 1.445a26 26 0 0 1-2.147 1.323c-1.444.799-2.963 1.394-4.362 1.637-2.774.474-5.676-.575-7.534-5.093"/><path style="fill:#519a85" d="m82.413 220.668-.017-.749-.088-1.998c.006-1.635-.147-3.897-.361-6.244-.139-2.314-.576-4.819-1.258-6.859-.685-2.033-1.821-3.703-3.767-4.294-3.91-1.145-5.409-3.685-5.823-6.099-.229-1.212-.123-2.295-.004-3.114a9.4 9.4 0 0 1 .294-1.331l-.621 1.946c-.402 1.2-.797 3.034-1.233 5.102-.206 1.042-.433 2.147-.598 3.308a81 81 0 0 0-.314 3.626c-.066 1.234-.152 2.467-.109 3.708a53 53 0 0 0 .292 3.657c.15 1.186.297 2.319.577 3.398a25 25 0 0 0 .994 3.012c.764 1.841 1.667 3.299 2.846 4.248 2.374 1.922 5.255 1.641 9.19-1.317m10.995-24.05.591-.46a21 21 0 0 1 1.633-1.12 28.5 28.5 0 0 1 5.382-2.723c4.188-1.577 9.009-1.895 11.398 1.354 2.432 3.223 5.015 4.169 6.931 4.378 1.958.206 3.289-.378 3.289-.378l-1.268.556c-.821.342-1.96.816-3.307 1.347-2.704 1.062-6.203 2.365-9.673 3.363-3.433.995-6.944 1.72-9.746 1.163-1.409-.292-2.658-.93-3.595-2.111-.934-1.179-1.582-2.923-1.635-5.369"/><path style="fill:#519a85" d="m93.812 196.912.908-2.583c.517-1.58 1.221-3.697 1.787-5.968 1.114-4.522 1.864-9.611-1.454-11.958-3.344-2.307-4.106-5.087-3.956-7.343.145-2.214 1.151-3.862 1.151-3.862l-.938 1.55a68 68 0 0 0-2.245 4.095c-1.737 3.407-3.719 8.048-4.732 12.568-1.011 4.554-1.049 8.846.459 11.452.739 1.301 1.831 2.175 3.316 2.532 1.487.358 3.34.187 5.704-.483m17.855-19.636s.974-.486 2.509-1.081a37 37 0 0 1 5.845-1.761c4.438-.921 9.406-.908 11.425 2.597 2.024 3.506 4.583 4.646 6.654 4.898 2.073.25 3.643-.378 3.643-.378l-1.483.591c-.94.362-2.285.862-3.856 1.383-3.158 1.055-7.245 2.204-11.133 2.805-3.894.6-7.663.692-10.313-.499-2.634-1.191-4.225-3.737-3.291-8.555"/><path style="fill:#519a85" d="M111.997 177.651s.599-.905 1.426-2.333c.82-1.436 1.884-3.384 2.771-5.501 1.78-4.234 2.856-9.107-.17-11.803-3.027-2.691-3.579-5.461-3.391-7.543.187-2.08 1.128-3.485 1.128-3.485l-.887 1.328c-.551.845-1.31 2.047-2.185 3.511-1.734 2.916-3.916 6.862-5.443 10.865-1.528 3.998-2.346 7.988-1.48 10.817.865 2.849 3.345 4.452 8.231 4.144m20.2-17.302s15.889-7.077 19.914-.05 10.306 4.514 10.306 4.514-34.729 14.615-30.22-4.464m12.143-11.317s6.388-15.095 16.167-16.265c9.779-1.171 12.568-7.052 12.568-7.052s-14.752 32.737-28.735 23.317"/><path style="fill:#519a85" d="M132.511 160.738s10.229-14.067 4.194-19.468-2.27-11.02-2.27-11.02-21.524 30.926-1.924 30.488m157.839 208.63-1.746-1.416a114 114 0 0 1 21.227-20.186c6.874-5.082 14.993-9.609 25.548-14.243 4.765-2.096 9.66-4.06 14.395-5.959 4.085-1.64 8.309-3.334 12.411-5.099 10.356-4.389 18.322-8.742 25.074-13.703l.751-.532 3.406-2.819c.476-.386.892-.729 1.253-1.105.459-.459.909-.895 1.358-1.33 1.289-1.246 2.507-2.424 3.561-3.769 3.023-3.338 5.659-7.262 7.888-11.724 4.004-8.059 6.314-17.511 6.678-27.331.358-9.279-.994-18.707-4.021-28.024-2.724-8.492-6.879-17.142-12.352-25.713l1.895-1.21c5.577 8.734 9.815 17.561 12.597 26.233 3.107 9.565 4.497 19.256 4.129 28.799-.377 10.136-2.768 19.904-6.913 28.248-2.32 4.648-5.073 8.742-8.183 12.171-1.097 1.404-2.428 2.691-3.714 3.935-.441.427-.883.854-1.316 1.287-.435.454-.928.861-1.435 1.272l-3.466 2.863-.8.571c-6.881 5.057-14.991 9.492-25.508 13.948-4.122 1.773-8.359 3.473-12.457 5.117-4.718 1.893-9.597 3.851-14.327 5.931-10.398 4.565-18.38 9.013-25.121 13.996a112 112 0 0 0-20.812 19.792"/><path style="fill:#519a85" d="M302.057 355.651s3.576-1.686 7.657-2.158c4.097-.507 8.523.262 10.342 3.865 1.862 3.567 4.116 5.058 5.814 5.713 1.718.665 2.947.469 2.947.469l-1.172.194c-.753.104-1.808.276-3.092.441-2.552.345-5.959.791-9.378.958-3.416.151-6.867.016-9.427-1.234-2.537-1.249-4.264-3.693-3.691-8.248"/><path style="fill:#519a85" d="M302.39 356.024s2.015-3.315 3.635-7.258c1.58-3.938 2.877-8.605.11-11.55-2.815-2.918-3.162-5.707-2.715-7.822.448-2.093 1.648-3.453 1.648-3.453l-1.113 1.283c-.697.807-1.635 1.998-2.674 3.418-2.069 2.857-4.428 6.747-5.881 10.643-1.471 3.894-2.047 7.749-1.055 10.487.991 2.764 3.478 4.332 8.045 4.252m18.961-14.215s.968-.201 2.447-.374c1.49-.156 3.436-.35 5.517-.139 2.07.186 4.159.606 5.898 1.516 1.748.913 3.1 2.259 3.672 4.192 1.154 3.862 3.167 5.701 4.842 6.594a7.2 7.2 0 0 0 2.162.746c.575.097.934.082.934.082l-1.346.059a73 73 0 0 1-3.413.043l-2.256-.053a65 65 0 0 1-2.418-.108 68 68 0 0 1-5.155-.536c-1.701-.251-3.418-.629-4.965-1.14-1.527-.494-2.938-1.168-4.05-2.043-2.216-1.757-3.387-4.503-1.869-8.839"/><path style="fill:#519a85" d="M321.597 342.243s.682-.685 1.65-1.824c.974-1.12 2.21-2.776 3.405-4.496 1.18-1.743 2.251-3.745 2.778-5.679.523-1.927.487-3.86-.611-5.559-2.207-3.392-2.113-6.171-1.419-8.121a8.2 8.2 0 0 1 1.23-2.254c.389-.503.694-.767.694-.767s-.423.347-1.156 1.01a85 85 0 0 0-2.923 2.784c-.582.584-1.19 1.2-1.825 1.89a72 72 0 0 0-1.94 2.217c-1.292 1.543-2.556 3.176-3.652 4.961-1.09 1.756-1.995 3.5-2.572 5.199-.572 1.725-.826 3.335-.629 4.788.387 2.91 2.493 4.971 6.97 5.851m21.255-10.532s3.896-.375 8.029.256c4.125.641 8.542 2.209 9.516 6.128.96 3.925 2.996 5.794 4.809 6.674 1.797.895 3.425.742 3.425.742l-1.523.129a81 81 0 0 1-6.343.072 64 64 0 0 1-2.684-.165c-1.833-.152-3.788-.383-5.592-.76-1.824-.372-3.591-.869-5.156-1.53-1.545-.657-2.886-1.474-3.891-2.501-2.002-2.052-2.647-4.94-.59-9.045"/><path style="fill:#519a85" d="M343.041 332.173s3.046-2.456 5.603-5.77c2.57-3.312 4.559-7.499 2.516-10.984-2.028-3.49-1.928-6.229-1.338-8.087.613-1.86 1.635-2.843 1.635-2.843l-.983.932a77 77 0 0 0-4.228 4.232c-.587.619-1.2 1.279-1.809 1.968a56 56 0 0 0-3.553 4.441c-1.116 1.565-2.087 3.172-2.777 4.747-.701 1.591-1.119 3.155-1.111 4.599.012 2.896 1.714 5.322 6.045 6.765m21.76-9.48s.964-.127 2.458-.202a57 57 0 0 1 5.627.027c4.219.364 8.937 1.239 10.349 5.046 1.356 3.814 3.696 5.384 5.782 5.947 1.035.304 2.005.276 2.711.213.706-.067 1.15-.194 1.15-.194l-1.668.468c-1.057.317-2.526.543-4.257.841-3.472.622-7.864.864-11.853.472-1.988-.232-3.887-.608-5.544-1.178-1.655-.574-3.06-1.385-4.098-2.389-2.077-2.027-2.623-4.922-.657-9.051"/><path style="fill:#519a85" d="M365.003 323.151s.744-.644 1.779-1.712c1.04-1.058 2.364-2.554 3.471-4.307 2.307-3.435 3.574-7.797 1.169-11.012-2.368-3.261-2.684-5.937-2.493-7.744.119-.899.296-1.622.483-2.103.183-.482.353-.734.353-.734l-.647.962c-.37.633-1.073 1.473-1.793 2.551-1.414 2.165-3.523 5.049-5.264 8.158-.903 1.537-1.697 3.13-2.258 4.701-.565 1.57-.933 3.092-.887 4.529.081 2.856 1.711 5.349 6.087 6.711m20.611-11.691s.918-.306 2.38-.674c1.496-.323 3.397-.911 5.537-1.29 1.054-.209 2.208-.311 3.269-.46 1.074-.133 2.153-.187 3.186-.116 2.062.146 3.953.78 5.145 2.411 1.187 1.636 2.463 2.658 3.75 3.23 1.283.571 2.586.718 3.694.549 2.244-.297 3.917-1.498 3.917-1.498s-.573.425-1.566 1.106c-.998.674-2.376 1.654-4.141 2.505-1.744.877-3.72 1.878-5.83 2.648-2.137.714-4.356 1.33-6.481 1.734-2.152.312-4.227.381-6.047.204-.912-.095-1.758-.243-2.534-.492a9 9 0 0 1-2.094-1.003c-1.221-.814-2.069-1.928-2.449-3.38-.382-1.45-.276-3.216.264-5.474"/><path style="fill:#519a85" d="M385.898 311.871s.611-.778 1.412-2.016c.836-1.194 1.7-3.037 2.351-4.938.308-.969.616-1.908.703-2.939.102-1.017.099-2.014-.044-2.955-.284-1.885-1.143-3.527-2.748-4.754-1.599-1.232-2.669-2.457-3.415-3.557-.746-1.104-1.138-2.075-1.439-2.926-.562-1.678-.365-2.672-.365-2.672l-.198.965c-.125.617-.23 1.554-.546 2.601-.289 1.063-.533 2.387-.884 3.807a53 53 0 0 0-1.117 4.547c-.401 1.566-.761 3.176-.919 4.77a19 19 0 0 0-.099 2.342c.001.745.067 1.47.218 2.162.301 1.382.935 2.629 2.066 3.617 1.131.984 2.775 1.74 5.024 1.946m16.55-16.825.547-.402 1.419-1.092a68 68 0 0 1 2.134-1.52 44 44 0 0 1 2.541-1.773c.939-.582 1.852-1.19 2.814-1.722.961-.532 1.959-.995 2.954-1.329 1.923-.684 3.893-.847 5.634.193 3.467 2.116 6.309 1.704 8.334.582 1.967-1.111 3.019-2.823 3.019-2.823l-1.004 1.587c-.617.991-1.618 2.357-2.841 3.877-1.174 1.53-2.746 3.175-4.382 4.763-.798.801-1.752 1.546-2.65 2.271-.929.714-1.809 1.413-2.797 2.002-3.828 2.438-7.83 3.643-10.653 3.009-1.447-.336-2.623-1.115-3.449-2.355-.833-1.246-1.396-3.022-1.62-5.268"/><path style="fill:#519a85" d="m402.86 295.33.203-.64c.117-.413.239-1.028.374-1.755.129-.731.267-1.576.346-2.493.043-.938.045-1.937-.022-2.934-.047-.986-.25-2.017-.529-2.98-.28-.964-.649-1.868-1.134-2.669-1.03-1.637-2.482-2.819-4.431-3.321-3.881-1.04-5.895-2.781-6.989-4.08-1.134-1.346-1.334-2.389-1.334-2.389l2.144 11.851c.608 3.036 1.271 6.185 2.848 8.585.762 1.172 1.763 2.134 3.165 2.704 1.393.562 3.105.676 5.359.121m8.863-21.871s.455-.849 1.265-2.118c.853-1.263 1.853-2.99 3.194-4.72 1.212-1.739 2.755-3.499 4.326-4.773 1.601-1.267 3.413-2.048 5.397-1.653 3.953.822 6.554-.467 8.046-2.104 1.492-1.621 1.969-3.498 1.969-3.498l-.456 1.75c-.305 1.096-.725 2.63-1.407 4.389-.328.878-.693 1.81-1.092 2.767a58 58 0 0 1-1.411 2.924c-.971 1.963-2.254 3.915-3.538 5.649-1.335 1.734-2.819 3.247-4.265 4.377-1.522 1.124-3.032 1.864-4.472 2.102-2.892.49-5.466-1.078-7.556-5.092"/><path style="fill:#519a85" d="M412.21 273.568s-.089-.99-.357-2.442c-.225-1.444-.839-3.379-1.626-5.21-.914-1.852-2.006-3.601-3.535-4.815-1.498-1.218-3.251-1.878-5.259-1.696-4.029.33-6.442-.685-7.955-1.642-1.513-.974-2.014-1.98-2.014-1.98l.478.971c.311.616.807 1.497 1.322 2.546.27.526.573 1.098.908 1.706l.984 1.898c.748 1.331 1.432 2.718 2.291 4.127.81 1.393 1.651 2.768 2.639 4.026.916 1.232 1.951 2.343 3.122 3.151 2.342 1.601 5.238 2.059 9.002-.64m.908-23.629s.183-.95.58-2.405a66 66 0 0 1 1.606-5.446c.681-2.025 1.595-4.145 2.744-5.805 1.179-1.666 2.698-2.92 4.709-3.119 4.028-.372 6.131-2.316 7.107-4.253a8.8 8.8 0 0 0 .853-2.628c.121-.714.094-1.17.094-1.17s.042.639.038 1.746c-.009 1.108.008 2.644-.136 4.464-.156 1.83-.338 3.857-.772 6.031a47 47 0 0 1-.711 3.221c-.304 1.07-.64 2.12-1.009 3.128-1.497 4.045-3.713 7.364-6.331 8.695-2.617 1.354-5.494.71-8.772-2.459"/><path style="fill:#519a85" d="M413.616 249.892s-.379-.914-1.065-2.219c-.716-1.3-1.785-2.979-3.142-4.489-1.384-1.51-2.986-2.855-4.795-3.595-1.78-.748-3.648-.892-5.519-.133-3.748 1.491-6.384 1.19-8.126.647a7 7 0 0 1-1.899-.934 5 5 0 0 1-.617-.516l.755.857c.467.541 1.209 1.301 2.036 2.208.812.904 1.867 1.967 2.89 3.039.525.542 1.103 1.096 1.677 1.66a47 47 0 0 0 1.747 1.697c2.409 2.233 5.013 4.385 7.714 5.214 2.699.807 5.648.288 8.344-3.436m-5.973-22.904s-.056-.975-.071-2.474c-.05-1.484.019-3.536.174-5.647.203-2.133.548-4.351 1.32-6.231.788-1.886 1.967-3.414 3.883-4.077 3.839-1.309 5.429-3.613 6.009-5.673.597-2.064.161-3.771.161-3.771s.161.591.392 1.612c.216 1.036.5 2.502.768 4.216.493 3.47.847 7.981.345 12.15-.221 2.067-.658 4.049-1.306 5.751-.626 1.692-1.482 3.111-2.564 4.108-1.073.994-2.355 1.556-3.859 1.585-1.503.03-3.22-.474-5.252-1.549m-7.185-12.826s-.809-.472-1.991-1.297a49 49 0 0 1-4.397-3.331c-3.186-2.764-6.409-6.342-6.502-10.802a16.2 16.2 0 0 0-1.023-5.578c-.595-1.478-1.333-2.619-2.064-3.461-1.482-1.672-2.856-2.203-2.856-2.203s1.918.676 4.657 1.999c2.727 1.328 6.269 3.344 9.423 5.959 3.137 2.616 5.91 5.81 7.062 9.142.59 1.653.748 3.35.425 4.954-.346 1.622-1.227 3.182-2.734 4.618"/><path style="fill:#519a85" d="M408.11 226.811s-.586-.787-1.609-1.861c-1.058-1.06-2.467-2.435-4.199-3.567-1.684-1.154-3.631-2.085-5.539-2.417-1.895-.342-3.788-.067-5.425 1.102-3.285 2.32-5.983 2.602-7.81 2.386-1.815-.229-2.86-.995-2.86-.995l.983.737a67 67 0 0 0 2.566 1.869c2.104 1.515 4.97 3.46 7.898 5.155 1.496.838 3 1.612 4.495 2.191 1.517.573 3.005.955 4.414.99 1.419.031 2.781-.292 4.003-1.158 1.223-.869 2.315-2.285 3.083-4.432"/><path style="fill:#fff" d="M146.817 349.039s-7.63-20.92-.738-20.92.738 20.92.738 20.92"/><path style="fill:#fff" d="M146.793 348.912s-20.188-9.398-15.315-14.271 15.315 14.271 15.315 14.271m.047 0s20.188-9.398 15.315-14.271-15.315 14.271-15.315 14.271"/><path style="fill:#fff" d="M146.816 348.793s7.63 20.92.738 20.92c-6.891.001-.738-20.92-.738-20.92"/><path style="fill:#fff" d="M146.84 348.92s20.188 9.398 15.315 14.271-15.315-14.271-15.315-14.271m-.108-.158s21.309-6.464 20.929.417c-.38 6.88-20.929-.417-20.929-.417"/><path style="fill:#fff" d="M146.869 348.762s-21.309-6.464-20.929.417c.38 6.88 20.929-.417 20.929-.417m-.076.158s-20.188 9.398-15.315 14.271 15.315-14.271 15.315-14.271"/><circle style="fill:#f9ee4f" cx="146.817" cy="349.039" r="2.215"/><path style="fill:#fff" d="M175.624 197.012s-4.533-12.429-.439-12.429.439 12.429.439 12.429"/><path style="fill:#fff" d="M175.61 196.936s-11.994-5.583-9.099-8.479 9.099 8.479 9.099 8.479m.027 0s11.994-5.583 9.099-8.479-9.099 8.479-9.099 8.479"/><path style="fill:#fff" d="M175.623 196.866s4.533 12.429.439 12.429-.439-12.429-.439-12.429"/><path style="fill:#fff" d="M175.637 196.941s11.994 5.583 9.099 8.479-9.099-8.479-9.099-8.479m-.063-.094s12.661-3.841 12.435.248c-.227 4.088-12.435-.248-12.435-.248"/><path style="fill:#fff" d="M175.655 196.847s-12.66-3.841-12.435.248c.226 4.088 12.435-.248 12.435-.248m-.045.094s-11.994 5.583-9.099 8.479 9.099-8.479 9.099-8.479"/><path style="fill:#f9ee4f" d="M176.94 197.012a1.316 1.316 0 1 1-2.632 0 1.316 1.316 0 0 1 2.632 0"/><path style="fill:#fff" d="M341.684 237.553s-4.533-12.429-.439-12.429.439 12.429.439 12.429"/><path style="fill:#fff" d="M341.669 237.478s-11.994-5.584-9.099-8.479 9.099 8.479 9.099 8.479m.028 0s11.994-5.584 9.099-8.479-9.099 8.479-9.099 8.479"/><path style="fill:#fff" d="M341.683 237.407s4.533 12.429.439 12.429-.439-12.429-.439-12.429"/><path style="fill:#fff" d="M341.697 237.483s11.994 5.584 9.099 8.479-9.099-8.479-9.099-8.479m-.064-.095s12.66-3.841 12.435.247c-.226 4.089-12.435-.247-12.435-.247"/><path style="fill:#fff" d="M341.715 237.388s-12.66-3.841-12.435.247c.226 4.089 12.435-.247 12.435-.247m-.046.095s-11.994 5.584-9.099 8.479 9.099-8.479 9.099-8.479"/><path style="fill:#f9ee4f" d="M343 237.553a1.316 1.316 0 1 1-2.632 0 1.316 1.316 0 0 1 2.632 0"/><path style="fill:#fff" d="M289.483 369.039s-7.63-20.92-.738-20.92.738 20.92.738 20.92"/><path style="fill:#fff" d="M289.459 368.912s-20.188-9.398-15.315-14.271 15.315 14.271 15.315 14.271m.047 0s20.188-9.398 15.315-14.271-15.315 14.271-15.315 14.271"/><path style="fill:#fff" d="M289.482 368.793s7.63 20.92.738 20.92c-6.891.001-.738-20.92-.738-20.92"/><path style="fill:#fff" d="M289.506 368.92s20.188 9.398 15.315 14.271-15.315-14.271-15.315-14.271m-.107-.158s21.309-6.464 20.929.417c-.38 6.88-20.929-.417-20.929-.417"/><path style="fill:#fff" d="M289.536 368.762s-21.309-6.464-20.929.417c.38 6.88 20.929-.417 20.929-.417m-.077.158s-20.188 9.398-15.315 14.271 15.315-14.271 15.315-14.271"/><circle style="fill:#f9ee4f" cx="289.483" cy="369.039" r="2.215"/><path style="fill:#fff" d="M80.478 249.999S75.373 236 79.984 236s.494 13.999.494 13.999"/><path style="fill:#fff" d="M80.462 249.913s-13.508-6.288-10.248-9.549c3.261-3.26 10.248 9.549 10.248 9.549m.031 0s13.509-6.288 10.248-9.549c-3.26-3.26-10.248 9.549-10.248 9.549"/><path style="fill:#fff" d="M80.477 249.834s5.105 13.999.494 13.999c-4.611-.001-.494-13.999-.494-13.999"/><path style="fill:#fff" d="M80.493 249.919s13.509 6.288 10.248 9.549c-3.26 3.261-10.248-9.549-10.248-9.549m-.071-.106s14.259-4.325 14.004.279c-.254 4.604-14.004-.279-14.004-.279"/><path style="fill:#fff" d="M80.513 249.813s-14.259-4.325-14.004.279c.254 4.604 14.004-.279 14.004-.279m-.051.106s-13.508 6.288-10.248 9.549c3.261 3.261 10.248-9.549 10.248-9.549"/><circle style="fill:#f9ee4f" cx="80.478" cy="249.999" r="1.482"/><path style="fill:#fff" d="M412.478 249.999S407.373 236 411.984 236s.494 13.999.494 13.999"/><path style="fill:#fff" d="M412.462 249.913s-13.509-6.288-10.248-9.549 10.248 9.549 10.248 9.549m.031 0s13.509-6.288 10.248-9.549c-3.26-3.26-10.248 9.549-10.248 9.549"/><path style="fill:#fff" d="M412.477 249.834s5.105 13.999.494 13.999c-4.611-.001-.494-13.999-.494-13.999"/><path style="fill:#fff" d="M412.493 249.919s13.509 6.288 10.248 9.549c-3.26 3.261-10.248-9.549-10.248-9.549m-.071-.106s14.259-4.325 14.004.279c-.254 4.604-14.004-.279-14.004-.279"/><path style="fill:#fff" d="M412.513 249.813s-14.259-4.325-14.004.279c.254 4.604 14.004-.279 14.004-.279m-.051.106s-13.509 6.288-10.248 9.549 10.248-9.549 10.248-9.549"/><circle style="fill:#f9ee4f" cx="412.478" cy="249.999" r="1.482"/><path style="fill:#fff" d="M275.893 261.049s-9.554-26.196-.925-26.196c8.629.001.925 26.196.925 26.196"/><path style="fill:#fff" d="M275.862 260.89s-25.279-11.768-19.177-17.869c6.102-6.102 19.177 17.869 19.177 17.869m.059 0s25.279-11.768 19.177-17.869c-6.102-6.102-19.177 17.869-19.177 17.869"/><path style="fill:#fff" d="M275.891 260.741s9.554 26.196.925 26.196c-8.63 0-.925-26.196-.925-26.196"/><path style="fill:#fff" d="M275.921 260.901s25.279 11.768 19.177 17.869c-6.102 6.102-19.177-17.869-19.177-17.869m-.134-.199s26.683-8.094 26.207.522-26.207-.522-26.207-.522"/><path style="fill:#fff" d="M275.958 260.702s-26.683-8.094-26.207.522 26.207-.522 26.207-.522m-.096.199s-25.279 11.768-19.177 17.869c6.102 6.102 19.177-17.869 19.177-17.869"/><path style="fill:#f9ee4f" d="M278.666 261.049a2.774 2.774 0 1 1-5.548 0 2.774 2.774 0 0 1 5.548 0"/><path style="fill:#15b392" d="m265.272 211.565 8.623 2.874-71.133 290.28-9.341-2.156z"/><path style="fill:#15b392" d="m269.826 272.48-19.036 6.853v-5.33l19.036-6.853zm-9.518 31.981-19.036 6.853v-5.33l19.036-6.853zm-10.279 54.064-19.036 6.853v-5.33l19.036-6.853zm-23.224 94.416-19.036 6.853v-5.33l19.036-6.853z"/><path style="fill:#f6c367" d="M253.455 272.004s2.284-3.141 6.282-6.853 4.854-5.711 7.138-4.854 2.855 5.14 2.57 6.567-7.424 3.426-7.424 3.426l-3.712 6.853z"/><path style="fill:#8ad300" d="M189.494 471.787s-3.046 3.617-2.665 6.663 6.282 4.378 7.995 5.901 3.807 5.901 8.376 7.043 9.518 2.475 12.183.761-4.569-7.805-4.569-7.805zm10.66-30.458s-1.523 3.807-1.142 5.33 5.901 5.901 8.376 6.282 11.993.381 13.325-1.142-2.284-4.188-7.995-4.759z"/><path style="fill:#10134b" d="M216.525 337.583s-4.188 19.036-3.997 19.988-7.043 45.305-7.234 51.016-1.333 13.325-2.855 16.181c-1.523 2.855-3.046 31.98-2.665 36.168s2.284 10.47 4.378 14.658 7.614 8.947 7.234 10.47c-.381 1.523-9.137 1.904-12.373-1.523s-9.708-11.041-9.518-12.754 1.523-8.376 0-15.419-4.569-18.465-2.094-28.744 1.904-26.27.381-30.458-1.904-16.561-4.188-19.988-7.805-15.419-2.284-25.889c5.52-10.47 7.614-16.561 7.614-16.561s14.658-1.523 26.841 3.046"/><path style="fill:#10134b" d="M210.815 344.056s19.607 28.554 25.318 35.407 10.089 11.993 7.424 17.323-32.361 29.125-34.455 32.742-3.046 6.091-2.094 8.185 3.998 8.757 5.711 9.328-4.188 2.475-8.186-.761c-3.997-3.236-10.47-13.706-7.995-17.703 2.475-3.998 8.376-7.805 11.612-14.277s10.089-16.561 16.942-19.036l-15.99-15.419z"/><path style="fill:#f6c367" d="M206.246 242.975c2.296 1.312 5.52 3.807 5.901 6.282s1.333 4.378 4.378 4.188c0 0 1.523 0 .381 1.904 0 0 2.665 8.376.571 11.041s-5.52 1.523-6.091 3.807-3.998 7.995-3.998 7.995l-9.518-6.282 1.333-7.614s-9.328-1.523-9.708-8.376c-.381-6.854 8.756-17.514 16.751-12.945"/><path style="fill:#d7a861" d="M196.918 264.866c.428 0 2.284-.571 2.284-.571s7.71 4.997 12.706 4.569c0 0-1.904 6.092-4.521 9.328l-11.041-6.758z"/><path style="fill:#f6c367" d="m232.896 313.693 6.567-3.997s3.997.285 5.425-2.284 2.284-3.998 3.426-3.998 2.855-1.142 2.855-1.142-2.57-3.712-4.854-3.141-5.425 4.854-7.71 5.996c-2.284 1.142-5.711 2.57-5.711 2.57v5.996z"/><path style="fill:#a24533" d="m218.048 312.266 14.848-4.569 2.856 7.709-19.703 9.994z"/><path style="fill:#8ad300" d="m196.347 270.577 12.373 7.995 6.092 3.046s21.511 3.426 22.843 3.236 15.99-13.706 15.99-13.706 5.52-.571 7.043 5.14c0 0-11.802 16.371-14.658 18.275s-26.079 2.475-26.079 2.475 3.998 5.711 3.998 9.328-8.185 23.605-8.185 23.605-.381-2.094 0 1.142 2.665 6.663 0 6.663-21.32 0-26.841-3.046c0 0-1.713-3.046.571-7.995s-1.713-14.467-2.094-19.036-3.046-26.27-2.665-32.361c.381-6.094 8.947-6.665 11.612-4.761"/><path style="fill:#997c70" d="M205.485 242.594s-3.998 10.279-1.142 19.417c2.855 9.137-5.938 11.519-6.509 20.656s4.995 38.12-3 39.833-17.903-9.663-17.332-23.94 5.673-37.849 7.424-48.542c2.241-13.685 18.074-15.685 20.559-7.424"/><path style="fill:#f6c367" d="M206.167 260.583a3.417 3.417 0 1 1-6.834 0 3.417 3.417 0 0 1 6.834 0"/><path style="fill:#997c70" d="M203.833 241s4 4.833 2.833 8.5.5 9.167.667 10.5-4.333-2.5-5.833-4.5 2.333-14.5 2.333-14.5"/><path style="fill:#15b392" d="m280.867 201.667 9.137 3.045-75.382 307.621-9.899-2.284z"/><path style="fill:#15b392" d="m280.105 235.17-19.035 6.853v-5.33l19.035-6.853z"/><path style="fill:#10134b" d="M420.475 221.511s3.607 19.012-6.51 48.801l23.606 66.358-8.431 5.023-33.724-71.943v-30.351z"/><path style="fill:#10134b" d="M383.614 221.975s.562 116.346 1.686 118.032l7.307-1.124L405.593 230.8z"/><path style="fill:#997c70" d="m406.72 149.065 3.022.326-3.216 2.379zm-14.199 3.876-1.853-4.484 2.736-.239z"/><path style="fill:#8ad300" d="m409.742 149.391.833 5.063s8.624 4.099 11.313 6.032 3.136 4.793 3.676 9.4c.539 4.607.058 12.838 1.711 15.567s-1.262 6.979.059 9.793 1.853 4.483-1.485 4.026-9.708.391-10.915 5.09l2.27 7.776s.927 2.242.401 3.509-20.095-1.877-24.594.193-11.503 5.7-12.445 3.675-4.374-48.168-5.1-50.178-22.164-6.376-24.854-8.309-4.62-5.335-4.62-5.335 5.704-.678 7.56-2.285-.415-6.338-.415-6.338 2.226-.71 3.632.913c1.406 1.624 2.705 1.717 3.972 2.243s5.951 1.95 8.378 1.471 12.428-.413 14.623-.691 4.173 2.475 4.869 1.872 2.057-4.42 2.057-4.42z"/><path style="fill:#508d69" d="M449.645 223.818s-35.201-36.894-79.328-3.953c0 0 29.76 33.894 79.328 3.953"/><path style="fill:#efeff1" d="m420.475 221.511-.301-.401c5.745.398 11.102.811 15.633 1.18l.439.586-.08.096c-4.515-.369-9.88-.785-15.653-1.187.025-.093.023-.192-.038-.274m16.446 1.18-.248-.33c6.587.54 11.275.972 12.612 1.097.235.23.36.36.36.36-.161.097-.319.186-.48.282-1.391-.13-5.909-.545-12.232-1.065.059-.11.065-.241-.012-.344m-50.63-2.619c-5.882-.129-11.276-.116-15.686.106a15 15 0 0 1-.288-.312c.161-.12.321-.23.482-.349 4.512-.218 10.025-.223 16.025-.083zm17.737.259-.168-.224a988 988 0 0 1 15.456.944l.484.645-.032.038a986 986 0 0 0-15.776-.969l.025-.03a.326.326 0 0 0 .011-.404m-16.419-.879c4.924.124 10.151.34 15.405.611l.339.452-.173.207a588 588 0 0 0-16.057-.632l.448-.537c.024-.028.025-.066.038-.101"/><path style="fill:#efeff1" d="m435.807 222.29-9.711-12.95q.562.196 1.114.4l9.464 12.62.248.33c.077.103.071.234.012.344-.01.019-.008.043-.023.06l-8.626 10.339q-.557.162-1.109.313l8.99-10.775.08-.096zm-16.491-1.239-11.147-14.865q.414.005.826.016l11.179 14.908.301.401c.061.082.063.181.038.275-.012.045-.018.092-.049.129l-11.878 14.236c-.277-.007-.555-.011-.83-.021l12.011-14.395.032-.038zm-16.303-.988-9.038-12.051c.23-.061.457-.113.686-.17l9.198 12.266.168.224a.33.33 0 0 1-.01.404l-.025.03-10.764 12.902q-.339-.103-.673-.21l10.625-12.734.173-.207zm-16.107-.728-5.013-6.685c.196-.099.393-.205.588-.301l5.1 6.801c.067.09.065.201.028.302-.013.035-.014.072-.039.102l-.448.537-6.57 7.874q-.283-.172-.559-.346l6.297-7.548.533-.638z"/><path style="fill:#f6c367" d="m427.487 199.171-.179 26.742s4.202 8.132 4.124 9.214-4.16 6.444-4.856 7.047-3.956-2.459-3.956-2.459.463 2.643-.851 2.767c-1.314.123-1.901-.789-1.885-4.051s-.725-5.055-.059-8.27a135 135 0 0 1 1.269-5.564l-6.161-20.236s-.399-6.554 12.554-5.19m-74.35-52.102s-16.224-19.436-18.387-22.636c-2.163-3.201-5.656-6.061-6.938-6.371s-2.211.494-2.211.494-2.055-1.67-2.967-1.083-1.021 2.102-.001 3.045 4.327 3.356 4.327 3.356 1.111 5.735 2.981 6.957 3.323 2.196 3.323 2.196 10.242 20.964 12.73 22.665c-.002 0 12.844-.166 7.143-8.623"/><path style="fill:#f6c367" d="M324.255 119.112s-3.184-1.099-3.556 1.05 1.266 3.571 1.266 3.571-.356 1.932 1.282 3.355 5.688 2.583 5.688 2.583l-.971-7.683zm68.555 2.526c-3.082 2.037-4.341 4.42-4.249 6.166s.323 4.591.323 4.591-1.716 1.182-1.809 2.48l1.704 1.264s-1.096 7.698 1.006 8.719a51 51 0 0 1 3.821 2.069l-1.084 6.013 4.62 5.334 9.385-6.505.327-7.59s5.382-8.314 5.353-13.972c-.029-5.656-10.491-14.455-19.397-8.569"/><path style="fill:#10134b" d="M388.75 125.75s7.13.342 7.5 2 2.929 4.406 3.555 4.777 2.539.998 2.178 3.745c-.36 2.747.275 2.674.88 3.652 1.9 3.073 4.137 7.575 4.137 7.575s1.743.706 3.75-2.25 8-14 5-22.25c-2.735-7.522-17.986-11.101-23.25-10.5S378 119 388.75 125.75"/><path style="fill:#f6c367" d="M397.59 133.836a3.254 3.254 0 1 0 6.491.467 3.254 3.254 0 0 0-6.491-.467"/><path style="fill:#10134b" d="m437.009 336.073-8.501 5.34s-8.852-1.405-12.225.843-3.372 6.183-3.372 6.183l17.705-.281 10.328-4.215c0-.002-.562-6.184-3.935-7.87m-44.402 2.81s2.248 7.307 2.248 8.993-7.869.562-9.555 0-5.059 1.124-5.059 1.124H369s.562-9.555 6.183-9.555 10.117.562 10.117.562l1.686-5.059z"/><path style="fill:#fff" d="M323.747 120.76s5.138-11.464 1.26-11.742c-3.877-.278-1.26 11.742-1.26 11.742"/><path style="fill:#fff" d="M323.766 120.689s11.739-4.473 9.194-7.412-9.194 7.412-9.194 7.412m-.026-.002s-10.98-6.103-8.041-8.648 8.041 8.648 8.041 8.648"/><path style="fill:#fff" d="M323.758 120.621s-5.138 11.464-1.26 11.742c3.877.279 1.26-11.742 1.26-11.742"/><path style="fill:#fff" d="M323.739 120.692s-11.739 4.473-9.194 7.412 9.194-7.412 9.194-7.412m.067-.085s-11.73-4.498-11.794-.611c-.063 3.888 11.794.611 11.794.611"/><path style="fill:#fff" d="M323.729 120.602s12.252-2.777 11.76 1.08c-.492 3.856-11.76-1.08-11.76-1.08m.037.092s10.98 6.103 8.041 8.648-8.041-8.648-8.041-8.648"/><path style="fill:#f9ee4f" d="M322.501 120.671a1.25 1.25 0 0 0 2.493.179 1.25 1.25 0 0 0-2.493-.179"/><path style="fill:#15b392" d="M455.667 352.333h-99.333a3.343 3.343 0 0 1-3.333-3.333c0-1.833 1.5-3.333 3.333-3.333h99.333c1.833 0 3.333 1.5 3.333 3.333s-1.5 3.333-3.333 3.333"/><path style="fill:#15b392" d="M369 349h4.666v155.333H369zm71.334 0H445v155.333h-4.666z"/><path style="fill:#15b392" d="M371 373h72v3.333h-72zm0 30h72v3.333h-72zm0 30h72v3.333h-72zm0 30h72v3.333h-72z"/><path style="fill:#dcbb43" d="M270.867 63c-14.4 7.069-20.131 12.8-27.2 27.2-7.069-14.4-12.8-20.131-27.2-27.2 14.4-7.069 20.131-12.8 27.2-27.2 7.069 14.4 12.8 20.131 27.2 27.2"/><path style="fill:#dcbb43" d="M262.9 82.233c-15.181-5.184-23.286-5.184-38.467 0 5.184-15.181 5.184-23.286 0-38.467 15.181 5.184 23.285 5.184 38.467 0-5.184 15.182-5.184 23.286 0 38.467"/><circle style="fill:#f9eb67" cx="243.667" cy="63" r="14.667"/></g></svg>